<svg xmlns="http://www.w3.org/2000/svg"><metadata/><defs><font id="aften_screenitalic" horiz-adv-x="1229"><font-face ascent="1515" descent="-533" units-per-em="2048"/><glyph horiz-adv-x="512"/><glyph horiz-adv-x="512"/><glyph horiz-adv-x="512"/><glyph d="M201 383l116 950h156l-117 -950h-155zM360 113q0 -52 -33.5 -89.5t-86.5 -37.5q-47 0 -76 31.5t-29 78.5q0 54 33 91.5t86 37.5q47 0 76.5 -31.5t29.5 -80.5z" horiz-adv-x="516" unicode="!"/><glyph d="M222 1333h141l-66 -440h-141zM529 1333h141l-66 -440h-141z" horiz-adv-x="719" unicode="&quot;"/><glyph d="M776 358h205l-23 -106h-208l-70 -301h-129l70 301h-205l-70 -301h-129l70 301h-172l22 106h176l62 263h-193l23 108h196l68 297h129l-68 -297h201l72 297h129l-68 -297h183l-19 -108h-190zM709 621h-205l-62 -263h205z" horiz-adv-x="1061" unicode="#"/><glyph d="M752 1538l-25 -211q61 -4 115.5 -26.5t94.5 -55.5t64.5 -71.5t30.5 -73.5l-135 -72q-12 59 -56 107.5t-130 62.5l-56 -471q68 -20 126.5 -49t101.5 -70t67.5 -95t24.5 -126q0 -78 -30 -145.5t-83 -118.5t-129 -84t-168 -41l-26 -207h-127l26 207q-73 2 -136.5 23.5 t-111 54.5t-77 75t-37.5 89l135 75q18 -71 78.5 -125.5t163.5 -64.5l57 498q-64 20 -119 51t-95 72.5t-62.5 96t-22.5 126.5q0 80 28.5 146.5t81 115.5t123 75.5t156.5 26.5l25 205h127zM821 360q0 93 -55 141t-133 77l-53 -453q108 10 174.5 70.5t66.5 164.5zM360 987 q0 -86 50.5 -138t119.5 -81l54 438q-123 -4 -173.5 -68.5t-50.5 -150.5z" horiz-adv-x="1120" unicode="$"/><glyph d="M494 0h-131l829 1333h131zM440 1345q133 0 200.5 -78t67.5 -223q0 -219 -91 -332t-245 -113q-135 0 -199.5 78t-64.5 226q0 106 24.5 189t68.5 139.5t105.5 85t133.5 28.5zM380 700q99 0 152 88t53 250q0 100 -35.5 153.5t-111.5 53.5q-98 0 -151.5 -88.5t-53.5 -247.5 q0 -103 36 -156t111 -53zM1305 729q133 0 200.5 -78t67.5 -223q0 -219 -91 -332t-245 -113q-135 0 -199.5 78t-64.5 226q0 106 24.5 189t68.5 139.5t105.5 85t133.5 28.5zM1245 84q99 0 152 88t53 250q0 100 -35.5 153.5t-111.5 53.5q-98 0 -151.5 -88.5t-53.5 -247.5 q0 -103 36 -156t111 -53z" horiz-adv-x="1679" unicode="%"/><glyph d="M1147 547q-10 -80 -38 -159t-75 -148l125 -181l-129 -84l-104 152q-76 -72 -164 -112t-205 -40q-88 0 -159.5 25t-124 71t-81 111.5t-28.5 149.5q0 98 36 169.5t88 122t110.5 81t105.5 47.5q-39 53 -77 121.5t-38 158.5q0 74 25.5 135.5t71.5 103.5t108.5 64.5 t134.5 22.5t128 -21.5t95 -59.5t59.5 -88t20.5 -106q0 -79 -34.5 -139.5t-84 -108t-104.5 -79t-94 -51.5l227 -338q41 86 53 180h152zM567 104q86 0 158 38t125 98l-279 413q-34 -14 -77 -34.5t-80 -54.5t-62.5 -82t-25.5 -117q0 -43 12 -88.5t40 -84t74 -63.5t115 -25z M537 1061q0 -55 34.5 -126t75.5 -130q31 12 72 32.5t78 52.5t62.5 76t25.5 101q0 74 -46 120t-122 46q-82 0 -131 -49t-49 -123z" horiz-adv-x="1384" unicode="&amp;"/><glyph d="M242 1333h141l-66 -440h-141z" horiz-adv-x="451" unicode="'"/><glyph d="M114 334q0 127 17.5 243t45.5 219.5t64.5 191.5t73.5 162q88 172 203 305h127q-111 -152 -195 -328q-37 -76 -70.5 -165t-61 -188.5t-44 -208t-16.5 -220.5q0 -148 20.5 -268.5t46.5 -213.5q29 -106 68 -192h-127q-43 76 -76 176q-28 86 -52 208t-24 279z" horiz-adv-x="553" unicode="("/><glyph d="M481 791q0 -127 -17.5 -242.5t-45 -219t-64.5 -191.5t-74 -162q-88 -172 -202 -305h-127q110 151 194 328q37 75 71 164.5t61.5 188.5t44 207.5t16.5 221.5q0 147 -20.5 268t-47.5 213q-29 107 -67 193h126q43 -76 76 -176q29 -86 52.5 -208t23.5 -280z" horiz-adv-x="551" unicode=")"/><glyph d="M385 1395h137l-10 -297l6 -6l281 102l43 -131l-287 -82l-2 -6l182 -234l-110 -82l-168 248l-6 -2l-166 -246l-113 80l184 238l-4 4l-284 82l41 131l280 -102l6 6z" horiz-adv-x="819" unicode="*"/><glyph d="M584 526h368v-127h-368v-368h-144v368h-368v127h368v367h144v-367z" horiz-adv-x="1044" unicode="+"/><glyph d="M303 217l-27 -219q-16 -72 -41.5 -122t-48.5 -83q-28 -37 -57 -61l-111 63q19 19 39 47q17 25 34.5 64t29.5 92q4 20 9 58t9 73q4 41 8 88h156z" horiz-adv-x="451" unicode=","/><glyph d="M90 526h574l-19 -127h-573z" horiz-adv-x="737" unicode="-"/><glyph d="M330 113q0 -52 -34 -89.5t-87 -37.5q-47 0 -76 31.5t-29 78.5q0 54 33 91.5t86 37.5q47 0 77 -31.5t30 -80.5z" horiz-adv-x="451" unicode="."/><glyph d="M198 -329h-139l676 1784h139z" horiz-adv-x="911" unicode="/"/><glyph d="M668 1124q217 0 328.5 -134t111.5 -372q0 -145 -40 -262.5t-109.5 -202.5t-161.5 -131.5t-197 -46.5q-219 0 -340 133.5t-121 368.5q0 152 42 272.5t114 203.5t168 127t205 44zM594 104q82 0 146.5 37t110.5 104.5t70.5 164t24.5 215.5q0 174 -71.5 272t-208.5 98 q-80 0 -147.5 -35.5t-116 -103.5t-76 -164t-27.5 -217q0 -170 80 -270.5t215 -100.5z" unicode="0"/><glyph d="M135 127h275l94 762q-25 -8 -54.5 -16.5t-61.5 -14.5t-63.5 -10t-56.5 -4v123q105 2 191 39.5t141 93.5h84l-119 -973h248l-14 -127h-678z" horiz-adv-x="922" unicode="1"/><glyph d="M602 1124q80 0 149.5 -23.5t121 -66.5t81 -105.5t29.5 -140.5q0 -108 -57.5 -205.5t-147.5 -180.5t-200.5 -150.5t-215.5 -118.5h592l-16 -133h-829l14 111q141 69 268 145t224.5 159t153.5 174t56 189q0 103 -60 162t-173 59q-133 0 -199.5 -77.5t-66.5 -200.5 q0 -19 2 -40.5t6 -41.5l-129 33q-15 43 -15 94q0 70 30 135.5t83 114.5t130 78.5t169 29.5z" horiz-adv-x="1085" unicode="2"/><glyph d="M825 784q0 86 -57 151.5t-176 65.5q-62 0 -110 -19t-82.5 -50t-56 -69t-34.5 -77l-100 88q12 44 44 89t82 80.5t119.5 58t155.5 22.5q92 0 163 -26.5t117 -69.5t69.5 -99.5t23.5 -117.5q0 -68 -28.5 -123t-73.5 -99t-99.5 -75t-103.5 -47q55 -14 103 -43t85 -72t58.5 -98 t21.5 -121q0 -92 -36 -169t-100.5 -132t-151.5 -86t-191 -31q-82 0 -149.5 18.5t-119 48.5t-84 67.5t-46.5 76.5l106 123q23 -92 102.5 -149.5t202.5 -57.5q80 0 137.5 24.5t94.5 65.5t55 93.5t18 105.5q0 49 -15 95t-49 82t-87 57.5t-129 21.5q-10 0 -32.5 -1t-49.5 -2 t-54.5 -4t-48.5 -7l23 145q6 0 20.5 -1t33 -2t36 -1h29.5q98 0 166.5 22.5t112.5 60.5t64.5 87t20.5 100z" horiz-adv-x="1085" unicode="3"/><glyph d="M1077 88h-178l-41 -332h-156l41 332h-657l-31 100l82 101l670 811h213l-105 -887h179zM760 213l94 743l-614 -743h520z" horiz-adv-x="1167" unicode="4"/><glyph d="M565 618q80 0 153 -28.5t126 -82.5t85 -131t32 -171q0 -117 -41 -207t-111 -153.5t-164 -96.5t-201 -33q-110 0 -187 31t-124 68q-55 43 -92 98l94 129q29 -57 74 -100q39 -39 99.5 -70t148.5 -31q73 0 136.5 25.5t109 71t71 105.5t25.5 130q0 147 -67.5 234.5 t-203.5 87.5q-55 0 -98 -12.5t-74 -28.5q-37 -19 -61 -41l-131 57l166 631h676l-17 -135h-547l-106 -404q22 17 57 29q29 10 72 19t100 9z" horiz-adv-x="1085" unicode="5"/><glyph d="M592 -25q-121 0 -206 43t-138 118t-78 173.5t-25 208.5q0 127 33 274.5t104.5 273.5t187.5 209t280 83q108 0 174.5 -26.5t103.5 -59.5q43 -37 64 -86l-107 -107q-22 66 -85.5 110t-158.5 44q-108 0 -189 -56.5t-134 -143.5t-80 -189.5t-27 -196.5q8 15 34 50.5t69 72.5 t106.5 65.5t147.5 28.5q94 0 168.5 -33.5t127 -90t80 -129t27.5 -148.5q0 -74 -26.5 -160t-84 -157.5t-148.5 -121t-220 -49.5zM598 102q135 0 221 86t86 250q0 133 -67.5 210t-210.5 77q-80 0 -139.5 -24.5t-98.5 -67.5t-58.5 -100.5t-19.5 -122.5q0 -62 17.5 -117 t53.5 -98t89 -68t127 -25z" horiz-adv-x="1167" unicode="6"/><glyph d="M977 1100l-14 -107q-132 -168 -244 -368q-49 -86 -98.5 -187.5t-93.5 -215t-80.5 -237.5t-57.5 -245h-149q20 123 55 247t76 235.5t88 209.5t92 182q106 193 227 353h-700l16 133h883z" horiz-adv-x="1004" unicode="7"/><glyph d="M549 -25q-100 0 -182 26t-140.5 73t-90.5 113.5t-32 150.5q0 74 23 129t57.5 98t74.5 71t75 45t58.5 25.5l23.5 8.5q-47 22 -84 59q-33 33 -58.5 82t-25.5 123q0 82 32.5 152.5t88 121t130 78t158.5 27.5q93 0 168.5 -23.5t128 -65.5t81 -101.5t28.5 -127.5 q0 -92 -37 -153.5t-83 -99t-86 -54t-46 -18.5q63 -27 115 -72q43 -39 79.5 -100.5t36.5 -149.5q0 -104 -39.5 -181t-108.5 -130t-158 -80t-187 -27zM399 1001q0 -108 62.5 -170.5t175.5 -62.5q55 0 103 17.5t85 50t58.5 79t21.5 101.5q0 102 -69.5 160.5t-184.5 58.5 q-51 0 -97 -16.5t-80 -47t-54.5 -73.5t-20.5 -97zM266 354q0 -112 76 -183t211 -71q68 0 128 20.5t104 58.5t71 91.5t27 120.5q0 119 -82 186.5t-207 67.5q-66 0 -125 -18.5t-104.5 -56.5t-72 -91t-26.5 -125z" horiz-adv-x="1167" unicode="8"/><glyph d="M610 1124q119 0 205 -40t143.5 -111.5t85 -173t27.5 -221.5q0 -76 -10 -169.5t-35 -189.5t-69 -187t-110.5 -161t-159.5 -113t-218 -43q-121 0 -192.5 30t-112.5 65q-47 40 -66 96l97 110q22 -51 61 -88q35 -34 90 -61t141 -27q119 0 196 58.5t123 143.5t67.5 180 t29.5 167q-10 -16 -34.5 -48t-66.5 -64.5t-100.5 -56t-134.5 -23.5q-104 0 -185 35.5t-136.5 95t-83 137.5t-27.5 164q0 73 22.5 160.5t78 162t146.5 123.5t228 49zM602 997q-135 0 -218 -88t-83 -252q0 -145 69.5 -232t213.5 -87q80 0 139 28.5t97 75.5t56.5 108.5 t18.5 127.5q0 65 -18.5 124.5t-55.5 101.5t-91 67.5t-128 25.5z" horiz-adv-x="1167" unicode="9"/><glyph d="M412 834q0 -52 -34 -89.5t-87 -37.5q-47 0 -76 31.5t-29 78.5q0 54 33 91.5t86 37.5q47 0 77 -31.5t30 -80.5zM330 113q0 -52 -34 -89.5t-87 -37.5q-47 0 -76 31.5t-29 78.5q0 54 33 91.5t86 37.5q47 0 77 -31.5t30 -80.5z" horiz-adv-x="451" unicode=":"/><glyph d="M303 217l-27 -219q-16 -72 -41.5 -122t-48.5 -83q-28 -37 -57 -61l-111 63q19 19 39 47q17 25 34.5 64t29.5 92q4 20 9 58t9 73q4 41 8 88h156zM412 834q0 -52 -34 -89.5t-87 -37.5q-47 0 -76 31.5t-29 78.5q0 54 33 91.5t86 37.5q47 0 77 -31.5t30 -80.5z" horiz-adv-x="451" unicode=";"/><glyph d="M668 -29l-473 506l473 496l92 -88l-398 -408l394 -422z" horiz-adv-x="1044" unicode="&lt;"/><glyph d="M952 659v-127h-880v127h880v0zM952 372v-127h-880v127h880v0z" horiz-adv-x="1044" unicode="="/><glyph d="M248 43l393 422l-397 407l92 89l473 -496l-473 -506z" horiz-adv-x="1044" unicode="&gt;"/><glyph d="M104 1153q29 57 80 102q43 39 110.5 71t168.5 32q82 0 150.5 -18.5t118.5 -57.5t79 -99.5t29 -142.5q0 -108 -53.5 -186t-120 -125t-125 -68.5t-70.5 -21.5l-33 -254h-155l43 344q57 6 119.5 26.5t115.5 57.5t88 93.5t35 129.5q0 84 -51 140.5t-168 56.5 q-66 0 -110 -23.5t-72 -52.5q-33 -33 -54 -74zM442 113q0 -52 -33.5 -89.5t-86.5 -37.5q-48 0 -76.5 31.5t-28.5 78.5q0 54 33 91.5t86 37.5q47 0 76.5 -31.5t29.5 -80.5z" horiz-adv-x="860" unicode="?"/><glyph d="M1255 -303q-47 -19 -104 -31q-49 -12 -115.5 -21.5t-144.5 -9.5q-174 0 -313.5 54.5t-235.5 153t-148.5 232.5t-52.5 294q0 172 61.5 331.5t175.5 282.5t276.5 196.5t365.5 73.5q182 0 314 -58t217 -152.5t126 -214t41 -242.5q0 -117 -31.5 -215.5t-86 -169t-125 -110.5 t-150.5 -40q-72 0 -113 26.5t-63 61.5q-25 39 -35 90h-8q-19 -51 -55 -90q-31 -35 -83.5 -61.5t-129.5 -26.5q-142 0 -220.5 97.5t-78.5 252.5q0 93 27.5 171.5t76.5 137t114.5 91.5t141.5 33q62 0 108 -20.5t74 -45.5q35 -29 58 -63l8 4l7 45.5t7 31.5l6 25h142 q-6 -23 -11 -45q-4 -21 -7 -44.5t-7 -45.5l-41 -346q0 -4 -1 -6t-1 -19q0 -65 27.5 -97t72.5 -32q43 0 84 28.5t72 81t50.5 127t19.5 169.5q0 92 -24.5 189t-87 177t-168 130t-265.5 50q-180 0 -315.5 -64.5t-226.5 -168.5t-136 -237.5t-45 -270.5q0 -125 38 -238.5 t112.5 -200.5t185 -138.5t256.5 -51.5q70 0 130 10.5t105 22.5q54 14 95 35zM879 176q49 0 92 20.5t75.5 58.5t51 93t18.5 125q0 123 -53 179.5t-133 56.5q-99 0 -167.5 -78t-68.5 -219q0 -121 51.5 -178.5t133.5 -57.5z" horiz-adv-x="1864" unicode="@"/><glyph d="M29 0l596 1333h209l278 -1333h-170l-63 326h-543l-141 -326h-166zM391 469h463l-143 731z" horiz-adv-x="1235" unicode="A"/><glyph d="M834 713q67 -27 120 -68q45 -35 83 -92t38 -139q0 -207 -135 -310.5t-375 -103.5h-436l162 1333h448q168 0 266.5 -75.5t98.5 -223.5q0 -55 -22.5 -105t-59.5 -91t-86 -71t-102 -48v-6zM383 754h268q131 0 208 70.5t77 193.5q0 84 -56.5 137t-172.5 53h-269zM598 125 q68 0 125 21.5t99 60.5t66.5 95t24.5 124q0 94 -62.5 152.5t-191.5 58.5h-292l-62 -512h293z" horiz-adv-x="1204" unicode="B"/><glyph d="M1055 1030q-17 76 -87.5 134.5t-199.5 58.5q-113 0 -199 -52.5t-144 -144.5t-88 -216t-30 -265q0 -99 21.5 -178.5t64.5 -136t108.5 -88t153.5 -31.5q148 0 232 61t114 150l125 -82q-32 -56 -75 -104t-101.5 -84t-133.5 -56.5t-171 -20.5q-113 0 -206 38t-159.5 111 t-103.5 177.5t-37 239.5q0 186 51.5 336.5t139.5 257t201.5 165t240.5 58.5q92 0 163 -20.5t123 -55.5t88 -80t58 -96z" horiz-adv-x="1266" unicode="C"/><glyph d="M129 0l162 1333h395q277 0 418 -143t141 -412q0 -184 -51 -329.5t-143.5 -245t-221.5 -151.5t-284 -52h-416zM565 135q240 0 376 160t136 481q0 207 -93 314.5t-292 107.5h-256l-129 -1063h258z" horiz-adv-x="1358" unicode="D"/><glyph d="M436 1198l-55 -459h561l-16 -135h-561l-58 -469h647l-16 -135h-809l162 1333h782l-16 -135h-621z" horiz-adv-x="1122" unicode="E"/><glyph d="M436 1198l-63 -516h499l-16 -135h-500l-65 -547h-162l162 1333h747l-16 -135h-586z" horiz-adv-x="1016" unicode="F"/><glyph d="M1223 670l-82 -670h-121l6 156h-8q-27 -52 -72 -90q-41 -35 -105.5 -63t-166.5 -28q-117 0 -216.5 39t-170 111t-110.5 176.5t-40 237.5q0 141 40 286.5t122 264t207 193.5t295 75q94 0 164.5 -19.5t122 -52.5t87 -76t62.5 -90l-150 -82q-12 39 -33.5 73t-56 58.5t-85 39 t-117.5 14.5q-123 0 -215.5 -54.5t-153.5 -144.5t-91 -210t-30 -251q0 -215 89 -333.5t278 -118.5q76 0 140.5 19.5t112.5 54t75.5 81.5t33.5 103l17 166h-361l17 135h516z" horiz-adv-x="1341" unicode="G"/><glyph d="M1305 1333l-162 -1333h-162l74 602h-690l-74 -602h-162l162 1333h162l-72 -596h690l72 596h162z" horiz-adv-x="1372" unicode="H"/><glyph d="M129 0l162 1333h162l-162 -1333h-162z" horiz-adv-x="520" unicode="I"/><glyph d="M795 1333l-111 -903q-27 -219 -121 -337t-287 -118q-114 0 -200 41t-121 101l127 96q22 -43 67.5 -72.5t110.5 -29.5q117 0 179.5 77.5t80.5 237.5l111 907h164z" horiz-adv-x="858" unicode="J"/><glyph d="M377 702l618 631h211l-588 -610l467 -723h-208l-383 633l-142 -129l-61 -504h-162l162 1333h162z" horiz-adv-x="1188" unicode="K"/><glyph d="M453 1333l-146 -1198h606l-16 -135h-768l162 1333h162z" horiz-adv-x="999" unicode="L"/><glyph d="M686 248l-260 885l-135 -1133h-160l162 1333h231l264 -932l492 932h233l-161 -1333h-160l147 1133l-481 -885h-172z" horiz-adv-x="1583" unicode="M"/><glyph d="M285 0h-156l162 1333h213l481 -1102l135 1102h156l-162 -1333h-213l-479 1133z" horiz-adv-x="1343" unicode="N"/><glyph d="M1325 793q0 -148 -39 -294.5t-121 -262t-205.5 -188.5t-291.5 -73q-121 0 -219.5 38t-169 111t-109.5 178.5t-39 240.5q0 143 41 288.5t123 262t205 190.5t286 74q119 0 218.5 -38t170 -110.5t110.5 -178t40 -238.5zM664 111q133 0 227 57t153.5 152.5t86 217t26.5 248.5 q0 213 -100.5 325t-265.5 112q-134 0 -227 -58.5t-152.5 -152.5t-87 -216t-27.5 -247q0 -215 101.5 -326.5t265.5 -111.5z" horiz-adv-x="1438" unicode="O"/><glyph d="M1077 932q0 -92 -32.5 -177t-92 -149.5t-144.5 -103.5t-192 -39h-270l-55 -463h-162l162 1333h344q223 0 332.5 -95t109.5 -306zM362 598h244q64 0 120 23.5t97 67.5t64.5 106.5t23.5 140.5q0 117 -58 189.5t-194 72.5h-223z" horiz-adv-x="1130" unicode="P"/><glyph d="M1325 795q0 -107 -26.5 -217.5t-77 -213t-125 -186.5t-172.5 -135q28 -29 68 -57.5t84 -58t92.5 -56.5t91.5 -47l-144 -82q-35 12 -73.5 38.5t-78.5 60.5t-77 74t-64 81q-37 -10 -75.5 -15.5t-79.5 -5.5q-121 0 -219.5 38t-169 111t-109.5 179.5t-39 241.5 q0 137 43 281.5t127 263t211 193.5t293 75q119 0 215 -38t163.5 -109.5t104.5 -177t37 -238.5zM664 111q133 0 227 60t153.5 157.5t86 218.5t26.5 241q0 216 -97 325.5t-263 109.5q-133 0 -227.5 -60.5t-155 -158t-89 -216t-28.5 -237.5q0 -217 101.5 -328.5t265.5 -111.5z" horiz-adv-x="1438" unicode="Q"/><glyph d="M371 659h235q101 0 164.5 29t100 74t50 100.5t13.5 106.5q0 45 -12.5 87t-42 73.5t-79.5 50t-126 18.5h-238zM854 0l-197 524h-303l-63 -524h-162l162 1333h375q227 0 331.5 -94t104.5 -262q0 -88 -29 -160t-75 -126t-103 -89t-115 -47l230 -555h-156z" horiz-adv-x="1163" unicode="R"/><glyph d="M879 1051q-21 71 -87.5 122.5t-170.5 51.5q-72 0 -120 -23.5t-78 -59.5t-43 -77t-13 -78q0 -49 20.5 -86t54 -65.5t77.5 -50t91 -42.5q68 -28 131.5 -58t112.5 -71t79 -99t30 -144q0 -84 -34 -156t-95.5 -125t-147.5 -84t-190 -31q-84 0 -155 20.5t-124 55.5t-89 81 t-50 99l139 82q27 -86 102.5 -144t190.5 -58q63 0 116.5 17t92.5 47t60.5 70t21.5 87q0 55 -21.5 96t-56.5 70.5t-82 53t-96 46.5q-62 27 -122.5 57.5t-108.5 73.5t-78.5 102.5t-30.5 145.5q6 98 41 170t92 119t132 69.5t159 22.5t148.5 -18.5t112.5 -51.5t79.5 -75 t50.5 -89z" horiz-adv-x="1081" unicode="S"/><glyph d="M143 1333h977l-16 -137h-408l-145 -1196h-162l146 1196h-408z" horiz-adv-x="1032" unicode="T"/><glyph d="M455 1333l-109 -893q-4 -18 -4 -34.5v-32.5q0 -133 72.5 -197.5t195.5 -64.5q138 0 228 86t110 243l109 893h164l-109 -882q-29 -224 -155 -350t-349 -126q-217 0 -324.5 98.5t-107.5 284.5q0 43 6 93l109 882h164z" horiz-adv-x="1266" unicode="U"/><glyph d="M1208 1333l-577 -1333h-209l-258 1333h176l201 -1198l491 1198h176z" horiz-adv-x="1143" unicode="V"/><glyph d="M1151 1333l143 -1179l410 1179h176l-487 -1333h-232l-139 1194l-426 -1194h-211l-170 1333h164l129 -1179l424 1179h219z" horiz-adv-x="1872" unicode="W"/><glyph d="M190 0h-186l494 676l-322 657h180l256 -542l404 542h184l-493 -657l344 -676h-193l-272 559z" horiz-adv-x="1163" unicode="X"/><glyph d="M125 1333h170l258 -680l424 680h178l-537 -821l-61 -512h-162l62 512z" horiz-adv-x="1059" unicode="Y"/><glyph d="M1087 1229l-57 -72l-801 -1024h744l-17 -133h-950l12 104l62 78l799 1018h-689l17 133h893z" horiz-adv-x="1065" unicode="Z"/><glyph d="M350 1455h346l-18 -131h-201l-215 -1522h201l-19 -131h-346z" horiz-adv-x="655" unicode="["/><glyph d="M-8 1455h139l676 -1784h-139z" horiz-adv-x="911" unicode="\"/><glyph d="M309 -329h-346l18 131h201l215 1522h-201l19 131h346z" horiz-adv-x="655" unicode="]"/><glyph d="M940 821l-422 393l-407 -397l-88 94l495 471l506 -473z" horiz-adv-x="1044" unicode="^"/><glyph d="M4 -143h942l-18 -136h-940z" horiz-adv-x="983" unicode="_"/><glyph d="M452 1243l-84 -84l-297 299l84 84z" horiz-adv-x="512" unicode="`"/><glyph d="M967 264q-4 -31 -7.5 -53.5t-3.5 -34.5q0 -33 10.5 -45t34.5 -12q13 0 25 2t23 6q12 4 24 10l-20 -127q-11 -8 -25 -16q-29 -14 -70 -14q-51 0 -78.5 27.5t-40 61t-14.5 62.5t-2 33h-12q-29 -53 -72 -94q-39 -35 -98 -65t-149 -30q-93 0 -166.5 32t-124.5 90.5t-79 141.5 t-28 183q0 117 36 216t100.5 173t153.5 115t194 41q86 0 144 -29t93 -64q41 -38 66 -90l12 4l25 154h145zM512 104q76 0 138.5 31t105.5 87.5t66.5 134t23.5 171.5q0 160 -72 235t-188 75q-78 0 -139.5 -31t-104.5 -87t-66.5 -133t-23.5 -169q0 -160 71.5 -237t188.5 -77z" horiz-adv-x="1184" unicode="a"/><glyph d="M575 104q74 0 136.5 30t108.5 84t72 130t26 168q0 84 -20.5 144.5t-57.5 100.5t-86 58.5t-107 18.5q-69 0 -129.5 -28t-104.5 -80t-70 -128t-26 -174q0 -168 72 -246t186 -78zM453 1456q-2 0 -7.5 -36t-12.5 -91t-15 -121.5t-14.5 -126t-11.5 -105.5t-7 -58 q-4 -35 -12 -63t-8 -34h10q31 39 74 72q36 29 92.5 51.5t134.5 22.5q88 0 161.5 -31t126 -88t81 -139t28.5 -185q0 -112 -34.5 -212.5t-98 -175.5t-153 -118t-199.5 -43q-90 0 -145.5 28t-90.5 63q-39 38 -59 92h-10l-25 -158h-141l180 1456h156z" horiz-adv-x="1165" unicode="b"/><glyph d="M797 694q-17 60 -70 102t-149 42q-80 0 -140.5 -34t-102.5 -92.5t-63.5 -134t-21.5 -161.5q0 -154 67.5 -233t196.5 -79q94 0 152.5 35t83.5 84l114 -92q-41 -63 -128 -109.5t-212 -46.5q-92 0 -171 27t-137 82t-91 139t-33 199q0 119 37 219t102.5 173t154.5 113t194 40 q135 0 216 -52.5t115 -128.5z" horiz-adv-x="973" unicode="c"/><glyph d="M514 102q70 0 133.5 28t109.5 80t73.5 129t27.5 175q0 162 -70.5 243t-191.5 81q-72 0 -134.5 -28t-108.5 -80t-73.5 -129t-27.5 -175q0 -162 70.5 -243t191.5 -81zM1120 1456q-37 -303 -69 -559q-15 -109 -28 -219.5t-25.5 -205.5t-20.5 -169t-12 -108q-2 -15 -3 -29 t-1 -35q0 -53 6 -90q2 -23 6 -41h-142q-4 14 -8 33q-6 30 -6 73v14t2 15h-10q-33 -45 -80 -80q-41 -30 -100.5 -55t-139.5 -25q-90 0 -162.5 31t-124.5 89.5t-81 140t-29 184.5q0 117 37 217t102.5 173t153.5 115t193 42q81 0 139.5 -27t93.5 -57q41 -37 68 -84h10 q12 135 26 262q7 53 13 109.5t12 108.5t12 98t13 79h155z" horiz-adv-x="1151" unicode="d"/><glyph d="M254 463q-2 -19 -2 -35v-31q0 -151 66.5 -221t191.5 -70q98 0 161.5 35t90.5 82l112 -92q-38 -65 -132.5 -110.5t-223.5 -45.5q-106 0 -185 32t-132.5 89.5t-80 137t-26.5 178.5q0 102 30 201.5t89 178t148.5 127t209.5 48.5q93 0 159.5 -30t109.5 -81t63.5 -120.5 t20.5 -151.5q0 -23 -3 -55.5t-10 -65.5h-657zM551 854q-113 0 -183.5 -68.5t-95.5 -201.5h504v10q0 4 1 10t1 14q0 27 -8 68t-31.5 78t-68.5 63.5t-119 26.5z" horiz-adv-x="1024" unicode="e"/><glyph d="M272 813h-166l15 129h172l35 242q8 63 36.5 115.5t69.5 89t95.5 57t115.5 20.5q66 0 111 -15t61 -36l-39 -133q-14 16 -47 29.5t-88 13.5q-61 0 -112.5 -41t-61.5 -137l-23 -205h216l-15 -129h-219l-127 -1063q-8 -65 -34.5 -112.5t-66.5 -79t-89.5 -47t-102.5 -15.5 q-47 0 -82 10.5t-57 24.5l29 135q16 -10 40.5 -19t61.5 -9q20 0 44 5t45.5 20t37.5 45t23 79z" horiz-adv-x="645" unicode="f"/><glyph d="M434 -516q-119 0 -197.5 29.5t-126 67.5t-69 72t-23.5 42l111 92q2 -6 20.5 -34.5t55.5 -59.5t96 -55.5t145 -24.5q254 0 304 303q4 29 10 66.5t12 73.5t10 60.5t4 26.5h-10q-28 -47 -71 -84q-37 -32 -93.5 -58t-136.5 -26q-88 0 -158.5 33t-120 91.5t-75 140.5 t-25.5 180q0 117 35 217t98.5 173t148.5 115t187 42q84 0 138.5 -29t87.5 -64q36 -38 59 -90l12 4l23 154h145l-115 -932q-34 -280 -158 -403t-323 -123zM504 104q67 0 125.5 28t101.5 81t67.5 131t24.5 178q0 164 -63.5 240t-173.5 76q-72 0 -132.5 -31t-105.5 -86 t-69.5 -133t-24.5 -172q0 -164 69.5 -238t180.5 -74z" horiz-adv-x="1124" unicode="g"/><glyph d="M862 -18q-135 0 -135 137q0 28 6 59q10 60 19.5 109t18.5 97t19.5 100.5t22.5 115.5q6 33 6 64q0 88 -48 132t-134 44q-123 0 -202 -91.5t-105 -283.5q-2 -19 -6.5 -47.5t-8.5 -65.5t-8 -76.5t-8 -78.5q-10 -93 -20 -197h-156l176 1456h156l-95 -690h11q32 55 82 100 q41 37 103 69t149 32q131 0 197.5 -73t66.5 -189q0 -35 -6 -72q-25 -146 -47.5 -249t-41.5 -200q-2 -10 -2 -20q0 -35 14.5 -45t39.5 -10q20 0 41 4q8 2 16 6l-18 -117q-13 -6 -29 -10q-31 -10 -74 -10z" horiz-adv-x="1112" unicode="h"/><glyph d="M293 -18q-88 0 -122 43t-34 100q0 14 1 28.5t3 24.5l107 764h155l-100 -700q-4 -31 -6 -52.5t-2 -31.5q0 -54 51 -54q12 0 24.5 2.5t22.5 6.5q13 4 25 10l-19 -113q-10 -8 -24 -14q-29 -14 -82 -14zM482 1282q0 -57 -35 -90t-82 -33q-43 0 -77.5 33t-34.5 90 q0 53 34.5 85t77.5 32q47 0 82 -32t35 -85z" horiz-adv-x="522" unicode="i"/><glyph d="M475 1282q0 -57 -35 -90t-82 -33q-43 0 -77.5 33t-34.5 90q0 53 34.5 85t77.5 32q47 0 82 -32t35 -85zM-154 -334q17 -10 41.5 -19t61.5 -9q20 0 43.5 5t45 20t38 45t22.5 79l150 1155h153l-151 -1192q-8 -65 -35 -112.5t-66.5 -79t-89 -47t-102.5 -15.5q-47 0 -82 10.5 t-57 24.5z" horiz-adv-x="522" unicode="j"/><glyph d="M809 942h195l-433 -420l371 -522h-192l-299 438l-134 -116l-38 -322h-156l176 1456h156l-121 -973z" horiz-adv-x="1034" unicode="k"/><glyph d="M287 1456h155l-157 -1214q-4 -31 -6.5 -52.5t-2.5 -31.5q0 -27 23 -40.5t45 -13.5q16 0 31.5 4.5t27.5 8.5q15 6 29 12l-14 -113q-17 -10 -35 -18q-16 -6 -36.5 -11t-47.5 -5q-100 0 -139 48t-39 111v19t2 18z" horiz-adv-x="532" unicode="l"/><glyph d="M911 506q-14 -78 -25.5 -167t-21.5 -165q-10 -88 -20 -174h-156q23 150 43 276q8 54 16.5 108t16.5 100t13 82t9 55q2 10 2 19v19q0 78 -45 129.5t-131 51.5q-61 0 -107 -27t-79 -74t-54.5 -109.5t-33.5 -133.5q-10 -54 -20.5 -138t-20.5 -163q-12 -95 -25 -195h-155 q26 188 49 346q8 68 18.5 133.5t17.5 120.5t13 94t8 54q2 14 3 30.5t1 34.5q0 23 -1 46.5t-3 41.5q-2 23 -4 41h152q0 -16 2 -33q0 -16 1 -33.5t1 -35.5q0 -35 -6 -74h8q29 55 69 100q35 37 89.5 69t126.5 32q92 0 143 -33t76 -74q28 -47 34 -106h9q28 59 73 106 q39 41 100.5 74t149.5 33q82 0 134.5 -24.5t83 -62.5t42 -85t11.5 -93q0 -12 -7.5 -60t-20.5 -118.5t-30.5 -159t-36.5 -182.5q-2 -8 -2 -22q0 -29 16.5 -39t39.5 -10q16 0 36 4q9 2 19 6l-19 -119q-14 -6 -30 -10q-31 -10 -78 -10q-68 0 -98.5 31.5t-30.5 95.5q0 30 6 67 q12 57 24.5 126t23.5 132.5t20.5 113.5t13.5 73q2 12 3 24t1 25q0 32 -8 64t-26.5 54.5t-49.5 37t-78 14.5q-63 0 -113.5 -26t-86 -71t-59 -106.5t-36.5 -130.5z" horiz-adv-x="1665" unicode="m"/><glyph d="M858 -18q-131 0 -131 137q0 28 6 59q17 98 37.5 194.5t44.5 227.5q6 33 6 64q0 88 -48 132t-136 44q-123 0 -204 -97.5t-105 -277.5q-9 -53 -18 -133t-19 -154q-10 -86 -23 -178h-155q26 188 49 346q8 68 18 133.5t17.5 120.5t13.5 94t8 54q2 14 3 30.5t1 34.5 q0 23 -1 46.5t-3 41.5q-2 23 -4 41h152q0 -16 2 -35q2 -16 3 -36.5t1 -41.5v-30.5t-4 -32.5h10q29 55 72 100q36 37 95.5 69t145.5 32q142 0 209.5 -75t67.5 -192v-33.5t-4 -33.5q-13 -76 -26 -137.5t-24.5 -114.5t-21.5 -101.5t-19 -93.5q-2 -10 -2 -24q0 -33 15.5 -42 t38.5 -9q20 0 41 4q8 2 16 6l-18 -119q-13 -6 -29 -10q-31 -10 -78 -10z" horiz-adv-x="1116" unicode="n"/><glyph d="M508 -25q-92 0 -169 32t-131 89.5t-84 137t-30 176.5q0 127 37 229t102.5 175t155.5 113t199 40q203 0 307 -117t104 -309q0 -127 -34.5 -231.5t-99 -178.5t-156 -115t-201.5 -41zM514 104q68 0 128 28t104.5 82t71 134t26.5 187q0 151 -73 227t-189 76q-68 0 -128.5 -28 t-105.5 -83t-70.5 -136t-25.5 -188q0 -149 72.5 -224t189.5 -75z" horiz-adv-x="1092" unicode="o"/><glyph d="M588 104q65 0 125.5 27t106.5 80t74 132t28 183q0 156 -73 234t-202 78q-65 0 -125.5 -27t-106.5 -79t-74 -130t-28 -182q0 -156 73 -236t202 -80zM608 -25q-92 0 -151.5 26t-96.5 58q-43 37 -67 84h-10q0 -20 -2 -41q-2 -16 -3.5 -37.5t-3.5 -37.5q0 -11 -4 -38.5 t-8 -66.5t-10 -86t-12 -96q-15 -113 -31 -252h-156l154 1262q2 14 2 27.5v29.5q0 24 -2 49t-4 43q-2 23 -4 43h141q2 -14 6 -33q4 -16 6 -34.5t2 -38.5q0 -9 -1 -15t-1 -14h10q31 43 78 80q41 28 101.5 54t146.5 26t158 -32t124 -89.5t81.5 -137t29.5 -176.5 q0 -120 -36.5 -221.5t-101 -176.5t-150.5 -117t-185 -42z" horiz-adv-x="1174" unicode="p"/><glyph d="M254 471q-2 -16 -3 -32.5t-1 -32.5q0 -150 79 -226t195 -76q68 0 127.5 27t103.5 80t68.5 132t24.5 183q0 154 -71.5 233t-190.5 79q-129 0 -219.5 -92.5t-112.5 -274.5zM715 -512q16 137 30 250q7 49 12 96t10 86t8 66.5t5 38.5q2 16 5 33.5t8 31.5q4 16 8 31h-10 q-31 -41 -74 -74q-37 -29 -92.5 -50.5t-130.5 -21.5q-91 0 -164.5 31t-125.5 86t-81 134t-29 175q0 121 36 224.5t98.5 179.5t149.5 119t189 43q97 0 155 -29t93 -64q39 -38 57 -90h11l24 158h142l-179 -1454h-155z" horiz-adv-x="1143" unicode="q"/><glyph d="M678 793q-12 2 -25.5 3t-23.5 1q-119 0 -199 -88t-100 -236q-17 -104 -27 -191t-20 -151q-11 -74 -19 -131h-155l108 768q2 14 2 27.5v27.5q0 23 -2 45.5t-4 38.5q-2 21 -4 35h147q2 -10 6 -22q3 -11 5 -29.5t2 -40.5q0 -21 -4.5 -56.5t-8.5 -64.5h11q41 100 112.5 169 t169.5 69q10 0 21.5 -1t21.5 -3z" horiz-adv-x="702" unicode="r"/><glyph d="M668 731q-13 31 -35 53q-21 21 -55.5 37.5t-90.5 16.5q-88 0 -136 -36t-48 -108q0 -28 15.5 -50.5t42 -40t62.5 -32t75 -28.5q49 -19 101 -39.5t93 -49t67.5 -70.5t26.5 -103q0 -62 -22.5 -118.5t-69.5 -97t-117.5 -65.5t-164.5 -25q-109 0 -174.5 29t-104.5 64 q-45 38 -65 92l135 73q14 -36 43 -65q24 -25 64 -45.5t106 -20.5q90 0 148.5 37t58.5 109q0 33 -14.5 56.5t-39 42t-57.5 32.5t-70 27q-51 18 -103 37.5t-95 50t-70 75.5t-27 111q0 61 24 114.5t68 91.5t105.5 59.5t136.5 21.5q101 0 163.5 -26t98.5 -54q41 -37 64 -80z" horiz-adv-x="889" unicode="s"/><glyph d="M260 942l29 201l157 20l-30 -221h293l-19 -129h-293l-78 -539q-4 -16 -5 -34.5t-1 -30.5q0 -47 23.5 -75t87.5 -28q31 0 58.5 9.5t49.5 21.5q25 15 48 33l41 -129q-27 -18 -62 -33q-29 -12 -68.5 -22.5t-89.5 -10.5q-118 0 -180.5 57.5t-62.5 155.5q0 13 1 25t3 27 l80 573h-150l19 129h149z" horiz-adv-x="715" unicode="t"/><glyph d="M369 942l-80 -610q-2 -13 -2 -24v-21q0 -86 42 -135.5t128 -49.5q125 0 190.5 88.5t93.5 294.5q9 54 18 132.5t19 150.5q10 84 23 174h155l-96 -678q-4 -31 -8 -53.5t-4 -32.5q0 -31 12 -42t35 -11q27 0 49 6q12 4 25 8l-21 -123q-12 -8 -26 -14q-29 -14 -74 -14 q-43 0 -66.5 22.5t-34 50t-12.5 52t-2 30.5h-12q-31 -47 -76 -84q-39 -32 -97.5 -58t-141.5 -26q-123 0 -197 74t-74 199q0 16 2 32.5t4 32.5l80 629h148z" horiz-adv-x="1079" unicode="u"/><glyph d="M289 0l-201 942h160l153 -797l355 797h176l-449 -942h-194z" horiz-adv-x="899" unicode="v"/><glyph d="M854 942l111 -797l295 797h163l-372 -942h-207l-103 795l-311 -795h-192l-111 942h149l76 -797l314 797h188z" horiz-adv-x="1430" unicode="w"/><glyph d="M526 569l281 373h194l-378 -475l254 -467h-179l-196 377l-297 -377h-199l404 477l-254 465h174z" horiz-adv-x="995" unicode="x"/><glyph d="M360 942l-79 -610q-2 -10 -3.5 -23.5t-1.5 -29.5q0 -80 40 -128.5t126 -48.5q66 0 114 29t83 79t57.5 117.5t34.5 145.5q4 31 11.5 78t13.5 98t12 103.5t12 94.5t9.5 67.5t3.5 27.5h155l-117 -989q-14 -123 -55 -211t-104.5 -145.5t-145.5 -85t-176 -27.5 q-110 0 -178 28.5t-109 63.5q-47 39 -69 92l102 90q19 -41 56 -73q30 -29 82.5 -51.5t130.5 -22.5q79 0 134.5 26.5t91.5 71.5t55.5 103.5t29.5 121.5q10 72 16 115t10 70q7 28 9 45q-29 -53 -72 -94q-37 -35 -93.5 -65t-135.5 -30q-129 0 -205 75t-76 202v29.5t4 31.5 l80 629h147z" horiz-adv-x="1044" unicode="y"/><glyph d="M885 834l-45 -52l-553 -653h522l-18 -129h-717l16 109l64 73l532 631h-493l18 129h690z" horiz-adv-x="934" unicode="z"/><glyph d="M366 789l54 379q8 59 28.5 111.5t57 91.5t91 61.5t132.5 22.5q14 0 29.5 -1t31.5 -3l-16 -111q-14 2 -17.5 2h-7.5q-20 0 -51 -6t-61.5 -27.5t-56 -63.5t-35.5 -114l-54 -373q-10 -63 -39.5 -100t-62.5 -57q-37 -23 -84 -33l-2 -8q37 -6 67 -27q25 -16 46.5 -47t21.5 -82 v-16.5t-2 -18.5l-53 -370q-2 -17 -3 -30t-1 -26q0 -53 15 -83.5t37.5 -47t48.5 -21.5t44 -5h23q6 0 8 2l-17 -111q-41 -6 -71 -6q-62 0 -105 17.5t-69.5 46t-38 68.5t-11.5 87q0 33 7 70l53 376q2 9 2 16v13q0 43 -18.5 67.5t-43 37t-47 14.5t-30.5 2l20 156q72 0 121 40 t59 107z" horiz-adv-x="758" unicode="{"/><glyph d="M215 -329v1784h145v-1784h-145z" horiz-adv-x="553" unicode="|"/><glyph d="M368 336l-53 -378q-8 -60 -28.5 -112t-57.5 -91t-91 -61.5t-132 -22.5q-14 0 -29.5 1t-32.5 3l17 111q14 -2 17 -2h7q21 0 51.5 6t61.5 27.5t56.5 63.5t35.5 113l53 373q11 64 40.5 100.5t62.5 57.5q37 22 84 33l2 8q-37 6 -68 26q-24 17 -45.5 47.5t-21.5 82.5v16t2 18 l53 371q2 16 3 29.5t1 25.5q0 54 -15.5 84.5t-38 47t-48 21.5t-43.5 5h-23q-6 0 -8 -2l16 111q41 6 72 6q61 0 104.5 -17.5t70 -46t37.5 -68.5t11 -87q0 -33 -6 -70l-53 -377q-2 -8 -2 -15v-14q0 -43 18.5 -67.5t43 -36.5t47 -14t30.5 -2l-20 -156q-72 0 -121 -40t-60 -108z" horiz-adv-x="758" unicode="}"/><glyph d="M815 561h107q10 -29 15 -65.5t5 -61.5q0 -82 -44 -122t-120 -40q-65 0 -131.5 26t-128 55.5t-119 55t-104.5 25.5t-62.5 -23.5t-15.5 -45.5q0 -17 4 -39.5t10 -44.5h-108q-10 26 -15.5 58t-5.5 58q0 80 44 126t126 46q64 0 128.5 -25.5t126 -55t117.5 -55t106 -25.5 q43 0 60 20.5t17 46.5q0 14 -4 39t-8 47z" horiz-adv-x="1044" unicode="~"/><glyph d="M331.013 561.023l-115.993 -949.942h-155.99l116.992 949.942h154.991zM172.021 831.007q0 51.9971 33.498 89.4941q33.498 37.498 86.4951 37.498q46.9971 0 75.9951 -31.498t28.998 -78.4951q0 -53.9971 -32.998 -91.4941q-32.9971 -37.498 -85.9941 -37.498 q-46.9971 0 -76.4951 31.498q-29.499 31.498 -29.499 80.4951z" horiz-adv-x="516" unicode="¡"/><glyph d="M848 700q-17 35 -41 64q-23 24 -56.5 47t-82.5 27l-90 -736q61 7 103 28.5t67 45.5q28 29 47 64l116 -76q-24 -49 -69 -88q-41 -35 -107.5 -63.5t-171.5 -35.5l-22 -186h-138l23 191q-139 22 -222 128.5t-83 284.5q0 101 24.5 196t76.5 173t133 131t192 72l22 184h138 l-25 -188q86 -7 143.5 -35.5t92.5 -63.5q40 -39 67 -88zM530 840q-69 -17 -117 -60t-79 -100t-44.5 -122.5t-13.5 -129.5q0 -139 37 -218t129 -101z" horiz-adv-x="1034" unicode="¢"/><glyph d="M868 598h-303q6 -41 11.5 -79t5.5 -75q0 -65 -28 -148t-116 -155v-6h600l-18 -135h-877l19 131q94 16 147 53t81 82t35 92.5t7 85.5q0 41 -5 79t-13 75h-207l16 125h158q-16 59 -28.5 116.5t-12.5 118.5q0 58 19.5 127.5t67.5 130t131 101.5t210 41q98 0 169 -17.5 t121 -46t80.5 -68.5t49.5 -83l-137 -96q-25 75 -87.5 129.5t-193.5 54.5q-74 0 -125 -24.5t-84 -63.5t-47 -87t-14 -93q0 -52 11 -113.5t28 -126.5h346z" horiz-adv-x="1202" unicode="£"/><glyph d="M995 967q45 -60 70 -134.5t25 -160.5q0 -84 -24 -157t-65 -132l144 -139l-76 -76l-135 137q-60 -55 -136.5 -85t-162.5 -30t-164 30t-137 85l-133 -137l-76 76l139 139q-41 59 -63.5 132t-22.5 157q0 86 24.5 161.5t69.5 135.5l-147 145l76 76l143 -146q59 52 133 79.5 t158 27.5t157.5 -28.5t133.5 -80.5l143 148l76 -76zM940 672q0 69 -23.5 129.5t-64.5 105.5t-96.5 72t-120.5 27q-66 0 -122 -27t-97 -72t-64.5 -105.5t-23.5 -129.5q0 -70 24.5 -130.5t65.5 -106.5t97 -72.5t120 -26.5q63 0 118.5 26.5t97.5 72.5t65.5 106.5t23.5 130.5z" horiz-adv-x="1270" unicode="¤"/><glyph d="M188 819h205l-217 514h162l276 -671l459 671h154l-346 -514h213l-17 -125h-280l-107 -155h369l-17 -125h-376l-50 -414h-161l49 414h-367l17 125h356l-64 155h-274z" unicode="¥"/><glyph d="M215 396h145v-725h-145v725zM360 730h-145v725h145v-725z" horiz-adv-x="553" unicode="¦"/><glyph d="M223 117q17 -37 45 -64q25 -24 65 -43.5t101 -19.5q113 0 174.5 41t61.5 106q0 56 -37 90.5t-92.5 60t-120 48t-119.5 55.5t-92 81t-37 126q0 45 15.5 85t38 72.5t51 59.5t57.5 47q-84 66 -84 197q0 51 21.5 104.5t67.5 96.5t116.5 70.5t167.5 27.5q100 0 164.5 -27.5 t101.5 -62.5q43 -39 65 -90l-141 -76q-16 35 -41 63q-22 23 -59 43.5t-97 20.5q-100 0 -154 -43t-54 -115q0 -53 35.5 -86t89 -57.5t115 -47t114.5 -55t89 -81t36 -123.5q0 -46 -14.5 -84.5t-37 -70.5t-50 -58.5t-54.5 -47.5q45 -34 69.5 -80.5t24.5 -117.5 q0 -49 -23.5 -102.5t-71.5 -97.5t-121.5 -72.5t-174.5 -28.5q-102 0 -169.5 27.5t-108.5 62.5q-50 39 -74 90zM725 575q0 52 -26.5 86.5t-69.5 61.5t-95.5 47.5t-103.5 44.5q-31 -33 -64.5 -82t-33.5 -104q0 -47 26.5 -79t69.5 -56.5t96.5 -44t104.5 -41.5q28 30 62 74 t34 93z" horiz-adv-x="1024" unicode="§"/><glyph d="M275 1278q0 -53 -35 -86t-86 -33q-47 0 -76.5 30t-29.5 77q0 55 33.5 87.5t84.5 32.5q48 0 78.5 -29.5t30.5 -78.5zM687 1278q0 -53 -35 -86t-84 -33t-79 30t-30 77q0 55 34 87.5t87 32.5q47 0 77 -29.5t30 -78.5z" horiz-adv-x="512" unicode="¨"/><glyph d="M985 498l117 -70q-39 -68 -124 -116t-196 -48q-92 0 -167.5 27.5t-130 80t-84 127t-29.5 169.5q0 94 30.5 167.5t85 126t129 80t164.5 27.5q111 0 199 -49t125 -119l-127 -74q-21 50 -74 84.5t-137 34.5q-74 0 -121 -23.5t-74.5 -63.5t-38 -90t-10.5 -101q0 -54 9.5 -104 t37 -89t77.5 -63.5t130 -24.5q74 0 128 32t81 79zM164 668q0 -127 45 -235.5t125 -190.5t187.5 -128t232.5 -46t233.5 46t188 128t125 190.5t45.5 235.5q0 125 -45.5 234.5t-125 190.5t-188 127t-233.5 46t-232.5 -46t-187.5 -127t-125 -190.5t-45 -234.5zM61 668 q0 143 53.5 268t146.5 219t219 148.5t274 54.5q147 0 274 -54.5t220 -148.5t146.5 -219t53.5 -268q0 -144 -53.5 -270t-146.5 -220t-220 -148.5t-274 -54.5q-148 0 -274 54.5t-219 148.5t-146.5 220t-53.5 270z" horiz-adv-x="1509" unicode="©"/><glyph d="M720 825q-2 -25 -4 -41.5t-2 -26.5q0 -25 7 -34t25 -9q11 0 20 2t15 4q10 4 19 8l-15 -94q-8 -6 -18 -12q-23 -13 -53 -13q-41 0 -64.5 21.5t-34 46.5t-11.5 46.5t-1 25.5h-10q-21 -41 -53 -72q-29 -25 -74 -47.5t-113 -22.5q-67 0 -122.5 24t-94.5 68t-59.5 106.5 t-20.5 135.5q0 88 26.5 163t75 130t116 86t145.5 31q63 0 107 -21.5t71 -48.5q31 -28 49 -67l8 4l19 114h120zM376 714q55 0 100 22.5t77 63.5t49 97.5t17 121.5q0 117 -52 171t-138 54q-57 0 -102.5 -22.5t-76 -63.5t-48 -96t-17.5 -121q0 -116 52.5 -171.5t138.5 -55.5z" horiz-adv-x="895" unicode="ª"/><glyph d="M309 74l-207 368l291 369h154l-283 -369l180 -368h-135zM676 74l-207 368l291 369h154l-283 -369l180 -368h-135z" horiz-adv-x="995" unicode="«"/><glyph d="M82 649h881v-403h-119v276h-762v127z" horiz-adv-x="1044" unicode="¬"/><glyph d="M61 526h574v-127h-574v127z" horiz-adv-x="696" unicode="­"/><glyph d="M901 283l-129 276h-121v-276h-155v774h270q149 0 225 -71t76 -173q0 -49 -12.5 -86t-34 -64.5t-49 -45t-56.5 -25.5l152 -309h-166zM651 682h94q54 0 85.5 11.5t49 27.5t23.5 37.5t6 44.5q0 49 -34.5 87t-126.5 38h-97v-246zM164 668q0 -127 45 -235.5t125 -190.5 t187.5 -128t232.5 -46t233.5 46t188 128t125 190.5t45.5 235.5q0 125 -45.5 234.5t-125 190.5t-188 127t-233.5 46t-232.5 -46t-187.5 -127t-125 -190.5t-45 -234.5zM61 668q0 143 53.5 268t146.5 219t219 148.5t274 54.5q147 0 274 -54.5t220 -148.5t146.5 -219t53.5 -268 q0 -144 -53.5 -270t-146.5 -220t-220 -148.5t-274 -54.5q-148 0 -274 54.5t-219 148.5t-146.5 220t-53.5 270z" horiz-adv-x="1509" unicode="®"/><glyph d="M44 1272h620l-12 -113h-620z" horiz-adv-x="512" unicode="¯"/><glyph d="M379 1454q57 0 108.5 -21.5t89 -58.5t59 -88t21.5 -108q0 -60 -21.5 -110t-59 -87t-89 -58.5t-108.5 -21.5q-60 0 -110 21.5t-88 58.5t-59.5 87t-21.5 110q0 57 21.5 108t59.5 88t88 58.5t110 21.5zM379 1006q76 0 122 47t46 125q0 75 -46 123.5t-122 48.5t-122 -48.5 t-46 -123.5q0 -78 46 -125t122 -47z" horiz-adv-x="786" unicode="°"/><glyph d="M584 725h368v-127h-368v-368h-144v368h-368v127h368v367h144v-367zM952 127v-127h-880v127h880v0z" horiz-adv-x="1044" unicode="±"/><glyph d="M227 1443q-2 10 -3 23.5t-1 23.5q0 45 20.5 84t56.5 68.5t84 46t103 16.5q100 0 170 -52.5t70 -158.5q0 -66 -30 -121t-80 -104t-117.5 -95.5t-141.5 -91.5h350l-12 -106h-545l10 78q82 47 161 98t141.5 104.5t101.5 106.5t39 106q0 62 -32 99t-99 37q-62 0 -102 -40 t-40 -106v-25.5t2 -25.5z" horiz-adv-x="717" unicode="²"/><glyph d="M229 1588q33 51 90 84t150 33q106 0 167.5 -46t61.5 -124q0 -47 -23.5 -78t-52.5 -49q-35 -23 -76 -33q43 -6 78 -28q29 -19 53.5 -52.5t24.5 -89.5q0 -65 -26.5 -111t-69.5 -76t-95.5 -44.5t-103.5 -14.5q-45 0 -87 9.5t-75.5 26t-61.5 37t-38 40.5l78 98 q6 -18 23.5 -38.5t43 -38t56 -28.5t63.5 -11t63.5 8t55.5 24.5t39 44t14 66.5q0 41 -29.5 72.5t-107.5 31.5q-14 0 -28.5 -1t-47.5 -3q-22 -2 -47 -8l19 111q10 -2 37.5 -3t37.5 -1q66 0 115 25.5t49 92.5q0 43 -28.5 71t-94.5 28q-69 0 -108 -33t-62 -80z" horiz-adv-x="717" unicode="³"/><glyph d="M576 1542l84 -84l-297 -299l-84 84z" horiz-adv-x="512" unicode="´"/><glyph d="M53 -512l178 1454h144l-70 -577q-6 -35 -6 -64q0 -92 45 -145.5t123 -53.5q98 0 170 67t98 196q6 26 12.5 65t13.5 85t15 95t15 97q16 112 32 235h156l-96 -678q-4 -31 -7.5 -52.5t-3.5 -31.5q0 -53 48 -53q12 0 25 2t24 6q12 4 24 10l-18 -127q-14 -8 -29 -14 q-28 -14 -74 -14q-47 0 -73.5 17.5t-40 43t-17.5 52t-4 44.5v21q0 4 2 8h-12q-25 -57 -61 -100q-33 -39 -85.5 -70t-129.5 -31q-60 0 -105 34t-76 75h-10v-47q0 -6 -2 -40t-6 -83t-9 -109.5t-10.5 -119t-11.5 -110.5t-12 -87h-156z" horiz-adv-x="1102" unicode="µ"/><glyph d="M751 1333l-178 -1458h-136l72 589q-78 0 -144.5 26t-115.5 74t-76.5 118.5t-27.5 162.5q0 113 37.5 203t102 153.5t150.5 97.5t181 34h135zM1224 1208h-193l-164 -1333h-135l179 1458h327z" unicode="¶"/><glyph d="M330 447q0 -52 -34 -89.5t-87 -37.5q-47 0 -76 31.5t-29 78.5q0 54 33 91.5t86 37.5q47 0 77 -31.5t30 -80.5z" horiz-adv-x="434" unicode="·"/><glyph d="M229 35q31 -17 57 -35q132 -90 132 -207q0 -201 -236 -201q-102 0 -172 64l51 76q58 -43 127 -43q103 0 103 114q0 121 -179 215z" horiz-adv-x="512" unicode="¸"/><glyph d="M174 1074h221l57 461q-26 -14 -79.5 -23.5t-118.5 -9.5v98q51 0 86.5 7.5t68.5 19.5t60.5 29.5t44.5 36.5h78l-76 -619h211l-13 -98h-553z" horiz-adv-x="717" unicode="¹"/><glyph d="M370 607q-68 0 -127.5 24t-100.5 67t-63.5 103t-22.5 132q0 94 27.5 171t78 132t119 85t152.5 30q154 0 232.5 -88t78.5 -232q0 -96 -25.5 -174t-74.5 -133t-118.5 -86t-155.5 -31zM378 714q47 0 92 19.5t76.5 59.5t51 98t19.5 134q0 109 -53 164t-139 55 q-47 0 -92 -20.5t-78 -60t-51.5 -98t-18.5 -134.5q0 -109 53.5 -163t139.5 -54z" horiz-adv-x="825" unicode="º"/><glyph d="M279 811l207 -369l-291 -368h-154l283 368l-180 369h135zM643 811l207 -369l-291 -368h-154l283 368l-180 369h135z" horiz-adv-x="995" unicode="»"/><glyph d="M535 0h-131l829 1333h131zM103 714h221l57 461q-26 -14 -79.5 -23.5t-118.5 -9.5v98q51 0 86.5 7.5t68.5 19.5t60.5 29.5t44.5 36.5h78l-76 -619h211l-13 -98h-553zM1377 717h157l-57 -480h143l-12 -92h-139l-19 -145h-112l18 145h-354l-29 66l47 59zM1420 635l-297 -398 h246z" horiz-adv-x="1679" unicode="¼"/><glyph d="M535 0h-131l829 1333h131zM103 714h221l57 461q-26 -14 -79.5 -23.5t-118.5 -9.5v98q51 0 86.5 7.5t68.5 19.5t60.5 29.5t44.5 36.5h78l-76 -619h211l-13 -98h-553zM1147 467q-2 10 -3 23.5t-1 23.5q0 45 20.5 84t56.5 68.5t84 46t103 16.5q100 0 170 -52.5t70 -158.5 q0 -66 -30 -121t-80 -104t-117.5 -95.5t-141.5 -91.5h350l-12 -106h-545l10 78q82 47 161 98t141.5 104.5t101.5 106.5t39 106q0 62 -32 99t-99 37q-62 0 -102 -40t-40 -106v-25.5t2 -25.5z" horiz-adv-x="1679" unicode="½"/><glyph d="M535 0h-131l829 1333h131zM235 1228q33 51 90 84t150 33q106 0 167.5 -46t61.5 -124q0 -47 -23.5 -78t-52.5 -49q-35 -23 -76 -33q43 -6 78 -28q29 -19 53.5 -52.5t24.5 -89.5q0 -65 -26.5 -111t-69.5 -76t-95.5 -44.5t-103.5 -14.5q-45 0 -87 9.5t-75.5 26t-61.5 37 t-38 40.5l78 98q6 -18 23.5 -38.5t43 -38t56 -28.5t63.5 -11t63.5 8t55.5 24.5t39 44t14 66.5q0 41 -29.5 72.5t-107.5 31.5q-14 0 -28.5 -1t-47.5 -3q-22 -2 -47 -8l19 111q10 -2 37.5 -3t37.5 -1q66 0 115 25.5t49 92.5q0 43 -28.5 71t-94.5 28q-69 0 -108 -33t-62 -80z M1377 717h157l-57 -480h143l-12 -92h-139l-19 -145h-112l18 145h-354l-29 66l47 59zM1420 635l-297 -398h246z" horiz-adv-x="1679" unicode="¾"/><glyph d="M785.006 -208.93q-28.998 -56.9961 -79.9941 -101.994q-42.998 -38.9971 -110.494 -70.9951q-67.4951 -31.998 -168.489 -31.998q-81.9951 0 -150.491 18.499q-68.4951 18.499 -118.492 57.4961q-49.9971 38.998 -78.9951 99.4941q-28.999 60.4961 -28.999 142.491 q0 107.993 53.4971 185.988t119.993 124.993q66.4961 46.9971 124.992 68.4951q58.4961 21.499 70.4951 21.499l32.998 253.984h154.991l-42.998 -343.979q-56.9961 -6 -119.492 -26.499t-115.493 -57.4961q-52.9971 -36.998 -87.9941 -93.4941 q-34.998 -56.4971 -34.998 -129.492q0 -83.9951 50.9971 -140.491q50.9961 -56.4971 167.989 -56.4971q65.9961 0 109.993 23.499q43.9971 23.498 71.9961 52.4961q32.998 32.998 53.9961 73.9961zM447.027 831.007q0 51.9971 33.498 89.4941q33.4971 37.498 86.4941 37.498 q47.9971 0 76.4951 -31.498q28.499 -31.498 28.499 -78.4951q0 -53.9971 -32.998 -91.4941q-32.998 -37.498 -85.9951 -37.498q-46.9971 0 -76.4951 31.498t-29.498 80.4951z" horiz-adv-x="860" unicode="¿"/><glyph d="M29 0l596 1333h209l278 -1333h-170l-63 326h-543l-141 -326h-166zM391 469h463l-143 731zM834 1634l-84 -84l-297 299l84 84z" horiz-adv-x="1235" unicode="À"/><glyph d="M29 0l596 1333h209l278 -1333h-170l-63 326h-543l-141 -326h-166zM391 469h463l-143 731zM966 1933l84 -84l-297 -299l-84 84z" horiz-adv-x="1235" unicode="Á"/><glyph d="M29 0l596 1333h209l278 -1333h-170l-63 326h-543l-141 -326h-166zM391 469h463l-143 731zM384 1550l358 328h127l291 -328h-168l-197 238l-245 -238h-166z" horiz-adv-x="1235" unicode="Â"/><glyph d="M29 0l596 1333h209l278 -1333h-170l-63 326h-543l-141 -326h-166zM391 469h463l-143 731zM652 1783q32 0 64 -15.5t60.5 -34.5t52.5 -34.5t42 -15.5q17 0 28 9t17.5 23t10.5 32.5t7 37.5l113 -43q4 -30 -4 -63.5t-28.5 -61.5t-52.5 -46.5t-75 -18.5q-33 0 -64 15.5 t-59 34.5t-52.5 34.5t-43.5 15.5q-15 0 -25.5 -8.5t-17.5 -22.5t-12 -32.5t-9 -38.5l-112 43q-2 40 9.5 75t33 60.5t51.5 40t66 14.5z" horiz-adv-x="1235" unicode="Ã"/><glyph d="M29 0l596 1333h209l278 -1333h-170l-63 326h-543l-141 -326h-166zM391 469h463l-143 731zM674 1669q0 -53 -35 -86t-86 -33q-47 0 -76.5 30t-29.5 77q0 55 33.5 87.5t84.5 32.5q48 0 78.5 -29.5t30.5 -78.5zM1086 1669q0 -53 -35 -86t-84 -33t-79 30t-30 77q0 55 34 87.5 t87 32.5q47 0 77 -29.5t30 -78.5z" horiz-adv-x="1235" unicode="Ä"/><glyph d="M29 0l596 1333h209l278 -1333h-170l-63 326h-543l-141 -326h-166zM391 469h463l-143 731zM553 1767q0 49 17 92t49 75t76 51.5t99 19.5q101 0 161.5 -63.5t60.5 -153.5q0 -49 -17.5 -93t-50.5 -76t-77 -50.5t-97 -18.5q-105 0 -163 62.5t-58 154.5zM651 1773 q0 -57 35 -95t92 -38t98 41t41 101q0 53 -37 93t-90 40q-59 0 -99 -42t-40 -100z" horiz-adv-x="1235" unicode="Å"/><glyph d="M121 0h-168l811 1333h889l-17 -135h-610l-55 -459h561l-16 -135h-562l-57 -469h637l-16 -135h-799l41 336h-434zM866 1217l-454 -748h364z" horiz-adv-x="1694" unicode="Æ"/><glyph d="M565 35q31 -17 57 -35q132 -90 132 -207q0 -201 -236 -201q-102 0 -172 64l51 76q58 -43 127 -43q103 0 103 114q0 121 -179 215zM1055 1030q-17 76 -87.5 134.5t-199.5 58.5q-113 0 -199 -52.5t-144 -144.5t-88 -216t-30 -265q0 -99 21.5 -178.5t64.5 -136t108.5 -88 t153.5 -31.5q148 0 232 61t114 150l125 -82q-32 -56 -75 -104t-101.5 -84t-133.5 -56.5t-171 -20.5q-113 0 -206 38t-159.5 111t-103.5 177.5t-37 239.5q0 186 51.5 336.5t139.5 257t201.5 165t240.5 58.5q92 0 163 -20.5t123 -55.5t88 -80t58 -96z" horiz-adv-x="1266" unicode="Ç"/><glyph d="M436 1198l-55 -459h561l-16 -135h-561l-58 -469h647l-16 -135h-809l162 1333h782l-16 -135h-621zM819 1634l-84 -84l-297 299l84 84z" horiz-adv-x="1122" unicode="È"/><glyph d="M436 1198l-55 -459h561l-16 -135h-561l-58 -469h647l-16 -135h-809l162 1333h782l-16 -135h-621zM935 1933l84 -84l-297 -299l-84 84z" horiz-adv-x="1122" unicode="É"/><glyph d="M436 1198l-55 -459h561l-16 -135h-561l-58 -469h647l-16 -135h-809l162 1333h782l-16 -135h-621zM320 1550l358 328h127l291 -328h-168l-197 238l-245 -238h-166z" horiz-adv-x="1122" unicode="Ê"/><glyph d="M436 1198l-55 -459h561l-16 -135h-561l-58 -469h647l-16 -135h-809l162 1333h782l-16 -135h-621zM622 1669q0 -53 -35 -86t-86 -33q-47 0 -76.5 30t-29.5 77q0 55 33.5 87.5t84.5 32.5q48 0 78.5 -29.5t30.5 -78.5zM1034 1669q0 -53 -35 -86t-84 -33t-79 30t-30 77 q0 55 34 87.5t87 32.5q47 0 77 -29.5t30 -78.5z" horiz-adv-x="1122" unicode="Ë"/><glyph d="M129 0l162 1333h162l-162 -1333h-162zM483 1634l-84 -84l-297 299l84 84z" horiz-adv-x="520" unicode="Ì"/><glyph d="M129 0l162 1333h162l-162 -1333h-162zM617 1933l84 -84l-297 -299l-84 84z" horiz-adv-x="520" unicode="Í"/><glyph d="M129 0l162 1333h162l-162 -1333h-162zM23 1550l358 328h127l291 -328h-168l-197 238l-245 -238h-166z" horiz-adv-x="520" unicode="Î"/><glyph d="M129 0l162 1333h162l-162 -1333h-162zM319 1669q0 -53 -35 -86t-86 -33q-47 0 -76.5 30t-29.5 77q0 55 33.5 87.5t84.5 32.5q48 0 78.5 -29.5t30.5 -78.5zM731 1669q0 -53 -35 -86t-84 -33t-79 30t-30 77q0 55 34 87.5t87 32.5q47 0 77 -29.5t30 -78.5z" horiz-adv-x="520" unicode="Ï"/><glyph d="M170 0l72 606h-181l15 127h182l74 600h375q276 0 417.5 -143t141.5 -412q0 -184 -51.5 -329.5t-143.5 -245t-221 -151.5t-285 -52h-395zM586 135q239 0 375.5 160t136.5 481q0 207 -93.5 314.5t-291.5 107.5h-236l-57 -465h270l-14 -127h-273l-55 -471h238z" horiz-adv-x="1378" unicode="Ð"/><glyph d="M285 0h-156l162 1333h213l481 -1102l135 1102h156l-162 -1333h-213l-479 1133zM704 1783q32 0 64 -15.5t60.5 -34.5t52.5 -34.5t42 -15.5q17 0 28 9t17.5 23t10.5 32.5t7 37.5l113 -43q4 -30 -4 -63.5t-28.5 -61.5t-52.5 -46.5t-75 -18.5q-33 0 -64 15.5t-59 34.5 t-52.5 34.5t-43.5 15.5q-15 0 -25.5 -8.5t-17.5 -22.5t-12 -32.5t-9 -38.5l-112 43q-2 40 9.5 75t33 60.5t51.5 40t66 14.5z" horiz-adv-x="1343" unicode="Ñ"/><glyph d="M1325 793q0 -148 -39 -294.5t-121 -262t-205.5 -188.5t-291.5 -73q-121 0 -219.5 38t-169 111t-109.5 178.5t-39 240.5q0 143 41 288.5t123 262t205 190.5t286 74q119 0 218.5 -38t170 -110.5t110.5 -178t40 -238.5zM664 111q133 0 227 57t153.5 152.5t86 217t26.5 248.5 q0 213 -100.5 325t-265.5 112q-134 0 -227 -58.5t-152.5 -152.5t-87 -216t-27.5 -247q0 -215 101.5 -326.5t265.5 -111.5zM954 1634l-84 -84l-297 299l84 84z" horiz-adv-x="1438" unicode="Ò"/><glyph d="M1325 793q0 -148 -39 -294.5t-121 -262t-205.5 -188.5t-291.5 -73q-121 0 -219.5 38t-169 111t-109.5 178.5t-39 240.5q0 143 41 288.5t123 262t205 190.5t286 74q119 0 218.5 -38t170 -110.5t110.5 -178t40 -238.5zM664 111q133 0 227 57t153.5 152.5t86 217t26.5 248.5 q0 213 -100.5 325t-265.5 112q-134 0 -227 -58.5t-152.5 -152.5t-87 -216t-27.5 -247q0 -215 101.5 -326.5t265.5 -111.5zM1055 1933l84 -84l-297 -299l-84 84z" horiz-adv-x="1438" unicode="Ó"/><glyph d="M1325 793q0 -148 -39 -294.5t-121 -262t-205.5 -188.5t-291.5 -73q-121 0 -219.5 38t-169 111t-109.5 178.5t-39 240.5q0 143 41 288.5t123 262t205 190.5t286 74q119 0 218.5 -38t170 -110.5t110.5 -178t40 -238.5zM664 111q133 0 227 57t153.5 152.5t86 217t26.5 248.5 q0 213 -100.5 325t-265.5 112q-134 0 -227 -58.5t-152.5 -152.5t-87 -216t-27.5 -247q0 -215 101.5 -326.5t265.5 -111.5zM475 1550l358 328h127l291 -328h-168l-197 238l-245 -238h-166z" horiz-adv-x="1438" unicode="Ô"/><glyph d="M1325 793q0 -148 -39 -294.5t-121 -262t-205.5 -188.5t-291.5 -73q-121 0 -219.5 38t-169 111t-109.5 178.5t-39 240.5q0 143 41 288.5t123 262t205 190.5t286 74q119 0 218.5 -38t170 -110.5t110.5 -178t40 -238.5zM664 111q133 0 227 57t153.5 152.5t86 217t26.5 248.5 q0 213 -100.5 325t-265.5 112q-134 0 -227 -58.5t-152.5 -152.5t-87 -216t-27.5 -247q0 -215 101.5 -326.5t265.5 -111.5zM735 1783q32 0 64 -15.5t60.5 -34.5t52.5 -34.5t42 -15.5q17 0 28 9t17.5 23t10.5 32.5t7 37.5l113 -43q4 -30 -4 -63.5t-28.5 -61.5t-52.5 -46.5 t-75 -18.5q-33 0 -64 15.5t-59 34.5t-52.5 34.5t-43.5 15.5q-15 0 -25.5 -8.5t-17.5 -22.5t-12 -32.5t-9 -38.5l-112 43q-2 40 9.5 75t33 60.5t51.5 40t66 14.5z" horiz-adv-x="1438" unicode="Õ"/><glyph d="M1325 793q0 -148 -39 -294.5t-121 -262t-205.5 -188.5t-291.5 -73q-121 0 -219.5 38t-169 111t-109.5 178.5t-39 240.5q0 143 41 288.5t123 262t205 190.5t286 74q119 0 218.5 -38t170 -110.5t110.5 -178t40 -238.5zM664 111q133 0 227 57t153.5 152.5t86 217t26.5 248.5 q0 213 -100.5 325t-265.5 112q-134 0 -227 -58.5t-152.5 -152.5t-87 -216t-27.5 -247q0 -215 101.5 -326.5t265.5 -111.5zM748 1669q0 -53 -35 -86t-86 -33q-47 0 -76.5 30t-29.5 77q0 55 33.5 87.5t84.5 32.5q48 0 78.5 -29.5t30.5 -78.5zM1160 1669q0 -53 -35 -86t-84 -33 t-79 30t-30 77q0 55 34 87.5t87 32.5q47 0 77 -29.5t30 -78.5z" horiz-adv-x="1438" unicode="Ö"/><glyph d="M788 834l95 -95l-275 -276l275 -277l-95 -94l-276 275l-276 -275l-95 94l275 277l-275 276l95 95l276 -275l276 275v0z" horiz-adv-x="1044" unicode="×"/><glyph d="M244 168q-113 149 -113 389q0 188 52.5 336.5t142.5 252t209.5 158t252.5 54.5q105 0 191 -30t154 -83l110 125l94 -84l-116 -137q47 -72 73.5 -166t26.5 -209q0 -188 -53.5 -335.5t-142.5 -251t-208.5 -158t-250.5 -54.5q-201 0 -332 103l-94 -109l-95 86zM793 1223 q-134 0 -229 -63.5t-154.5 -164t-87 -224.5t-27.5 -247q0 -143 51 -245l694 847q-92 97 -247 97zM662 111q135 0 229 60t152.5 158.5t84 222.5t25.5 251q0 135 -41 233l-686 -843q90 -82 236 -82z" horiz-adv-x="1438" unicode="Ø"/><glyph d="M455 1333l-109 -893q-4 -18 -4 -34.5v-32.5q0 -133 72.5 -197.5t195.5 -64.5q138 0 228 86t110 243l109 893h164l-109 -882q-29 -224 -155 -350t-349 -126q-217 0 -324.5 98.5t-107.5 284.5q0 43 6 93l109 882h164zM868 1634l-84 -84l-297 299l84 84z" horiz-adv-x="1266" unicode="Ù"/><glyph d="M455 1333l-109 -893q-4 -18 -4 -34.5v-32.5q0 -133 72.5 -197.5t195.5 -64.5q138 0 228 86t110 243l109 893h164l-109 -882q-29 -224 -155 -350t-349 -126q-217 0 -324.5 98.5t-107.5 284.5q0 43 6 93l109 882h164zM993 1933l84 -84l-297 -299l-84 84z" horiz-adv-x="1266" unicode="Ú"/><glyph d="M455 1333l-109 -893q-4 -18 -4 -34.5v-32.5q0 -133 72.5 -197.5t195.5 -64.5q138 0 228 86t110 243l109 893h164l-109 -882q-29 -224 -155 -350t-349 -126q-217 0 -324.5 98.5t-107.5 284.5q0 43 6 93l109 882h164zM382 1550l358 328h127l291 -328h-168l-197 238 l-245 -238h-166z" horiz-adv-x="1266" unicode="Û"/><glyph d="M455 1333l-109 -893q-4 -18 -4 -34.5v-32.5q0 -133 72.5 -197.5t195.5 -64.5q138 0 228 86t110 243l109 893h164l-109 -882q-29 -224 -155 -350t-349 -126q-217 0 -324.5 98.5t-107.5 284.5q0 43 6 93l109 882h164zM700 1669q0 -53 -35 -86t-86 -33q-47 0 -76.5 30 t-29.5 77q0 55 33.5 87.5t84.5 32.5q48 0 78.5 -29.5t30.5 -78.5zM1112 1669q0 -53 -35 -86t-84 -33t-79 30t-30 77q0 55 34 87.5t87 32.5q47 0 77 -29.5t30 -78.5z" horiz-adv-x="1266" unicode="Ü"/><glyph d="M125 1333h170l258 -680l424 680h178l-537 -821l-61 -512h-162l62 512zM850 1933l84 -84l-297 -299l-84 84z" horiz-adv-x="1059" unicode="Ý"/><glyph d="M635 1106q196 0 294.5 -95.5t98.5 -269.5q0 -104 -32.5 -190t-90 -146.5t-134.5 -94.5t-165 -34h-289l-32 -276h-162l162 1333h161l-26 -227h215zM592 412q76 0 128 28.5t84 74.5t46 102.5t14 109.5q0 51 -14 95t-43 77t-73 52.5t-105 19.5h-226l-69 -559h258z" horiz-adv-x="1087" unicode="Þ"/><glyph d="M240 -250q-9 -65 -35.5 -112.5t-66.5 -79t-89 -47t-102 -15.5q-47 0 -82 10.5t-58 24.5l29 135q17 -10 41.5 -19t61.5 -9q20 0 43.5 5t45 20t38 45t22.5 79l164 1315q8 76 40 143.5t83 119.5t123.5 84t165.5 32q94 0 160.5 -30t106.5 -77t58.5 -105.5t18.5 -115.5 q0 -106 -41 -175t-90 -110q-58 -49 -132 -75v-9q89 -16 156 -61q29 -18 57.5 -46t50 -65t35 -84t13.5 -106q0 -96 -33 -177t-92.5 -140.5t-142 -94.5t-183.5 -35q-47 0 -83 5.5t-60 11.5q-29 8 -49 18l16 146q23 -17 53 -27q27 -10 64 -18.5t84 -8.5q53 0 101 19.5t85 58.5 t59.5 96.5t22.5 137.5q0 53 -15.5 105t-51 94t-96 69t-148.5 27q-10 0 -22.5 -1t-24.5 -1h-31l16 122q97 0 159.5 30t98 76t50 103.5t14.5 106.5q0 39 -8.5 77t-30 67.5t-59 47t-95.5 17.5q-61 0 -105 -23.5t-75 -62.5t-47 -78t-25 -107z" horiz-adv-x="1153" unicode="ß"/><glyph d="M706 1243l-84 -84l-297 299l84 84zM967 264q-4 -31 -7.5 -53.5t-3.5 -34.5q0 -33 10.5 -45t34.5 -12q13 0 25 2t23 6q12 4 24 10l-20 -127q-11 -8 -25 -16q-29 -14 -70 -14q-51 0 -78.5 27.5t-40 61t-14.5 62.5t-2 33h-12q-29 -53 -72 -94q-39 -35 -98 -65t-149 -30 q-93 0 -166.5 32t-124.5 90.5t-79 141.5t-28 183q0 117 36 216t100.5 173t153.5 115t194 41q86 0 144 -29t93 -64q41 -38 66 -90l12 4l25 154h145zM512 104q76 0 138.5 31t105.5 87.5t66.5 134t23.5 171.5q0 160 -72 235t-188 75q-78 0 -139.5 -31t-104.5 -87t-66.5 -133 t-23.5 -169q0 -160 71.5 -237t188.5 -77z" horiz-adv-x="1184" unicode="à"/><glyph d="M809 1532l84 -84l-297 -299l-84 84zM967 264q-4 -31 -7.5 -53.5t-3.5 -34.5q0 -33 10.5 -45t34.5 -12q13 0 25 2t23 6q12 4 24 10l-20 -127q-11 -8 -25 -16q-29 -14 -70 -14q-51 0 -78.5 27.5t-40 61t-14.5 62.5t-2 33h-12q-29 -53 -72 -94q-39 -35 -98 -65t-149 -30 q-93 0 -166.5 32t-124.5 90.5t-79 141.5t-28 183q0 117 36 216t100.5 173t153.5 115t194 41q86 0 144 -29t93 -64q41 -38 66 -90l12 4l25 154h145zM512 104q76 0 138.5 31t105.5 87.5t66.5 134t23.5 171.5q0 160 -72 235t-188 75q-78 0 -139.5 -31t-104.5 -87t-66.5 -133 t-23.5 -169q0 -160 71.5 -237t188.5 -77z" horiz-adv-x="1184" unicode="á"/><glyph d="M251 1159l358 328h127l291 -328h-168l-197 238l-245 -238h-166zM967 264q-4 -31 -7.5 -53.5t-3.5 -34.5q0 -33 10.5 -45t34.5 -12q13 0 25 2t23 6q12 4 24 10l-20 -127q-11 -8 -25 -16q-29 -14 -70 -14q-51 0 -78.5 27.5t-40 61t-14.5 62.5t-2 33h-12q-29 -53 -72 -94 q-39 -35 -98 -65t-149 -30q-93 0 -166.5 32t-124.5 90.5t-79 141.5t-28 183q0 117 36 216t100.5 173t153.5 115t194 41q86 0 144 -29t93 -64q41 -38 66 -90l12 4l25 154h145zM512 104q76 0 138.5 31t105.5 87.5t66.5 134t23.5 171.5q0 160 -72 235t-188 75q-78 0 -139.5 -31 t-104.5 -87t-66.5 -133t-23.5 -169q0 -160 71.5 -237t188.5 -77z" horiz-adv-x="1184" unicode="â"/><glyph d="M502 1392q32 0 64 -15.5t60.5 -34.5t52.5 -34.5t42 -15.5q17 0 28 9t17.5 23t10.5 32.5t7 37.5l113 -43q4 -30 -4 -63.5t-28.5 -61.5t-52.5 -46.5t-75 -18.5q-33 0 -64 15.5t-59 34.5t-52.5 34.5t-43.5 15.5q-15 0 -25.5 -8.5t-17.5 -22.5t-12 -32.5t-9 -38.5l-112 43 q-2 40 9.5 75t33 60.5t51.5 40t66 14.5zM967 264q-4 -31 -7.5 -53.5t-3.5 -34.5q0 -33 10.5 -45t34.5 -12q13 0 25 2t23 6q12 4 24 10l-20 -127q-11 -8 -25 -16q-29 -14 -70 -14q-51 0 -78.5 27.5t-40 61t-14.5 62.5t-2 33h-12q-29 -53 -72 -94q-39 -35 -98 -65t-149 -30 q-93 0 -166.5 32t-124.5 90.5t-79 141.5t-28 183q0 117 36 216t100.5 173t153.5 115t194 41q86 0 144 -29t93 -64q41 -38 66 -90l12 4l25 154h145zM512 104q76 0 138.5 31t105.5 87.5t66.5 134t23.5 171.5q0 160 -72 235t-188 75q-78 0 -139.5 -31t-104.5 -87t-66.5 -133 t-23.5 -169q0 -160 71.5 -237t188.5 -77z" horiz-adv-x="1184" unicode="ã"/><glyph d="M532 1278q0 -53 -35 -86t-86 -33q-47 0 -76.5 30t-29.5 77q0 55 33.5 87.5t84.5 32.5q48 0 78.5 -29.5t30.5 -78.5zM944 1278q0 -53 -35 -86t-84 -33t-79 30t-30 77q0 55 34 87.5t87 32.5q47 0 77 -29.5t30 -78.5zM967 264q-4 -31 -7.5 -53.5t-3.5 -34.5q0 -33 10.5 -45 t34.5 -12q13 0 25 2t23 6q12 4 24 10l-20 -127q-11 -8 -25 -16q-29 -14 -70 -14q-51 0 -78.5 27.5t-40 61t-14.5 62.5t-2 33h-12q-29 -53 -72 -94q-39 -35 -98 -65t-149 -30q-93 0 -166.5 32t-124.5 90.5t-79 141.5t-28 183q0 117 36 216t100.5 173t153.5 115t194 41 q86 0 144 -29t93 -64q41 -38 66 -90l12 4l25 154h145zM512 104q76 0 138.5 31t105.5 87.5t66.5 134t23.5 171.5q0 160 -72 235t-188 75q-78 0 -139.5 -31t-104.5 -87t-66.5 -133t-23.5 -169q0 -160 71.5 -237t188.5 -77z" horiz-adv-x="1184" unicode="ä"/><glyph d="M461 1376q0 49 17 92t49 75t76 51.5t99 19.5q101 0 161.5 -63.5t60.5 -153.5q0 -49 -17.5 -93t-50.5 -76t-77 -50.5t-97 -18.5q-105 0 -163 62.5t-58 154.5zM559 1382q0 -57 35 -95t92 -38t98 41t41 101q0 53 -37 93t-90 40q-59 0 -99 -42t-40 -100zM967 264 q-4 -31 -7.5 -53.5t-3.5 -34.5q0 -33 10.5 -45t34.5 -12q13 0 25 2t23 6q12 4 24 10l-20 -127q-11 -8 -25 -16q-29 -14 -70 -14q-51 0 -78.5 27.5t-40 61t-14.5 62.5t-2 33h-12q-29 -53 -72 -94q-39 -35 -98 -65t-149 -30q-93 0 -166.5 32t-124.5 90.5t-79 141.5t-28 183 q0 117 36 216t100.5 173t153.5 115t194 41q86 0 144 -29t93 -64q41 -38 66 -90l12 4l25 154h145zM512 104q76 0 138.5 31t105.5 87.5t66.5 134t23.5 171.5q0 160 -72 235t-188 75q-78 0 -139.5 -31t-104.5 -87t-66.5 -133t-23.5 -169q0 -160 71.5 -237t188.5 -77z" horiz-adv-x="1184" unicode="å"/><glyph d="M907 418q0 -66 12.5 -122t38 -97t66.5 -65.5t98 -24.5q64 0 107 19t69 44q31 27 50 64l135 -72q-31 -53 -80 -94q-41 -35 -107.5 -65t-162.5 -30q-109 0 -175.5 36t-103.5 81q-43 53 -63 119h-13q-18 -45 -55 -87t-85 -75t-106.5 -53.5t-121.5 -20.5q-84 0 -141.5 21.5 t-92.5 55.5t-49 78t-14 87q0 131 101 204t261 87l279 22l12 97q2 10 2 18v19q0 86 -51 131t-148 45q-71 0 -120.5 -24.5t-77.5 -53.5q-35 -35 -56 -76l-125 70q29 59 80 106q43 41 114 74t179 33q111 0 172.5 -35t91.5 -76q37 -49 45 -110h9q30 61 77 110q41 41 101.5 76 t146.5 35q76 0 139.5 -24.5t109.5 -74t71.5 -123t25.5 -172.5q0 -26 -2 -51.5t-6 -54.5zM1180 838q-93 0 -167.5 -79t-90.5 -214l471 33q2 10 2 25v26q0 96 -56.5 152.5t-158.5 56.5zM418 106q123 0 208 49.5t101 159.5l14 99q-49 -4 -96 -11q-41 -4 -87 -8t-81 -8 q-106 -10 -156.5 -45t-50.5 -106q0 -60 38 -95t110 -35z" horiz-adv-x="1651" unicode="æ"/><glyph d="M797 694q-17 60 -70 102t-149 42q-80 0 -140.5 -34t-102.5 -92.5t-63.5 -134t-21.5 -161.5q0 -154 67.5 -233t196.5 -79q94 0 152.5 35t83.5 84l114 -92q-41 -63 -128 -109.5t-212 -46.5q-92 0 -171 27t-137 82t-91 139t-33 199q0 119 37 219t102.5 173t154.5 113t194 40 q135 0 216 -52.5t115 -128.5zM428 35q31 -17 57 -35q132 -90 132 -207q0 -201 -236 -201q-102 0 -172 64l51 76q58 -43 127 -43q103 0 103 114q0 121 -179 215z" horiz-adv-x="973" unicode="ç"/><glyph d="M254 463q-2 -19 -2 -35v-31q0 -151 66.5 -221t191.5 -70q98 0 161.5 35t90.5 82l112 -92q-38 -65 -132.5 -110.5t-223.5 -45.5q-106 0 -185 32t-132.5 89.5t-80 137t-26.5 178.5q0 102 30 201.5t89 178t148.5 127t209.5 48.5q93 0 159.5 -30t109.5 -81t63.5 -120.5 t20.5 -151.5q0 -23 -3 -55.5t-10 -65.5h-657zM551 854q-113 0 -183.5 -68.5t-95.5 -201.5h504v10q0 4 1 10t1 14q0 27 -8 68t-31.5 78t-68.5 63.5t-119 26.5zM703 1243l-84 -84l-297 299l84 84z" horiz-adv-x="1024" unicode="è"/><glyph d="M254 463q-2 -19 -2 -35v-31q0 -151 66.5 -221t191.5 -70q98 0 161.5 35t90.5 82l112 -92q-38 -65 -132.5 -110.5t-223.5 -45.5q-106 0 -185 32t-132.5 89.5t-80 137t-26.5 178.5q0 102 30 201.5t89 178t148.5 127t209.5 48.5q93 0 159.5 -30t109.5 -81t63.5 -120.5 t20.5 -151.5q0 -23 -3 -55.5t-10 -65.5h-657zM551 854q-113 0 -183.5 -68.5t-95.5 -201.5h504v10q0 4 1 10t1 14q0 27 -8 68t-31.5 78t-68.5 63.5t-119 26.5zM820 1542l84 -84l-297 -299l-84 84z" horiz-adv-x="1024" unicode="é"/><glyph d="M254 463q-2 -19 -2 -35v-31q0 -151 66.5 -221t191.5 -70q98 0 161.5 35t90.5 82l112 -92q-38 -65 -132.5 -110.5t-223.5 -45.5q-106 0 -185 32t-132.5 89.5t-80 137t-26.5 178.5q0 102 30 201.5t89 178t148.5 127t209.5 48.5q93 0 159.5 -30t109.5 -81t63.5 -120.5 t20.5 -151.5q0 -23 -3 -55.5t-10 -65.5h-657zM551 854q-113 0 -183.5 -68.5t-95.5 -201.5h504v10q0 4 1 10t1 14q0 27 -8 68t-31.5 78t-68.5 63.5t-119 26.5zM228 1159l358 328h127l291 -328h-168l-197 238l-245 -238h-166z" horiz-adv-x="1024" unicode="ê"/><glyph d="M254 463q-2 -19 -2 -35v-31q0 -151 66.5 -221t191.5 -70q98 0 161.5 35t90.5 82l112 -92q-38 -65 -132.5 -110.5t-223.5 -45.5q-106 0 -185 32t-132.5 89.5t-80 137t-26.5 178.5q0 102 30 201.5t89 178t148.5 127t209.5 48.5q93 0 159.5 -30t109.5 -81t63.5 -120.5 t20.5 -151.5q0 -23 -3 -55.5t-10 -65.5h-657zM551 854q-113 0 -183.5 -68.5t-95.5 -201.5h504v10q0 4 1 10t1 14q0 27 -8 68t-31.5 78t-68.5 63.5t-119 26.5zM541 1278q0 -53 -35 -86t-86 -33q-47 0 -76.5 30t-29.5 77q0 55 33.5 87.5t84.5 32.5q48 0 78.5 -29.5t30.5 -78.5 zM953 1278q0 -53 -35 -86t-84 -33t-79 30t-30 77q0 55 34 87.5t87 32.5q47 0 77 -29.5t30 -78.5z" horiz-adv-x="1024" unicode="ë"/><glyph d="M293 -18q-88 0 -122 43t-34 100q0 14 1 28.5t3 24.5l107 764h155l-100 -700q-4 -31 -6 -52.5t-2 -31.5q0 -54 51 -54q12 0 24.5 2.5t22.5 6.5q13 4 25 10l-19 -113q-10 -8 -24 -14q-29 -14 -82 -14zM465 1228l-97 -69l-240 346l97 69z" horiz-adv-x="522" unicode="ì"/><glyph d="M293 -18q-88 0 -122 43t-34 100q0 14 1 28.5t3 24.5l107 764h155l-100 -700q-4 -31 -6 -52.5t-2 -31.5q0 -54 51 -54q12 0 24.5 2.5t22.5 6.5q13 4 25 10l-19 -113q-10 -8 -24 -14q-29 -14 -82 -14zM507 1574l97 -69l-240 -346l-97 69z" horiz-adv-x="522" unicode="í"/><glyph d="M293 -18q-88 0 -122 43t-34 100q0 14 1 28.5t3 24.5l107 764h155l-100 -700q-4 -31 -6 -52.5t-2 -31.5q0 -54 51 -54q12 0 24.5 2.5t22.5 6.5q13 4 25 10l-19 -113q-10 -8 -24 -14q-29 -14 -82 -14zM64 1159l276 328h127l209 -328h-147l-136 238l-184 -238h-145z" horiz-adv-x="522" unicode="î"/><glyph d="M293 -18q-88 0 -122 43t-34 100q0 14 1 28.5t3 24.5l107 764h155l-100 -700q-4 -31 -6 -52.5t-2 -31.5q0 -54 51 -54q12 0 24.5 2.5t22.5 6.5q13 4 25 10l-19 -113q-10 -8 -24 -14q-29 -14 -82 -14zM285 1278q0 -53 -35 -86t-86 -33q-47 0 -76.5 30t-29.5 77 q0 55 33.5 87.5t84.5 32.5q48 0 78.5 -29.5t30.5 -78.5zM657 1278q0 -53 -35 -86t-84 -33t-79 30t-30 77q0 55 34 87.5t87 32.5q47 0 77 -29.5t30 -78.5z" horiz-adv-x="522" unicode="ï"/><glyph d="M905 735q2 10 2 21.5v23.5q0 56 -11 116t-31.5 116.5t-46 104.5t-54.5 79l-289 -113l-35 103l250 98q-8 10 -26.5 24.5t-39 30t-41 29.5t-34.5 23l84 88q16 -9 42.5 -27t54.5 -38.5t51.5 -41t35.5 -31.5l205 84l31 -106l-160 -64q65 -86 110.5 -217t45.5 -305 q0 -164 -36 -303t-105.5 -240.5t-172 -160t-237.5 -58.5q-111 0 -189 38t-128 99.5t-72.5 142.5t-22.5 167q0 80 28.5 174t88 176t151.5 137.5t221 55.5q70 0 125.5 -23t96.5 -56.5t66.5 -73.5t35.5 -75zM514 98q72 0 133.5 31t106.5 85t70.5 128t25.5 158q0 67 -14.5 127.5 t-47 106.5t-83 73t-119.5 27q-86 0 -148.5 -36t-104.5 -94.5t-61.5 -133t-19.5 -152.5q0 -150 59.5 -235t202.5 -85z" horiz-adv-x="1161" unicode="ð"/><glyph d="M858 -18q-131 0 -131 137q0 28 6 59q17 98 37.5 194.5t44.5 227.5q6 33 6 64q0 88 -48 132t-136 44q-123 0 -204 -97.5t-105 -277.5q-9 -53 -18 -133t-19 -154q-10 -86 -23 -178h-155q26 188 49 346q8 68 18 133.5t17.5 120.5t13.5 94t8 54q2 14 3 30.5t1 34.5 q0 23 -1 46.5t-3 41.5q-2 23 -4 41h152q0 -16 2 -35q2 -16 3 -36.5t1 -41.5v-30.5t-4 -32.5h10q29 55 72 100q36 37 95.5 69t145.5 32q142 0 209.5 -75t67.5 -192v-33.5t-4 -33.5q-13 -76 -26 -137.5t-24.5 -114.5t-21.5 -101.5t-19 -93.5q-2 -10 -2 -24q0 -33 15.5 -42 t38.5 -9q20 0 41 4q8 2 16 6l-18 -119q-13 -6 -29 -10q-31 -10 -78 -10zM547 1392q32 0 64 -15.5t60.5 -34.5t52.5 -34.5t42 -15.5q17 0 28 9t17.5 23t10.5 32.5t7 37.5l113 -43q4 -30 -4 -63.5t-28.5 -61.5t-52.5 -46.5t-75 -18.5q-33 0 -64 15.5t-59 34.5t-52.5 34.5 t-43.5 15.5q-15 0 -25.5 -8.5t-17.5 -22.5t-12 -32.5t-9 -38.5l-112 43q-2 40 9.5 75t33 60.5t51.5 40t66 14.5z" horiz-adv-x="1116" unicode="ñ"/><glyph d="M508 -25q-92 0 -169 32t-131 89.5t-84 137t-30 176.5q0 127 37 229t102.5 175t155.5 113t199 40q203 0 307 -117t104 -309q0 -127 -34.5 -231.5t-99 -178.5t-156 -115t-201.5 -41zM514 104q68 0 128 28t104.5 82t71 134t26.5 187q0 151 -73 227t-189 76q-68 0 -128.5 -28 t-105.5 -83t-70.5 -136t-25.5 -188q0 -149 72.5 -224t189.5 -75zM734 1243l-84 -84l-297 299l84 84z" horiz-adv-x="1092" unicode="ò"/><glyph d="M508 -25q-92 0 -169 32t-131 89.5t-84 137t-30 176.5q0 127 37 229t102.5 175t155.5 113t199 40q203 0 307 -117t104 -309q0 -127 -34.5 -231.5t-99 -178.5t-156 -115t-201.5 -41zM514 104q68 0 128 28t104.5 82t71 134t26.5 187q0 151 -73 227t-189 76q-68 0 -128.5 -28 t-105.5 -83t-70.5 -136t-25.5 -188q0 -149 72.5 -224t189.5 -75zM823 1542l84 -84l-297 -299l-84 84z" horiz-adv-x="1092" unicode="ó"/><glyph d="M508 -25q-92 0 -169 32t-131 89.5t-84 137t-30 176.5q0 127 37 229t102.5 175t155.5 113t199 40q203 0 307 -117t104 -309q0 -127 -34.5 -231.5t-99 -178.5t-156 -115t-201.5 -41zM514 104q68 0 128 28t104.5 82t71 134t26.5 187q0 151 -73 227t-189 76q-68 0 -128.5 -28 t-105.5 -83t-70.5 -136t-25.5 -188q0 -149 72.5 -224t189.5 -75zM254 1159l358 328h127l291 -328h-168l-197 238l-245 -238h-166z" horiz-adv-x="1092" unicode="ô"/><glyph d="M508 -25q-92 0 -169 32t-131 89.5t-84 137t-30 176.5q0 127 37 229t102.5 175t155.5 113t199 40q203 0 307 -117t104 -309q0 -127 -34.5 -231.5t-99 -178.5t-156 -115t-201.5 -41zM514 104q68 0 128 28t104.5 82t71 134t26.5 187q0 151 -73 227t-189 76q-68 0 -128.5 -28 t-105.5 -83t-70.5 -136t-25.5 -188q0 -149 72.5 -224t189.5 -75zM530 1392q32 0 64 -15.5t60.5 -34.5t52.5 -34.5t42 -15.5q17 0 28 9t17.5 23t10.5 32.5t7 37.5l113 -43q4 -30 -4 -63.5t-28.5 -61.5t-52.5 -46.5t-75 -18.5q-33 0 -64 15.5t-59 34.5t-52.5 34.5t-43.5 15.5 q-15 0 -25.5 -8.5t-17.5 -22.5t-12 -32.5t-9 -38.5l-112 43q-2 40 9.5 75t33 60.5t51.5 40t66 14.5z" horiz-adv-x="1092" unicode="õ"/><glyph d="M508 -25q-92 0 -169 32t-131 89.5t-84 137t-30 176.5q0 127 37 229t102.5 175t155.5 113t199 40q203 0 307 -117t104 -309q0 -127 -34.5 -231.5t-99 -178.5t-156 -115t-201.5 -41zM514 104q68 0 128 28t104.5 82t71 134t26.5 187q0 151 -73 227t-189 76q-68 0 -128.5 -28 t-105.5 -83t-70.5 -136t-25.5 -188q0 -149 72.5 -224t189.5 -75zM551 1278q0 -53 -35 -86t-86 -33q-47 0 -76.5 30t-29.5 77q0 55 33.5 87.5t84.5 32.5q48 0 78.5 -29.5t30.5 -78.5zM963 1278q0 -53 -35 -86t-84 -33t-79 30t-30 77q0 55 34 87.5t87 32.5q47 0 77 -29.5 t30 -78.5z" horiz-adv-x="1092" unicode="ö"/><glyph d="M952 526v-127h-880v127h880v0zM648 168q0 -52 -34 -89.5t-87 -37.5q-47 0 -76 31.5t-29 78.5q0 54 33 91.5t86 37.5q47 0 77 -31.5t30 -80.5zM648 793q0 -52 -34 -89.5t-87 -37.5q-47 0 -76 31.5t-29 78.5q0 54 33 91.5t86 37.5q47 0 77 -31.5t30 -80.5z" horiz-adv-x="1044" unicode="÷"/><glyph d="M154 168q-60 102 -60 242q0 127 37 229t102.5 175t155.5 113t199 40q102 0 178 -31t129 -88l125 110l70 -84l-134 -118q43 -92 43 -215q0 -127 -34.5 -231.5t-99 -178.5t-156 -115t-201.5 -41q-88 0 -160 28t-125 77l-121 -109l-67 88zM252 403q0 -77 18 -133l512 478 q-71 90 -200 90q-68 0 -128.5 -28t-105.5 -83t-70.5 -136t-25.5 -188zM514 104q68 0 128 28t104.5 82t71 134t26.5 187q0 65 -17 124l-508 -475q68 -80 195 -80z" horiz-adv-x="1092" unicode="ø"/><glyph d="M369 942l-80 -610q-2 -13 -2 -24v-21q0 -86 42 -135.5t128 -49.5q125 0 190.5 88.5t93.5 294.5q9 54 18 132.5t19 150.5q10 84 23 174h155l-96 -678q-4 -31 -8 -53.5t-4 -32.5q0 -31 12 -42t35 -11q27 0 49 6q12 4 25 8l-21 -123q-12 -8 -26 -14q-29 -14 -74 -14 q-43 0 -66.5 22.5t-34 50t-12.5 52t-2 30.5h-12q-31 -47 -76 -84q-39 -32 -97.5 -58t-141.5 -26q-123 0 -197 74t-74 199q0 16 2 32.5t4 32.5l80 629h148zM714 1243l-84 -84l-297 299l84 84z" horiz-adv-x="1079" unicode="ù"/><glyph d="M369 942l-80 -610q-2 -13 -2 -24v-21q0 -86 42 -135.5t128 -49.5q125 0 190.5 88.5t93.5 294.5q9 54 18 132.5t19 150.5q10 84 23 174h155l-96 -678q-4 -31 -8 -53.5t-4 -32.5q0 -31 12 -42t35 -11q27 0 49 6q12 4 25 8l-21 -123q-12 -8 -26 -14q-29 -14 -74 -14 q-43 0 -66.5 22.5t-34 50t-12.5 52t-2 30.5h-12q-31 -47 -76 -84q-39 -32 -97.5 -58t-141.5 -26q-123 0 -197 74t-74 199q0 16 2 32.5t4 32.5l80 629h148zM819 1542l84 -84l-297 -299l-84 84z" horiz-adv-x="1079" unicode="ú"/><glyph d="M369 942l-80 -610q-2 -13 -2 -24v-21q0 -86 42 -135.5t128 -49.5q125 0 190.5 88.5t93.5 294.5q9 54 18 132.5t19 150.5q10 84 23 174h155l-96 -678q-4 -31 -8 -53.5t-4 -32.5q0 -31 12 -42t35 -11q27 0 49 6q12 4 25 8l-21 -123q-12 -8 -26 -14q-29 -14 -74 -14 q-43 0 -66.5 22.5t-34 50t-12.5 52t-2 30.5h-12q-31 -47 -76 -84q-39 -32 -97.5 -58t-141.5 -26q-123 0 -197 74t-74 199q0 16 2 32.5t4 32.5l80 629h148zM244 1159l358 328h127l291 -328h-168l-197 238l-245 -238h-166z" horiz-adv-x="1079" unicode="û"/><glyph d="M369 942l-80 -610q-2 -13 -2 -24v-21q0 -86 42 -135.5t128 -49.5q125 0 190.5 88.5t93.5 294.5q9 54 18 132.5t19 150.5q10 84 23 174h155l-96 -678q-4 -31 -8 -53.5t-4 -32.5q0 -31 12 -42t35 -11q27 0 49 6q12 4 25 8l-21 -123q-12 -8 -26 -14q-29 -14 -74 -14 q-43 0 -66.5 22.5t-34 50t-12.5 52t-2 30.5h-12q-31 -47 -76 -84q-39 -32 -97.5 -58t-141.5 -26q-123 0 -197 74t-74 199q0 16 2 32.5t4 32.5l80 629h148zM532 1278q0 -53 -35 -86t-86 -33q-47 0 -76.5 30t-29.5 77q0 55 33.5 87.5t84.5 32.5q48 0 78.5 -29.5t30.5 -78.5z M944 1278q0 -53 -35 -86t-84 -33t-79 30t-30 77q0 55 34 87.5t87 32.5q47 0 77 -29.5t30 -78.5z" horiz-adv-x="1079" unicode="ü"/><glyph d="M360 942l-79 -610q-2 -10 -3.5 -23.5t-1.5 -29.5q0 -80 40 -128.5t126 -48.5q66 0 114 29t83 79t57.5 117.5t34.5 145.5q4 31 11.5 78t13.5 98t12 103.5t12 94.5t9.5 67.5t3.5 27.5h155l-117 -989q-14 -123 -55 -211t-104.5 -145.5t-145.5 -85t-176 -27.5 q-110 0 -178 28.5t-109 63.5q-47 39 -69 92l102 90q19 -41 56 -73q30 -29 82.5 -51.5t130.5 -22.5q79 0 134.5 26.5t91.5 71.5t55.5 103.5t29.5 121.5q10 72 16 115t10 70q7 28 9 45q-29 -53 -72 -94q-37 -35 -93.5 -65t-135.5 -30q-129 0 -205 75t-76 202v29.5t4 31.5 l80 629h147zM810 1542l84 -84l-297 -299l-84 84z" horiz-adv-x="1044" unicode="ý"/><glyph d="M922 526q0 156 -72 235t-201 79q-69 0 -129.5 -30t-106.5 -84t-73 -132t-27 -174q0 -156 73 -236t202 -80q65 0 125.5 29t106.5 83t74 132t28 178zM53 -512l240 1968h158l-64 -495q-2 -25 -8 -50q-4 -22 -10.5 -49.5t-16.5 -54.5h10q33 43 80 80q41 31 101.5 56.5 t146.5 25.5t159 -32t124 -90.5t79.5 -138t28.5 -176.5q0 -114 -35.5 -215.5t-99 -177.5t-150.5 -120t-188 -44q-92 0 -151.5 26t-96.5 58q-43 37 -67 84h-10q0 -20 -2 -41q-2 -16 -3.5 -37.5t-3.5 -37.5q0 -11 -4 -38.5t-8 -66.5t-10 -86t-12 -96q-15 -113 -31 -252h-156z" horiz-adv-x="1174" unicode="þ"/><glyph d="M360 942l-79 -610q-2 -10 -3.5 -23.5t-1.5 -29.5q0 -80 40 -128.5t126 -48.5q66 0 114 29t83 79t57.5 117.5t34.5 145.5q4 31 11.5 78t13.5 98t12 103.5t12 94.5t9.5 67.5t3.5 27.5h155l-117 -989q-14 -123 -55 -211t-104.5 -145.5t-145.5 -85t-176 -27.5 q-110 0 -178 28.5t-109 63.5q-47 39 -69 92l102 90q19 -41 56 -73q30 -29 82.5 -51.5t130.5 -22.5q79 0 134.5 26.5t91.5 71.5t55.5 103.5t29.5 121.5q10 72 16 115t10 70q7 28 9 45q-29 -53 -72 -94q-37 -35 -93.5 -65t-135.5 -30q-129 0 -205 75t-76 202v29.5t4 31.5 l80 629h147zM530 1278q0 -53 -35 -86t-86 -33q-47 0 -76.5 30t-29.5 77q0 55 33.5 87.5t84.5 32.5q48 0 78.5 -29.5t30.5 -78.5zM942 1278q0 -53 -35 -86t-84 -33t-79 30t-30 77q0 55 34 87.5t87 32.5q47 0 77 -29.5t30 -78.5z" horiz-adv-x="1044" unicode="ÿ"/><glyph d="M29 0l596 1333h209l278 -1333h-170l-63 326h-543l-141 -326h-166zM391 469h463l-143 731zM455 1663h620l-12 -113h-620z" horiz-adv-x="1235" unicode="Ā"/><glyph d="M967 264q-4 -31 -7.5 -53.5t-3.5 -34.5q0 -33 10.5 -45t34.5 -12q13 0 25 2t23 6q12 4 24 10l-20 -127q-11 -8 -25 -16q-29 -14 -70 -14q-51 0 -78.5 27.5t-40 61t-14.5 62.5t-2 33h-12q-29 -53 -72 -94q-39 -35 -98 -65t-149 -30q-93 0 -166.5 32t-124.5 90.5t-79 141.5 t-28 183q0 117 36 216t100.5 173t153.5 115t194 41q86 0 144 -29t93 -64q41 -38 66 -90l12 4l25 154h145zM512 104q76 0 138.5 31t105.5 87.5t66.5 134t23.5 171.5q0 160 -72 235t-188 75q-78 0 -139.5 -31t-104.5 -87t-66.5 -133t-23.5 -169q0 -160 71.5 -237t188.5 -77z M353 1272h620l-12 -113h-620z" horiz-adv-x="1184" unicode="ā"/><glyph d="M29 0l596 1333h209l278 -1333h-170l-63 326h-543l-141 -326h-166zM391 469h463l-143 731zM759 1663q94 0 150.5 61.5t66.5 151.5h139q-8 -70 -35.5 -129.5t-73.5 -103.5t-112 -68.5t-147 -24.5q-166 0 -240 91t-57 235h135q-10 -90 37 -151.5t137 -61.5z" horiz-adv-x="1235" unicode="Ă"/><glyph d="M967 264q-4 -31 -7.5 -53.5t-3.5 -34.5q0 -33 10.5 -45t34.5 -12q13 0 25 2t23 6q12 4 24 10l-20 -127q-11 -8 -25 -16q-29 -14 -70 -14q-51 0 -78.5 27.5t-40 61t-14.5 62.5t-2 33h-12q-29 -53 -72 -94q-39 -35 -98 -65t-149 -30q-93 0 -166.5 32t-124.5 90.5t-79 141.5 t-28 183q0 117 36 216t100.5 173t153.5 115t194 41q86 0 144 -29t93 -64q41 -38 66 -90l12 4l25 154h145zM512 104q76 0 138.5 31t105.5 87.5t66.5 134t23.5 171.5q0 160 -72 235t-188 75q-78 0 -139.5 -31t-104.5 -87t-66.5 -133t-23.5 -169q0 -160 71.5 -237t188.5 -77z M637 1272q94 0 150.5 61.5t66.5 151.5h139q-8 -70 -35.5 -129.5t-73.5 -103.5t-112 -68.5t-147 -24.5q-166 0 -240 91t-57 235h135q-10 -90 37 -151.5t137 -61.5z" horiz-adv-x="1184" unicode="ă"/><glyph d="M1087 18q-260 -116 -260 -227q0 -102 88 -102q59 0 111 43l51 -76q-78 -64 -166 -64q-211 0 -211 181q0 121 201 227q34 20 69 35zM29 0l596 1333h209l278 -1333h-170l-63 326h-543l-141 -326h-166zM391 469h463l-143 731z" horiz-adv-x="1235" unicode="Ą"/><glyph d="M967 264q-4 -31 -7.5 -53.5t-3.5 -34.5q0 -33 10.5 -45t34.5 -12q13 0 25 2t23 6q12 4 24 10l-20 -127q-11 -8 -25 -16q-29 -14 -70 -14q-51 0 -78.5 27.5t-40 61t-14.5 62.5t-2 33h-12q-29 -53 -72 -94q-39 -35 -98 -65t-149 -30q-93 0 -166.5 32t-124.5 90.5t-79 141.5 t-28 183q0 117 36 216t100.5 173t153.5 115t194 41q86 0 144 -29t93 -64q41 -38 66 -90l12 4l25 154h145zM512 104q76 0 138.5 31t105.5 87.5t66.5 134t23.5 171.5q0 160 -72 235t-188 75q-78 0 -139.5 -31t-104.5 -87t-66.5 -133t-23.5 -169q0 -160 71.5 -237t188.5 -77z M1049 18q-260 -116 -260 -227q0 -102 88 -102q59 0 111 43l51 -76q-78 -64 -166 -64q-211 0 -211 181q0 121 201 227q34 20 69 35z" horiz-adv-x="1184" unicode="ą"/><glyph d="M1055 1030q-17 76 -87.5 134.5t-199.5 58.5q-113 0 -199 -52.5t-144 -144.5t-88 -216t-30 -265q0 -99 21.5 -178.5t64.5 -136t108.5 -88t153.5 -31.5q148 0 232 61t114 150l125 -82q-32 -56 -75 -104t-101.5 -84t-133.5 -56.5t-171 -20.5q-113 0 -206 38t-159.5 111 t-103.5 177.5t-37 239.5q0 186 51.5 336.5t139.5 257t201.5 165t240.5 58.5q92 0 163 -20.5t123 -55.5t88 -80t58 -96zM1032 1933l84 -84l-297 -299l-84 84z" horiz-adv-x="1266" unicode="Ć"/><glyph d="M797 694q-17 60 -70 102t-149 42q-80 0 -140.5 -34t-102.5 -92.5t-63.5 -134t-21.5 -161.5q0 -154 67.5 -233t196.5 -79q94 0 152.5 35t83.5 84l114 -92q-41 -63 -128 -109.5t-212 -46.5q-92 0 -171 27t-137 82t-91 139t-33 199q0 119 37 219t102.5 173t154.5 113t194 40 q135 0 216 -52.5t115 -128.5zM803 1542l84 -84l-297 -299l-84 84z" horiz-adv-x="973" unicode="ć"/><glyph d="M1055 1030q-17 76 -87.5 134.5t-199.5 58.5q-113 0 -199 -52.5t-144 -144.5t-88 -216t-30 -265q0 -99 21.5 -178.5t64.5 -136t108.5 -88t153.5 -31.5q148 0 232 61t114 150l125 -82q-32 -56 -75 -104t-101.5 -84t-133.5 -56.5t-171 -20.5q-113 0 -206 38t-159.5 111 t-103.5 177.5t-37 239.5q0 186 51.5 336.5t139.5 257t201.5 165t240.5 58.5q92 0 163 -20.5t123 -55.5t88 -80t58 -96zM439 1550l358 328h127l291 -328h-168l-197 238l-245 -238h-166z" horiz-adv-x="1266" unicode="Ĉ"/><glyph d="M797 694q-17 60 -70 102t-149 42q-80 0 -140.5 -34t-102.5 -92.5t-63.5 -134t-21.5 -161.5q0 -154 67.5 -233t196.5 -79q94 0 152.5 35t83.5 84l114 -92q-41 -63 -128 -109.5t-212 -46.5q-92 0 -171 27t-137 82t-91 139t-33 199q0 119 37 219t102.5 173t154.5 113t194 40 q135 0 216 -52.5t115 -128.5zM247 1159l358 328h127l291 -328h-168l-197 238l-245 -238h-166z" horiz-adv-x="973" unicode="ĉ"/><glyph d="M1055 1030q-17 76 -87.5 134.5t-199.5 58.5q-113 0 -199 -52.5t-144 -144.5t-88 -216t-30 -265q0 -99 21.5 -178.5t64.5 -136t108.5 -88t153.5 -31.5q148 0 232 61t114 150l125 -82q-32 -56 -75 -104t-101.5 -84t-133.5 -56.5t-171 -20.5q-113 0 -206 38t-159.5 111 t-103.5 177.5t-37 239.5q0 186 51.5 336.5t139.5 257t201.5 165t240.5 58.5q92 0 163 -20.5t123 -55.5t88 -80t58 -96zM910 1673q0 -57 -35 -90t-82 -33q-43 0 -77.5 33t-34.5 90q0 53 34.5 85t77.5 32q47 0 82 -32t35 -85z" horiz-adv-x="1266" unicode="Ċ"/><glyph d="M797 694q-17 60 -70 102t-149 42q-80 0 -140.5 -34t-102.5 -92.5t-63.5 -134t-21.5 -161.5q0 -154 67.5 -233t196.5 -79q94 0 152.5 35t83.5 84l114 -92q-41 -63 -128 -109.5t-212 -46.5q-92 0 -171 27t-137 82t-91 139t-33 199q0 119 37 219t102.5 173t154.5 113t194 40 q135 0 216 -52.5t115 -128.5zM723 1282q0 -57 -35 -90t-82 -33q-43 0 -77.5 33t-34.5 90q0 53 34.5 85t77.5 32q47 0 82 -32t35 -85z" horiz-adv-x="973" unicode="ċ"/><glyph d="M1055 1030q-17 76 -87.5 134.5t-199.5 58.5q-113 0 -199 -52.5t-144 -144.5t-88 -216t-30 -265q0 -99 21.5 -178.5t64.5 -136t108.5 -88t153.5 -31.5q148 0 232 61t114 150l125 -82q-32 -56 -75 -104t-101.5 -84t-133.5 -56.5t-171 -20.5q-113 0 -206 38t-159.5 111 t-103.5 177.5t-37 239.5q0 186 51.5 336.5t139.5 257t201.5 165t240.5 58.5q92 0 163 -20.5t123 -55.5t88 -80t58 -96zM1223 1878l-360 -328h-129l-287 328h164l198 -238l246 238h168z" horiz-adv-x="1266" unicode="Č"/><glyph d="M797 694q-17 60 -70 102t-149 42q-80 0 -140.5 -34t-102.5 -92.5t-63.5 -134t-21.5 -161.5q0 -154 67.5 -233t196.5 -79q94 0 152.5 35t83.5 84l114 -92q-41 -63 -128 -109.5t-212 -46.5q-92 0 -171 27t-137 82t-91 139t-33 199q0 119 37 219t102.5 173t154.5 113t194 40 q135 0 216 -52.5t115 -128.5zM1024 1487l-360 -328h-129l-287 328h164l198 -238l246 238h168z" horiz-adv-x="973" unicode="č"/><glyph d="M129 0l162 1333h395q277 0 418 -143t141 -412q0 -184 -51 -329.5t-143.5 -245t-221.5 -151.5t-284 -52h-416zM565 135q240 0 376 160t136 481q0 207 -93 314.5t-292 107.5h-256l-129 -1063h258zM1165 1878l-360 -328h-129l-287 328h164l198 -238l246 238h168z" horiz-adv-x="1358" unicode="Ď"/><glyph d="M514 102q70 0 133.5 28t109.5 80t73.5 129t27.5 175q0 162 -70.5 243t-191.5 81q-72 0 -134.5 -28t-108.5 -80t-73.5 -129t-27.5 -175q0 -162 70.5 -243t191.5 -81zM1120 1456q-37 -303 -69 -559q-15 -109 -28 -219.5t-25.5 -205.5t-20.5 -169t-12 -108q-2 -15 -3 -29 t-1 -35q0 -53 6 -90q2 -23 6 -41h-142q-4 14 -8 33q-6 30 -6 73v14t2 15h-10q-33 -45 -80 -80q-41 -30 -100.5 -55t-139.5 -25q-90 0 -162.5 31t-124.5 89.5t-81 140t-29 184.5q0 117 37 217t102.5 173t153.5 115t193 42q81 0 139.5 -27t93.5 -57q41 -37 68 -84h10 q12 135 26 262q7 53 13 109.5t12 108.5t12 98t13 79h155zM1301 1128l88 351l147 -23l-127 -340z" horiz-adv-x="1192" unicode="ď"/><glyph d="M170 0l72 606h-181l15 127h182l74 600h375q276 0 417.5 -143t141.5 -412q0 -184 -51.5 -329.5t-143.5 -245t-221 -151.5t-285 -52h-395zM586 135q239 0 375.5 160t136.5 481q0 207 -93.5 314.5t-291.5 107.5h-236l-57 -465h270l-14 -127h-273l-55 -471h238z" horiz-adv-x="1378" unicode="Đ"/><glyph d="M1120 1456q-4 -26 -8 -59q-4 -29 -8 -68t-10 -86h131l-15 -127h-133q-16 -125 -33.5 -267t-34 -273.5t-28.5 -233.5t-16 -147q-2 -15 -3 -29t-1 -35q0 -53 6 -90q2 -23 6 -41h-142q-4 14 -8 33q-6 30 -6 73v14t2 15h-10q-33 -45 -80 -80q-41 -30 -100.5 -55t-139.5 -25 q-90 0 -162.5 31t-124.5 89.5t-81 140t-29 184.5q0 117 37 217t102.5 173t153.5 115t193 42q81 0 139.5 -27t93.5 -57q41 -37 68 -84h10q4 47 10 100q4 45 10 101.5t13 115.5h-285l14 127h285l29 213h155zM514 102q70 0 133.5 28t109.5 80t73.5 129t27.5 175 q0 162 -70.5 243t-191.5 81q-72 0 -134.5 -28t-108.5 -80t-73.5 -129t-27.5 -175q0 -162 70.5 -243t191.5 -81z" horiz-adv-x="1151" unicode="đ"/><glyph d="M436 1198l-55 -459h561l-16 -135h-561l-58 -469h647l-16 -135h-809l162 1333h782l-16 -135h-621zM414 1663h620l-12 -113h-620z" horiz-adv-x="1122" unicode="Ē"/><glyph d="M254 463q-2 -19 -2 -35v-31q0 -151 66.5 -221t191.5 -70q98 0 161.5 35t90.5 82l112 -92q-38 -65 -132.5 -110.5t-223.5 -45.5q-106 0 -185 32t-132.5 89.5t-80 137t-26.5 178.5q0 102 30 201.5t89 178t148.5 127t209.5 48.5q93 0 159.5 -30t109.5 -81t63.5 -120.5 t20.5 -151.5q0 -23 -3 -55.5t-10 -65.5h-657zM551 854q-113 0 -183.5 -68.5t-95.5 -201.5h504v10q0 4 1 10t1 14q0 27 -8 68t-31.5 78t-68.5 63.5t-119 26.5zM301 1272h620l-12 -113h-620z" horiz-adv-x="1024" unicode="ē"/><glyph d="M436 1198l-55 -459h561l-16 -135h-561l-58 -469h647l-16 -135h-809l162 1333h782l-16 -135h-621zM719 1663q94 0 150.5 61.5t66.5 151.5h139q-8 -70 -35.5 -129.5t-73.5 -103.5t-112 -68.5t-147 -24.5q-166 0 -240 91t-57 235h135q-10 -90 37 -151.5t137 -61.5z" horiz-adv-x="1122" unicode="Ĕ"/><glyph d="M254 463q-2 -19 -2 -35v-31q0 -151 66.5 -221t191.5 -70q98 0 161.5 35t90.5 82l112 -92q-38 -65 -132.5 -110.5t-223.5 -45.5q-106 0 -185 32t-132.5 89.5t-80 137t-26.5 178.5q0 102 30 201.5t89 178t148.5 127t209.5 48.5q93 0 159.5 -30t109.5 -81t63.5 -120.5 t20.5 -151.5q0 -23 -3 -55.5t-10 -65.5h-657zM551 854q-113 0 -183.5 -68.5t-95.5 -201.5h504v10q0 4 1 10t1 14q0 27 -8 68t-31.5 78t-68.5 63.5t-119 26.5zM616 1272q94 0 150.5 61.5t66.5 151.5h139q-8 -70 -35.5 -129.5t-73.5 -103.5t-112 -68.5t-147 -24.5 q-166 0 -240 91t-57 235h135q-10 -90 37 -151.5t137 -61.5z" horiz-adv-x="1024" unicode="ĕ"/><glyph d="M436 1198l-55 -459h561l-16 -135h-561l-58 -469h647l-16 -135h-809l162 1333h782l-16 -135h-621zM832 1673q0 -57 -35 -90t-82 -33q-43 0 -77.5 33t-34.5 90q0 53 34.5 85t77.5 32q47 0 82 -32t35 -85z" horiz-adv-x="1122" unicode="Ė"/><glyph d="M254 463q-2 -19 -2 -35v-31q0 -151 66.5 -221t191.5 -70q98 0 161.5 35t90.5 82l112 -92q-38 -65 -132.5 -110.5t-223.5 -45.5q-106 0 -185 32t-132.5 89.5t-80 137t-26.5 178.5q0 102 30 201.5t89 178t148.5 127t209.5 48.5q93 0 159.5 -30t109.5 -81t63.5 -120.5 t20.5 -151.5q0 -23 -3 -55.5t-10 -65.5h-657zM551 854q-113 0 -183.5 -68.5t-95.5 -201.5h504v10q0 4 1 10t1 14q0 27 -8 68t-31.5 78t-68.5 63.5t-119 26.5zM723 1282q0 -57 -35 -90t-82 -33q-43 0 -77.5 33t-34.5 90q0 53 34.5 85t77.5 32q47 0 82 -32t35 -85z" horiz-adv-x="1024" unicode="ė"/><glyph d="M436 1198l-55 -459h561l-16 -135h-561l-58 -469h647l-16 -135h-809l162 1333h782l-16 -135h-621zM920 18q-260 -116 -260 -227q0 -102 88 -102q59 0 111 43l51 -76q-78 -64 -166 -64q-211 0 -211 181q0 121 201 227q34 20 69 35z" horiz-adv-x="1122" unicode="Ę"/><glyph d="M254 463q-2 -19 -2 -35v-31q0 -151 66.5 -221t191.5 -70q98 0 161.5 35t90.5 82l112 -92q-38 -65 -132.5 -110.5t-223.5 -45.5q-106 0 -185 32t-132.5 89.5t-80 137t-26.5 178.5q0 102 30 201.5t89 178t148.5 127t209.5 48.5q93 0 159.5 -30t109.5 -81t63.5 -120.5 t20.5 -151.5q0 -23 -3 -55.5t-10 -65.5h-657zM551 854q-113 0 -183.5 -68.5t-95.5 -201.5h504v10q0 4 1 10t1 14q0 27 -8 68t-31.5 78t-68.5 63.5t-119 26.5zM702 18q-260 -116 -260 -227q0 -102 88 -102q59 0 111 43l51 -76q-78 -64 -166 -64q-211 0 -211 181 q0 121 201 227q34 20 69 35z" horiz-adv-x="1024" unicode="ę"/><glyph d="M436 1198l-55 -459h561l-16 -135h-561l-58 -469h647l-16 -135h-809l162 1333h782l-16 -135h-621zM1128 1878l-360 -328h-129l-287 328h164l198 -238l246 238h168z" horiz-adv-x="1122" unicode="Ě"/><glyph d="M254 463q-2 -19 -2 -35v-31q0 -151 66.5 -221t191.5 -70q98 0 161.5 35t90.5 82l112 -92q-38 -65 -132.5 -110.5t-223.5 -45.5q-106 0 -185 32t-132.5 89.5t-80 137t-26.5 178.5q0 102 30 201.5t89 178t148.5 127t209.5 48.5q93 0 159.5 -30t109.5 -81t63.5 -120.5 t20.5 -151.5q0 -23 -3 -55.5t-10 -65.5h-657zM551 854q-113 0 -183.5 -68.5t-95.5 -201.5h504v10q0 4 1 10t1 14q0 27 -8 68t-31.5 78t-68.5 63.5t-119 26.5zM1009 1487l-360 -328h-129l-287 328h164l198 -238l246 238h168z" horiz-adv-x="1024" unicode="ě"/><glyph d="M1223 670l-82 -670h-121l6 156h-8q-27 -52 -72 -90q-41 -35 -105.5 -63t-166.5 -28q-117 0 -216.5 39t-170 111t-110.5 176.5t-40 237.5q0 141 40 286.5t122 264t207 193.5t295 75q94 0 164.5 -19.5t122 -52.5t87 -76t62.5 -90l-150 -82q-12 39 -33.5 73t-56 58.5t-85 39 t-117.5 14.5q-123 0 -215.5 -54.5t-153.5 -144.5t-91 -210t-30 -251q0 -215 89 -333.5t278 -118.5q76 0 140.5 19.5t112.5 54t75.5 81.5t33.5 103l17 166h-361l17 135h516zM442 1550l358 328h127l291 -328h-168l-197 238l-245 -238h-166z" horiz-adv-x="1341" unicode="Ĝ"/><glyph d="M434 -516q-119 0 -197.5 29.5t-126 67.5t-69 72t-23.5 42l111 92q2 -6 20.5 -34.5t55.5 -59.5t96 -55.5t145 -24.5q254 0 304 303q4 29 10 66.5t12 73.5t10 60.5t4 26.5h-10q-28 -47 -71 -84q-37 -32 -93.5 -58t-136.5 -26q-88 0 -158.5 33t-120 91.5t-75 140.5 t-25.5 180q0 117 35 217t98.5 173t148.5 115t187 42q84 0 138.5 -29t87.5 -64q36 -38 59 -90l12 4l23 154h145l-115 -932q-34 -280 -158 -403t-323 -123zM504 104q67 0 125.5 28t101.5 81t67.5 131t24.5 178q0 164 -63.5 240t-173.5 76q-72 0 -132.5 -31t-105.5 -86 t-69.5 -133t-24.5 -172q0 -164 69.5 -238t180.5 -74zM258 1159l358 328h127l291 -328h-168l-197 238l-245 -238h-166z" horiz-adv-x="1124" unicode="ĝ"/><glyph d="M1223 670l-82 -670h-121l6 156h-8q-27 -52 -72 -90q-41 -35 -105.5 -63t-166.5 -28q-117 0 -216.5 39t-170 111t-110.5 176.5t-40 237.5q0 141 40 286.5t122 264t207 193.5t295 75q94 0 164.5 -19.5t122 -52.5t87 -76t62.5 -90l-150 -82q-12 39 -33.5 73t-56 58.5t-85 39 t-117.5 14.5q-123 0 -215.5 -54.5t-153.5 -144.5t-91 -210t-30 -251q0 -215 89 -333.5t278 -118.5q76 0 140.5 19.5t112.5 54t75.5 81.5t33.5 103l17 166h-361l17 135h516zM823 1663q94 0 150.5 61.5t66.5 151.5h139q-8 -70 -35.5 -129.5t-73.5 -103.5t-112 -68.5 t-147 -24.5q-166 0 -240 91t-57 235h135q-10 -90 37 -151.5t137 -61.5z" horiz-adv-x="1341" unicode="Ğ"/><glyph d="M434 -516q-119 0 -197.5 29.5t-126 67.5t-69 72t-23.5 42l111 92q2 -6 20.5 -34.5t55.5 -59.5t96 -55.5t145 -24.5q254 0 304 303q4 29 10 66.5t12 73.5t10 60.5t4 26.5h-10q-28 -47 -71 -84q-37 -32 -93.5 -58t-136.5 -26q-88 0 -158.5 33t-120 91.5t-75 140.5 t-25.5 180q0 117 35 217t98.5 173t148.5 115t187 42q84 0 138.5 -29t87.5 -64q36 -38 59 -90l12 4l23 154h145l-115 -932q-34 -280 -158 -403t-323 -123zM504 104q67 0 125.5 28t101.5 81t67.5 131t24.5 178q0 164 -63.5 240t-173.5 76q-72 0 -132.5 -31t-105.5 -86 t-69.5 -133t-24.5 -172q0 -164 69.5 -238t180.5 -74zM640 1272q94 0 150.5 61.5t66.5 151.5h139q-8 -70 -35.5 -129.5t-73.5 -103.5t-112 -68.5t-147 -24.5q-166 0 -240 91t-57 235h135q-10 -90 37 -151.5t137 -61.5z" horiz-adv-x="1124" unicode="ğ"/><glyph d="M1223 670l-82 -670h-121l6 156h-8q-27 -52 -72 -90q-41 -35 -105.5 -63t-166.5 -28q-117 0 -216.5 39t-170 111t-110.5 176.5t-40 237.5q0 141 40 286.5t122 264t207 193.5t295 75q94 0 164.5 -19.5t122 -52.5t87 -76t62.5 -90l-150 -82q-12 39 -33.5 73t-56 58.5t-85 39 t-117.5 14.5q-123 0 -215.5 -54.5t-153.5 -144.5t-91 -210t-30 -251q0 -215 89 -333.5t278 -118.5q76 0 140.5 19.5t112.5 54t75.5 81.5t33.5 103l17 166h-361l17 135h516zM940 1673q0 -57 -35 -90t-82 -33q-43 0 -77.5 33t-34.5 90q0 53 34.5 85t77.5 32q47 0 82 -32 t35 -85z" horiz-adv-x="1341" unicode="Ġ"/><glyph d="M434 -516q-119 0 -197.5 29.5t-126 67.5t-69 72t-23.5 42l111 92q2 -6 20.5 -34.5t55.5 -59.5t96 -55.5t145 -24.5q254 0 304 303q4 29 10 66.5t12 73.5t10 60.5t4 26.5h-10q-28 -47 -71 -84q-37 -32 -93.5 -58t-136.5 -26q-88 0 -158.5 33t-120 91.5t-75 140.5 t-25.5 180q0 117 35 217t98.5 173t148.5 115t187 42q84 0 138.5 -29t87.5 -64q36 -38 59 -90l12 4l23 154h145l-115 -932q-34 -280 -158 -403t-323 -123zM504 104q67 0 125.5 28t101.5 81t67.5 131t24.5 178q0 164 -63.5 240t-173.5 76q-72 0 -132.5 -31t-105.5 -86 t-69.5 -133t-24.5 -172q0 -164 69.5 -238t180.5 -74zM756 1282q0 -57 -35 -90t-82 -33q-43 0 -77.5 33t-34.5 90q0 53 34.5 85t77.5 32q47 0 82 -32t35 -85z" horiz-adv-x="1124" unicode="ġ"/><glyph d="M1223 670l-82 -670h-121l6 156h-8q-27 -52 -72 -90q-41 -35 -105.5 -63t-166.5 -28q-117 0 -216.5 39t-170 111t-110.5 176.5t-40 237.5q0 141 40 286.5t122 264t207 193.5t295 75q94 0 164.5 -19.5t122 -52.5t87 -76t62.5 -90l-150 -82q-12 39 -33.5 73t-56 58.5t-85 39 t-117.5 14.5q-123 0 -215.5 -54.5t-153.5 -144.5t-91 -210t-30 -251q0 -215 89 -333.5t278 -118.5q76 0 140.5 19.5t112.5 54t75.5 81.5t33.5 103l17 166h-361l17 135h516zM484 -510l37 309l149 -22l-75 -299z" horiz-adv-x="1341" unicode="Ģ"/><glyph d="M434 -516q-119 0 -197.5 29.5t-126 67.5t-69 72t-23.5 42l111 92q2 -6 20.5 -34.5t55.5 -59.5t96 -55.5t145 -24.5q254 0 304 303q4 29 10 66.5t12 73.5t10 60.5t4 26.5h-10q-28 -47 -71 -84q-37 -32 -93.5 -58t-136.5 -26q-88 0 -158.5 33t-120 91.5t-75 140.5 t-25.5 180q0 117 35 217t98.5 173t148.5 115t187 42q84 0 138.5 -29t87.5 -64q36 -38 59 -90l12 4l23 154h145l-115 -932q-34 -280 -158 -403t-323 -123zM504 104q67 0 125.5 28t101.5 81t67.5 131t24.5 178q0 164 -63.5 240t-173.5 76q-72 0 -132.5 -31t-105.5 -86 t-69.5 -133t-24.5 -172q0 -164 69.5 -238t180.5 -74zM739 1487l-37 -309l-149 22l75 299z" horiz-adv-x="1124" unicode="ģ"/><glyph d="M1305 1333l-162 -1333h-162l74 602h-690l-74 -602h-162l162 1333h162l-72 -596h690l72 596h162zM443 1550l358 328h127l291 -328h-168l-197 238l-245 -238h-166z" horiz-adv-x="1372" unicode="Ĥ"/><glyph d="M320 1550l358 328h127l291 -328h-168l-197 238l-245 -238h-166zM862 -18q-135 0 -135 137q0 28 6 59q10 60 19.5 109t18.5 97t19.5 100.5t22.5 115.5q6 33 6 64q0 88 -48 132t-134 44q-123 0 -202 -91.5t-105 -283.5q-2 -19 -6.5 -47.5t-8.5 -65.5t-8 -76.5t-8 -78.5 q-10 -93 -20 -197h-156l161 1333h156l-80 -567h11q32 55 82 100q41 37 103 69t149 32q131 0 197.5 -73t66.5 -189q0 -35 -6 -72q-25 -146 -47.5 -249t-41.5 -200q-2 -10 -2 -20q0 -35 14.5 -45t39.5 -10q20 0 41 4q8 2 16 6l-18 -117q-13 -6 -29 -10q-31 -10 -74 -10z" horiz-adv-x="1112" unicode="ĥ"/><glyph d="M92 1047h184l35 286h162l-35 -286h690l35 286h162l-35 -286h183l-15 -127h-184l-111 -920h-162l64 520h-690l-64 -520h-161l110 920h-182zM1081 655l31 265h-690l-31 -265h690z" horiz-adv-x="1413" unicode="Ħ"/><glyph d="M862 -18q-135 0 -135 137q0 28 6 59q10 60 19.5 109t18.5 97t19.5 100.5t22.5 115.5q6 33 6 64q0 88 -48 132t-134 44q-123 0 -202 -91.5t-105 -283.5q-2 -19 -6.5 -47.5t-8.5 -65.5t-8 -76.5t-8 -78.5q-10 -93 -20 -197h-156l135 1116h-129l14 127h129l27 213h156 l-29 -213h291l-15 -127h-294l-48 -350h11q32 55 82 100q41 37 103 69t149 32q131 0 197.5 -73t66.5 -189q0 -35 -6 -72q-25 -146 -47.5 -249t-41.5 -200q-2 -10 -2 -20q0 -35 14.5 -45t39.5 -10q20 0 41 4q8 2 16 6l-18 -117q-13 -6 -29 -10q-31 -10 -74 -10z" horiz-adv-x="1112" unicode="ħ"/><glyph d="M129 0l162 1333h162l-162 -1333h-162zM295 1783q32 0 64 -15.5t60.5 -34.5t52.5 -34.5t42 -15.5q17 0 28 9t17.5 23t10.5 32.5t7 37.5l113 -43q4 -30 -4 -63.5t-28.5 -61.5t-52.5 -46.5t-75 -18.5q-33 0 -64 15.5t-59 34.5t-52.5 34.5t-43.5 15.5q-15 0 -25.5 -8.5 t-17.5 -22.5t-12 -32.5t-9 -38.5l-112 43q-2 40 9.5 75t33 60.5t51.5 40t66 14.5z" horiz-adv-x="520" unicode="Ĩ"/><glyph d="M293 -18q-88 0 -122 43t-34 100q0 14 1 28.5t3 24.5l107 764h155l-100 -700q-4 -31 -6 -52.5t-2 -31.5q0 -54 51 -54q12 0 24.5 2.5t22.5 6.5q13 4 25 10l-19 -113q-10 -8 -24 -14q-29 -14 -82 -14zM260 1392q29 0 58 -15.5t55 -34.5t48 -34.5t38 -15.5q17 0 28 9 t17.5 23t10.5 32.5t7 37.5l113 -43q4 -30 -4 -63.5t-28.5 -61.5t-52.5 -46.5t-75 -18.5q-30 0 -58 15.5t-53.5 34.5t-48 34.5t-39.5 15.5q-15 0 -25.5 -8.5t-17.5 -22.5t-12 -32.5t-9 -38.5l-112 43q-2 40 9.5 75t33 60.5t51.5 40t66 14.5z" horiz-adv-x="522" unicode="ĩ"/><glyph d="M129 0l162 1333h162l-162 -1333h-162zM102 1663h620l-12 -113h-620z" horiz-adv-x="520" unicode="Ī"/><glyph d="M293 -18q-88 0 -122 43t-34 100q0 14 1 28.5t3 24.5l107 764h155l-100 -700q-4 -31 -6 -52.5t-2 -31.5q0 -54 51 -54q12 0 24.5 2.5t22.5 6.5q13 4 25 10l-19 -113q-10 -8 -24 -14q-29 -14 -82 -14zM74 1272h560l-12 -113h-560z" horiz-adv-x="522" unicode="ī"/><glyph d="M129 0l162 1333h162l-162 -1333h-162zM406 1663q94 0 150.5 61.5t66.5 151.5h139q-8 -70 -35.5 -129.5t-73.5 -103.5t-112 -68.5t-147 -24.5q-166 0 -240 91t-57 235h135q-10 -90 37 -151.5t137 -61.5z" horiz-adv-x="520" unicode="Ĭ"/><glyph d="M293 -18q-88 0 -122 43t-34 100q0 14 1 28.5t3 24.5l107 764h155l-100 -700q-4 -31 -6 -52.5t-2 -31.5q0 -54 51 -54q12 0 24.5 2.5t22.5 6.5q13 4 25 10l-19 -113q-10 -8 -24 -14q-29 -14 -82 -14zM364 1272q80 0 127 53t53 130h139q-6 -64 -30.5 -118t-66 -94t-101 -62 t-133.5 -22q-151 0 -219 82.5t-53 213.5h133q-8 -77 33.5 -130t117.5 -53z" horiz-adv-x="522" unicode="ĭ"/><glyph d="M129 0l162 1333h162l-162 -1333h-162zM290 18q-260 -116 -260 -227q0 -102 88 -102q59 0 111 43l51 -76q-78 -64 -166 -64q-211 0 -211 181q0 121 201 227q34 20 69 35z" horiz-adv-x="520" unicode="Į"/><glyph d="M391 18q-260 -116 -260 -227q0 -102 88 -102q59 0 111 43l51 -76q-78 -64 -166 -64q-211 0 -211 181q0 121 201 227q34 20 69 35zM293 -18q-88 0 -122 43t-34 100q0 14 1 28.5t3 24.5l107 764h155l-100 -700q-4 -31 -6 -52.5t-2 -31.5q0 -54 51 -54q12 0 24.5 2.5 t22.5 6.5q13 4 25 10l-19 -113q-10 -8 -24 -14q-29 -14 -82 -14zM482 1282q0 -57 -35 -90t-82 -33q-43 0 -77.5 33t-34.5 90q0 53 34.5 85t77.5 32q47 0 82 -32t35 -85z" horiz-adv-x="522" unicode="į"/><glyph d="M129 0l162 1333h162l-162 -1333h-162zM526 1673q0 -57 -35 -90t-82 -33q-43 0 -77.5 33t-34.5 90q0 53 34.5 85t77.5 32q47 0 82 -32t35 -85z" horiz-adv-x="520" unicode="İ"/><glyph d="M293 -18q-88 0 -122 43t-34 100q0 14 1 28.5t3 24.5l107 764h155l-100 -700q-4 -31 -6 -52.5t-2 -31.5q0 -54 51 -54q12 0 24.5 2.5t22.5 6.5q13 4 25 10l-19 -113q-10 -8 -24 -14q-29 -14 -82 -14z" horiz-adv-x="522" unicode="ı"/><glyph d="M129 0l162 1333h162l-162 -1333h-162zM1274 1333l-111 -903q-27 -219 -121 -337t-287 -118q-114 0 -200 41t-121 101l127 96q22 -43 67.5 -72.5t110.5 -29.5q117 0 179.5 77.5t80.5 237.5l111 907h164z" horiz-adv-x="1337" unicode="Ĳ"/><glyph d="M293 -18q-88 0 -122 43t-34 100q0 14 1 28.5t3 24.5l107 764h155l-100 -700q-4 -31 -6 -52.5t-2 -31.5q0 -54 51 -54q12 0 24.5 2.5t22.5 6.5q13 4 25 10l-19 -113q-10 -8 -24 -14q-29 -14 -82 -14zM482 1282q0 -57 -35 -90t-82 -33q-43 0 -77.5 33t-34.5 90 q0 53 34.5 85t77.5 32q47 0 82 -32t35 -85zM997 1282q0 -57 -35 -90t-82 -33q-43 0 -77.5 33t-34.5 90q0 53 34.5 85t77.5 32q47 0 82 -32t35 -85zM368 -334q17 -10 41.5 -19t61.5 -9q20 0 43.5 5t45 20t38 45t22.5 79l150 1155h153l-151 -1192q-8 -65 -35 -112.5t-66.5 -79 t-89 -47t-102.5 -15.5q-47 0 -82 10.5t-57 24.5z" horiz-adv-x="1044" unicode="ĳ"/><glyph d="M795 1333l-111 -903q-27 -219 -121 -337t-287 -118q-114 0 -200 41t-121 101l127 96q22 -43 67.5 -72.5t110.5 -29.5q117 0 179.5 77.5t80.5 237.5l111 907h164zM363 1550l358 328h127l291 -328h-168l-197 238l-245 -238h-166z" horiz-adv-x="858" unicode="Ĵ"/><glyph d="M-154 -334q17 -10 41.5 -19t61.5 -9q20 0 43.5 5t45 20t38 45t22.5 79l150 1155h153l-151 -1192q-8 -65 -35 -112.5t-66.5 -79t-89 -47t-102.5 -15.5q-47 0 -82 10.5t-57 24.5zM64 1159l276 328h127l209 -328h-147l-136 238l-184 -238h-145z" horiz-adv-x="522" unicode="ĵ"/><glyph d="M377 702l618 631h211l-588 -610l467 -723h-208l-383 633l-142 -129l-61 -504h-162l162 1333h162zM402 -510l37 309l149 -22l-75 -299z" horiz-adv-x="1188" unicode="Ķ"/><glyph d="M809 942h195l-433 -420l371 -522h-192l-299 438l-134 -116l-38 -322h-156l176 1456h156l-121 -973zM357 -510l37 309l149 -22l-75 -299z" horiz-adv-x="1034" unicode="ķ"/><glyph d="M809 942h195l-433 -420l367 -522h-188l-299 440l-134 -118l-38 -322h-156l113 942h155l-57 -459z" horiz-adv-x="1034" unicode="ĸ"/><glyph d="M453 1333l-146 -1198h606l-16 -135h-768l162 1333h162zM824 1933l84 -84l-297 -299l-84 84z" horiz-adv-x="999" unicode="Ĺ"/><glyph d="M609 1933l84 -84l-297 -299l-84 84zM272 1333h155l-142 -1091q-4 -31 -6.5 -52.5t-2.5 -31.5q0 -27 23 -40.5t45 -13.5q16 0 31.5 4.5t27.5 8.5q15 6 29 12l-14 -113q-17 -10 -35 -18q-16 -6 -36.5 -11t-47.5 -5q-100 0 -139 48t-39 111v19t2 18z" horiz-adv-x="532" unicode="ĺ"/><glyph d="M453 1333l-146 -1198h606l-16 -135h-768l162 1333h162zM374 -510l37 309l149 -22l-75 -299z" horiz-adv-x="999" unicode="Ļ"/><glyph d="M287 1456h155l-157 -1214q-4 -31 -6.5 -52.5t-2.5 -31.5q0 -27 23 -40.5t45 -13.5q16 0 31.5 4.5t27.5 8.5q15 6 29 12l-14 -113q-17 -10 -35 -18q-16 -6 -36.5 -11t-47.5 -5q-100 0 -139 48t-39 111v19t2 18zM84 -510l37 309l149 -22l-75 -299z" horiz-adv-x="532" unicode="ļ"/><glyph d="M453 1333l-146 -1198h606l-16 -135h-768l162 1333h162zM814 1005l88 351l147 -23l-127 -340z" horiz-adv-x="999" unicode="Ľ"/><glyph d="M287 1456h155l-157 -1214q-4 -31 -6.5 -52.5t-2.5 -31.5q0 -27 23 -40.5t45 -13.5q16 0 31.5 4.5t27.5 8.5q15 6 29 12l-14 -113q-17 -10 -35 -18q-16 -6 -36.5 -11t-47.5 -5q-100 0 -139 48t-39 111v19t2 18zM621 1128l88 351l147 -23l-127 -340z" horiz-adv-x="573" unicode="ľ"/><glyph d="M453 1333l-146 -1198h606l-16 -135h-768l162 1333h162zM814 734q0 -52 -34 -89.5t-87 -37.5q-47 0 -76 31.5t-29 78.5q0 54 33 91.5t86 37.5q47 0 77 -31.5t30 -80.5z" horiz-adv-x="999" unicode="Ŀ"/><glyph d="M287 1456h155l-157 -1214q-4 -31 -6.5 -52.5t-2.5 -31.5q0 -27 23 -40.5t45 -13.5q16 0 31.5 4.5t27.5 8.5q15 6 29 12l-14 -113q-17 -10 -35 -18q-16 -6 -36.5 -11t-47.5 -5q-100 0 -139 48t-39 111v19t2 18zM789 734q0 -52 -34 -89.5t-87 -37.5q-47 0 -76 31.5 t-29 78.5q0 54 33 91.5t86 37.5q47 0 77 -31.5t30 -80.5z" horiz-adv-x="840" unicode="ŀ"/><glyph d="M70 688l147 39l74 606h162l-68 -561l225 66l-16 -129l-225 -62l-62 -512h606l-16 -135h-768l74 600l-150 -41z" horiz-adv-x="999" unicode="Ł"/><glyph d="M199 616l-185 -51l13 129l188 51l92 711h156l-88 -672l184 54l-14 -129l-187 -52l-53 -415q-4 -31 -6 -52.5t-2 -31.5q0 -27 22.5 -40.5t45.5 -13.5q16 0 31.5 4.5t27.5 8.5q14 6 29 12l-19 -113q-12 -10 -31 -18q-16 -6 -36.5 -11t-47.5 -5q-100 0 -139 48t-39 111v19 t2 18z" horiz-adv-x="573" unicode="ł"/><glyph d="M285 0h-156l162 1333h213l481 -1102l135 1102h156l-162 -1333h-213l-479 1133zM1034 1933l84 -84l-297 -299l-84 84z" horiz-adv-x="1343" unicode="Ń"/><glyph d="M858 -18q-131 0 -131 137q0 28 6 59q17 98 37.5 194.5t44.5 227.5q6 33 6 64q0 88 -48 132t-136 44q-123 0 -204 -97.5t-105 -277.5q-9 -53 -18 -133t-19 -154q-10 -86 -23 -178h-155q26 188 49 346q8 68 18 133.5t17.5 120.5t13.5 94t8 54q2 14 3 30.5t1 34.5 q0 23 -1 46.5t-3 41.5q-2 23 -4 41h152q0 -16 2 -35q2 -16 3 -36.5t1 -41.5v-30.5t-4 -32.5h10q29 55 72 100q36 37 95.5 69t145.5 32q142 0 209.5 -75t67.5 -192v-33.5t-4 -33.5q-13 -76 -26 -137.5t-24.5 -114.5t-21.5 -101.5t-19 -93.5q-2 -10 -2 -24q0 -33 15.5 -42 t38.5 -9q20 0 41 4q8 2 16 6l-18 -119q-13 -6 -29 -10q-31 -10 -78 -10zM916 1542l84 -84l-297 -299l-84 84z" horiz-adv-x="1116" unicode="ń"/><glyph d="M285 0h-156l162 1333h213l481 -1102l135 1102h156l-162 -1333h-213l-479 1133zM478 -510l37 309l149 -22l-75 -299z" horiz-adv-x="1343" unicode="Ņ"/><glyph d="M858 -18q-131 0 -131 137q0 28 6 59q17 98 37.5 194.5t44.5 227.5q6 33 6 64q0 88 -48 132t-136 44q-123 0 -204 -97.5t-105 -277.5q-9 -53 -18 -133t-19 -154q-10 -86 -23 -178h-155q26 188 49 346q8 68 18 133.5t17.5 120.5t13.5 94t8 54q2 14 3 30.5t1 34.5 q0 23 -1 46.5t-3 41.5q-2 23 -4 41h152q0 -16 2 -35q2 -16 3 -36.5t1 -41.5v-30.5t-4 -32.5h10q29 55 72 100q36 37 95.5 69t145.5 32q142 0 209.5 -75t67.5 -192v-33.5t-4 -33.5q-13 -76 -26 -137.5t-24.5 -114.5t-21.5 -101.5t-19 -93.5q-2 -10 -2 -24q0 -33 15.5 -42 t38.5 -9q20 0 41 4q8 2 16 6l-18 -119q-13 -6 -29 -10q-31 -10 -78 -10zM364 -510l37 309l149 -22l-75 -299z" horiz-adv-x="1116" unicode="ņ"/><glyph d="M285 0h-156l162 1333h213l481 -1102l135 1102h156l-162 -1333h-213l-479 1133zM1245 1878l-360 -328h-129l-287 328h164l198 -238l246 238h168z" horiz-adv-x="1343" unicode="Ň"/><glyph d="M858 -18q-131 0 -131 137q0 28 6 59q17 98 37.5 194.5t44.5 227.5q6 33 6 64q0 88 -48 132t-136 44q-123 0 -204 -97.5t-105 -277.5q-9 -53 -18 -133t-19 -154q-10 -86 -23 -178h-155q26 188 49 346q8 68 18 133.5t17.5 120.5t13.5 94t8 54q2 14 3 30.5t1 34.5 q0 23 -1 46.5t-3 41.5q-2 23 -4 41h152q0 -16 2 -35q2 -16 3 -36.5t1 -41.5v-30.5t-4 -32.5h10q29 55 72 100q36 37 95.5 69t145.5 32q142 0 209.5 -75t67.5 -192v-33.5t-4 -33.5q-13 -76 -26 -137.5t-24.5 -114.5t-21.5 -101.5t-19 -93.5q-2 -10 -2 -24q0 -33 15.5 -42 t38.5 -9q20 0 41 4q8 2 16 6l-18 -119q-13 -6 -29 -10q-31 -10 -78 -10zM1079 1487l-360 -328h-129l-287 328h164l198 -238l246 238h168z" horiz-adv-x="1116" unicode="ň"/><glyph d="M1180 -18q-131 0 -131 137q0 28 6 59q17 98 37.5 194.5t44.5 227.5q6 33 6 64q0 88 -48 132t-136 44q-123 0 -204 -97.5t-105 -277.5q-9 -53 -18 -133t-19 -154q-10 -86 -23 -178h-155q26 188 49 346q8 68 18 133.5t17.5 120.5t13.5 94t8 54q2 14 3 30.5t1 34.5 q0 23 -1 46.5t-3 41.5q-2 23 -4 41h152q0 -16 2 -35q2 -16 3 -36.5t1 -41.5v-30.5t-4 -32.5h10q29 55 72 100q36 37 95.5 69t145.5 32q142 0 209.5 -75t67.5 -192v-33.5t-4 -33.5q-13 -76 -26 -137.5t-24.5 -114.5t-21.5 -101.5t-19 -93.5q-2 -10 -2 -24q0 -33 15.5 -42 t38.5 -9q20 0 41 4q8 2 16 6l-18 -119q-13 -6 -29 -10q-31 -10 -78 -10zM427 1333l-27 -219q-16 -72 -41.5 -122t-48.5 -83q-28 -37 -57 -61l-111 63q19 19 39 47q17 25 34.5 64t29.5 92q4 20 9 58t9 73q4 41 8 88h156z" horiz-adv-x="1438" unicode="ŉ"/><glyph d="M700 -334q15 -10 38.5 -19t58.5 -9q59 0 94 38.5t49 151.5l25 215l-543 1090l-137 -1133h-156l162 1333h213l497 -968l119 968h156l-193 -1583q-16 -129 -88.5 -191.5t-183.5 -62.5q-47 0 -82 10.5t-57 24.5z" horiz-adv-x="1343" unicode="Ŋ"/><glyph d="M958 700q0 -18 -1 -36.5t-3 -34.5l-112 -879q-8 -65 -35 -112.5t-67 -79t-89 -47t-102 -15.5q-47 0 -82 10.5t-57 24.5l28 135q17 -10 41.5 -19t61.5 -9q20 0 43.5 5t45 20t38 45t22.5 79l107 813q6 49 6 78q0 72 -39 117t-133 45q-121 0 -200 -97.5t-103 -277.5 q-47 -373 -60 -465h-155q77 545 84.5 600t13.5 94t8 54q2 14 3 30.5t1 34.5q0 23 -1 46.5t-3 41.5q-2 23 -4 41h152q0 -16 2 -35q2 -16 3 -36.5t1 -41.5v-30q0 -17 -4 -33h10q14 29 31.5 53.5t38.5 46.5q36 37 93.5 69t143.5 32q141 0 206.5 -75t65.5 -192z" horiz-adv-x="1096" unicode="ŋ"/><glyph d="M1325 793q0 -148 -39 -294.5t-121 -262t-205.5 -188.5t-291.5 -73q-121 0 -219.5 38t-169 111t-109.5 178.5t-39 240.5q0 143 41 288.5t123 262t205 190.5t286 74q119 0 218.5 -38t170 -110.5t110.5 -178t40 -238.5zM664 111q133 0 227 57t153.5 152.5t86 217t26.5 248.5 q0 213 -100.5 325t-265.5 112q-134 0 -227 -58.5t-152.5 -152.5t-87 -216t-27.5 -247q0 -215 101.5 -326.5t265.5 -111.5zM538 1663h620l-12 -113h-620z" horiz-adv-x="1438" unicode="Ō"/><glyph d="M508 -25q-92 0 -169 32t-131 89.5t-84 137t-30 176.5q0 127 37 229t102.5 175t155.5 113t199 40q203 0 307 -117t104 -309q0 -127 -34.5 -231.5t-99 -178.5t-156 -115t-201.5 -41zM514 104q68 0 128 28t104.5 82t71 134t26.5 187q0 151 -73 227t-189 76q-68 0 -128.5 -28 t-105.5 -83t-70.5 -136t-25.5 -188q0 -149 72.5 -224t189.5 -75zM328 1272h620l-12 -113h-620z" horiz-adv-x="1092" unicode="ō"/><glyph d="M1325 793q0 -148 -39 -294.5t-121 -262t-205.5 -188.5t-291.5 -73q-121 0 -219.5 38t-169 111t-109.5 178.5t-39 240.5q0 143 41 288.5t123 262t205 190.5t286 74q119 0 218.5 -38t170 -110.5t110.5 -178t40 -238.5zM664 111q133 0 227 57t153.5 152.5t86 217t26.5 248.5 q0 213 -100.5 325t-265.5 112q-134 0 -227 -58.5t-152.5 -152.5t-87 -216t-27.5 -247q0 -215 101.5 -326.5t265.5 -111.5zM835 1663q94 0 150.5 61.5t66.5 151.5h139q-8 -70 -35.5 -129.5t-73.5 -103.5t-112 -68.5t-147 -24.5q-166 0 -240 91t-57 235h135q-10 -90 37 -151.5 t137 -61.5z" horiz-adv-x="1438" unicode="Ŏ"/><glyph d="M508 -25q-92 0 -169 32t-131 89.5t-84 137t-30 176.5q0 127 37 229t102.5 175t155.5 113t199 40q203 0 307 -117t104 -309q0 -127 -34.5 -231.5t-99 -178.5t-156 -115t-201.5 -41zM514 104q68 0 128 28t104.5 82t71 134t26.5 187q0 151 -73 227t-189 76q-68 0 -128.5 -28 t-105.5 -83t-70.5 -136t-25.5 -188q0 -149 72.5 -224t189.5 -75zM644 1272q94 0 150.5 61.5t66.5 151.5h139q-8 -70 -35.5 -129.5t-73.5 -103.5t-112 -68.5t-147 -24.5q-166 0 -240 91t-57 235h135q-10 -90 37 -151.5t137 -61.5z" horiz-adv-x="1092" unicode="ŏ"/><glyph d="M1325 793q0 -148 -39 -294.5t-121 -262t-205.5 -188.5t-291.5 -73q-121 0 -219.5 38t-169 111t-109.5 178.5t-39 240.5q0 143 41 288.5t123 262t205 190.5t286 74q119 0 218.5 -38t170 -110.5t110.5 -178t40 -238.5zM664 111q133 0 227 57t153.5 152.5t86 217t26.5 248.5 q0 213 -100.5 325t-265.5 112q-134 0 -227 -58.5t-152.5 -152.5t-87 -216t-27.5 -247q0 -215 101.5 -326.5t265.5 -111.5zM873 1933l88 -72l-274 -309l-88 70zM1228 1933l88 -72l-275 -309l-88 70z" horiz-adv-x="1438" unicode="Ő"/><glyph d="M508 -25q-92 0 -169 32t-131 89.5t-84 137t-30 176.5q0 127 37 229t102.5 175t155.5 113t199 40q203 0 307 -117t104 -309q0 -127 -34.5 -231.5t-99 -178.5t-156 -115t-201.5 -41zM514 104q68 0 128 28t104.5 82t71 134t26.5 187q0 151 -73 227t-189 76q-68 0 -128.5 -28 t-105.5 -83t-70.5 -136t-25.5 -188q0 -149 72.5 -224t189.5 -75zM660 1542l88 -72l-274 -309l-88 70zM1015 1542l88 -72l-275 -309l-88 70z" horiz-adv-x="1092" unicode="ő"/><glyph d="M1346 1198l-56 -459h561l-16 -135h-561l-57 -469h647l-17 -135h-809l25 197q-82 -99 -187.5 -160.5t-228.5 -61.5q-117 0 -212 39t-162.5 113t-104.5 181.5t-37 244.5q0 51 6 111q19 163 74 292t136 218.5t186.5 136.5t226.5 47q135 0 241.5 -68.5t169.5 -175.5l29 219 h782l-16 -135h-620zM1106 664q4 34 6 65t2 62q0 210 -94 321t-252 111q-102 0 -188 -44t-149.5 -130t-99.5 -213t-36 -291q0 -215 95 -324.5t255 -109.5q193 0 311.5 140t149.5 413z" horiz-adv-x="2032" unicode="Œ"/><glyph d="M999 463q-2 -19 -2 -35v-31q0 -151 66.5 -221t191.5 -70q72 0 120 17.5t77 40.5q35 24 55 59l113 -92q-31 -43 -80 -78q-41 -28 -109.5 -53t-166.5 -25q-146 0 -236 70t-131 172q-59 -104 -157.5 -173t-231.5 -69q-92 0 -169 32t-131 89.5t-84 137t-30 176.5 q0 127 37 229t102.5 175t155.5 113t199 40q67 0 123.5 -19.5t100.5 -51.5t76 -75t50 -90q27 47 64.5 90t85 75t104.5 51.5t125 19.5q92 0 158.5 -30t109.5 -81t63.5 -120.5t20.5 -151.5q0 -23 -3 -55.5t-9 -65.5h-658zM514 104q68 0 128 28t104.5 82t71 134t26.5 187 q0 151 -73 227t-189 76q-68 0 -128.5 -28t-105.5 -83t-70.5 -136t-25.5 -188q0 -149 72.5 -224t189.5 -75zM1296 854q-112 0 -183 -68.5t-95 -201.5h504v10q0 4 1 10t1 14q0 27 -8.5 68t-32 78t-68.5 63.5t-119 26.5z" horiz-adv-x="1769" unicode="œ"/><glyph d="M371 659h235q101 0 164.5 29t100 74t50 100.5t13.5 106.5q0 45 -12.5 87t-42 73.5t-79.5 50t-126 18.5h-238zM854 0l-197 524h-303l-63 -524h-162l162 1333h375q227 0 331.5 -94t104.5 -262q0 -88 -29 -160t-75 -126t-103 -89t-115 -47l230 -555h-156zM899 1933l84 -84 l-297 -299l-84 84z" horiz-adv-x="1163" unicode="Ŕ"/><glyph d="M678 793q-12 2 -25.5 3t-23.5 1q-119 0 -199 -88t-100 -236q-17 -104 -27 -191t-20 -151q-11 -74 -19 -131h-155l108 768q2 14 2 27.5v27.5q0 23 -2 45.5t-4 38.5q-2 21 -4 35h147q2 -10 6 -22q3 -11 5 -29.5t2 -40.5q0 -21 -4.5 -56.5t-8.5 -64.5h11q41 100 112.5 169 t169.5 69q10 0 21.5 -1t21.5 -3zM674 1542l84 -84l-297 -299l-84 84z" horiz-adv-x="702" unicode="ŕ"/><glyph d="M371 659h235q101 0 164.5 29t100 74t50 100.5t13.5 106.5q0 45 -12.5 87t-42 73.5t-79.5 50t-126 18.5h-238zM854 0l-197 524h-303l-63 -524h-162l162 1333h375q227 0 331.5 -94t104.5 -262q0 -88 -29 -160t-75 -126t-103 -89t-115 -47l230 -555h-156zM399 -510l37 309 l149 -22l-75 -299z" horiz-adv-x="1163" unicode="Ŗ"/><glyph d="M678 793q-12 2 -25.5 3t-23.5 1q-119 0 -199 -88t-100 -236q-17 -104 -27 -191t-20 -151q-11 -74 -19 -131h-155l108 768q2 14 2 27.5v27.5q0 23 -2 45.5t-4 38.5q-2 21 -4 35h147q2 -10 6 -22q3 -11 5 -29.5t2 -40.5q0 -21 -4.5 -56.5t-8.5 -64.5h11q41 100 112.5 169 t169.5 69q10 0 21.5 -1t21.5 -3zM54 -510l37 309l149 -22l-75 -299z" horiz-adv-x="702" unicode="ŗ"/><glyph d="M371 659h235q101 0 164.5 29t100 74t50 100.5t13.5 106.5q0 45 -12.5 87t-42 73.5t-79.5 50t-126 18.5h-238zM854 0l-197 524h-303l-63 -524h-162l162 1333h375q227 0 331.5 -94t104.5 -262q0 -88 -29 -160t-75 -126t-103 -89t-115 -47l230 -555h-156zM1107 1878 l-360 -328h-129l-287 328h164l198 -238l246 238h168z" horiz-adv-x="1163" unicode="Ř"/><glyph d="M678 793q-12 2 -25.5 3t-23.5 1q-119 0 -199 -88t-100 -236q-17 -104 -27 -191t-20 -151q-11 -74 -19 -131h-155l108 768q2 14 2 27.5v27.5q0 23 -2 45.5t-4 38.5q-2 21 -4 35h147q2 -10 6 -22q3 -11 5 -29.5t2 -40.5q0 -21 -4.5 -56.5t-8.5 -64.5h11q41 100 112.5 169 t169.5 69q10 0 21.5 -1t21.5 -3zM858 1487l-360 -328h-129l-287 328h164l198 -238l246 238h168z" horiz-adv-x="702" unicode="ř"/><glyph d="M879 1051q-21 71 -87.5 122.5t-170.5 51.5q-72 0 -120 -23.5t-78 -59.5t-43 -77t-13 -78q0 -49 20.5 -86t54 -65.5t77.5 -50t91 -42.5q68 -28 131.5 -58t112.5 -71t79 -99t30 -144q0 -84 -34 -156t-95.5 -125t-147.5 -84t-190 -31q-84 0 -155 20.5t-124 55.5t-89 81 t-50 99l139 82q27 -86 102.5 -144t190.5 -58q63 0 116.5 17t92.5 47t60.5 70t21.5 87q0 55 -21.5 96t-56.5 70.5t-82 53t-96 46.5q-62 27 -122.5 57.5t-108.5 73.5t-78.5 102.5t-30.5 145.5q6 98 41 170t92 119t132 69.5t159 22.5t148.5 -18.5t112.5 -51.5t79.5 -75 t50.5 -89zM895 1933l84 -84l-297 -299l-84 84z" horiz-adv-x="1081" unicode="Ś"/><glyph d="M668 731q-13 31 -35 53q-21 21 -55.5 37.5t-90.5 16.5q-88 0 -136 -36t-48 -108q0 -28 15.5 -50.5t42 -40t62.5 -32t75 -28.5q49 -19 101 -39.5t93 -49t67.5 -70.5t26.5 -103q0 -62 -22.5 -118.5t-69.5 -97t-117.5 -65.5t-164.5 -25q-109 0 -174.5 29t-104.5 64 q-45 38 -65 92l135 73q14 -36 43 -65q24 -25 64 -45.5t106 -20.5q90 0 148.5 37t58.5 109q0 33 -14.5 56.5t-39 42t-57.5 32.5t-70 27q-51 18 -103 37.5t-95 50t-70 75.5t-27 111q0 61 24 114.5t68 91.5t105.5 59.5t136.5 21.5q101 0 163.5 -26t98.5 -54q41 -37 64 -80z M749 1542l84 -84l-297 -299l-84 84z" horiz-adv-x="889" unicode="ś"/><glyph d="M879 1051q-21 71 -87.5 122.5t-170.5 51.5q-72 0 -120 -23.5t-78 -59.5t-43 -77t-13 -78q0 -49 20.5 -86t54 -65.5t77.5 -50t91 -42.5q68 -28 131.5 -58t112.5 -71t79 -99t30 -144q0 -84 -34 -156t-95.5 -125t-147.5 -84t-190 -31q-84 0 -155 20.5t-124 55.5t-89 81 t-50 99l139 82q27 -86 102.5 -144t190.5 -58q63 0 116.5 17t92.5 47t60.5 70t21.5 87q0 55 -21.5 96t-56.5 70.5t-82 53t-96 46.5q-62 27 -122.5 57.5t-108.5 73.5t-78.5 102.5t-30.5 145.5q6 98 41 170t92 119t132 69.5t159 22.5t148.5 -18.5t112.5 -51.5t79.5 -75 t50.5 -89zM307 1550l358 328h127l291 -328h-168l-197 238l-245 -238h-166z" horiz-adv-x="1081" unicode="Ŝ"/><glyph d="M668 731q-13 31 -35 53q-21 21 -55.5 37.5t-90.5 16.5q-88 0 -136 -36t-48 -108q0 -28 15.5 -50.5t42 -40t62.5 -32t75 -28.5q49 -19 101 -39.5t93 -49t67.5 -70.5t26.5 -103q0 -62 -22.5 -118.5t-69.5 -97t-117.5 -65.5t-164.5 -25q-109 0 -174.5 29t-104.5 64 q-45 38 -65 92l135 73q14 -36 43 -65q24 -25 64 -45.5t106 -20.5q90 0 148.5 37t58.5 109q0 33 -14.5 56.5t-39 42t-57.5 32.5t-70 27q-51 18 -103 37.5t-95 50t-70 75.5t-27 111q0 61 24 114.5t68 91.5t105.5 59.5t136.5 21.5q101 0 163.5 -26t98.5 -54q41 -37 64 -80z M154 1159l358 328h127l291 -328h-168l-197 238l-245 -238h-166z" horiz-adv-x="889" unicode="ŝ"/><glyph d="M879 1051q-21 71 -87.5 122.5t-170.5 51.5q-72 0 -120 -23.5t-78 -59.5t-43 -77t-13 -78q0 -49 20.5 -86t54 -65.5t77.5 -50t91 -42.5q68 -28 131.5 -58t112.5 -71t79 -99t30 -144q0 -84 -34 -156t-95.5 -125t-147.5 -84t-190 -31q-84 0 -155 20.5t-124 55.5t-89 81 t-50 99l139 82q27 -86 102.5 -144t190.5 -58q63 0 116.5 17t92.5 47t60.5 70t21.5 87q0 55 -21.5 96t-56.5 70.5t-82 53t-96 46.5q-62 27 -122.5 57.5t-108.5 73.5t-78.5 102.5t-30.5 145.5q6 98 41 170t92 119t132 69.5t159 22.5t148.5 -18.5t112.5 -51.5t79.5 -75 t50.5 -89zM452 35q31 -17 57 -35q132 -90 132 -207q0 -201 -236 -201q-102 0 -172 64l51 76q58 -43 127 -43q103 0 103 114q0 121 -179 215z" horiz-adv-x="1081" unicode="Ş"/><glyph d="M668 731q-13 31 -35 53q-21 21 -55.5 37.5t-90.5 16.5q-88 0 -136 -36t-48 -108q0 -28 15.5 -50.5t42 -40t62.5 -32t75 -28.5q49 -19 101 -39.5t93 -49t67.5 -70.5t26.5 -103q0 -62 -22.5 -118.5t-69.5 -97t-117.5 -65.5t-164.5 -25q-109 0 -174.5 29t-104.5 64 q-45 38 -65 92l135 73q14 -36 43 -65q24 -25 64 -45.5t106 -20.5q90 0 148.5 37t58.5 109q0 33 -14.5 56.5t-39 42t-57.5 32.5t-70 27q-51 18 -103 37.5t-95 50t-70 75.5t-27 111q0 61 24 114.5t68 91.5t105.5 59.5t136.5 21.5q101 0 163.5 -26t98.5 -54q41 -37 64 -80z M370 35q31 -17 57 -35q132 -90 132 -207q0 -201 -236 -201q-102 0 -172 64l51 76q58 -43 127 -43q103 0 103 114q0 121 -179 215z" horiz-adv-x="889" unicode="ş"/><glyph d="M879 1051q-21 71 -87.5 122.5t-170.5 51.5q-72 0 -120 -23.5t-78 -59.5t-43 -77t-13 -78q0 -49 20.5 -86t54 -65.5t77.5 -50t91 -42.5q68 -28 131.5 -58t112.5 -71t79 -99t30 -144q0 -84 -34 -156t-95.5 -125t-147.5 -84t-190 -31q-84 0 -155 20.5t-124 55.5t-89 81 t-50 99l139 82q27 -86 102.5 -144t190.5 -58q63 0 116.5 17t92.5 47t60.5 70t21.5 87q0 55 -21.5 96t-56.5 70.5t-82 53t-96 46.5q-62 27 -122.5 57.5t-108.5 73.5t-78.5 102.5t-30.5 145.5q6 98 41 170t92 119t132 69.5t159 22.5t148.5 -18.5t112.5 -51.5t79.5 -75 t50.5 -89zM1092 1878l-360 -328h-129l-287 328h164l198 -238l246 238h168z" horiz-adv-x="1081" unicode="Š"/><glyph d="M668 731q-13 31 -35 53q-21 21 -55.5 37.5t-90.5 16.5q-88 0 -136 -36t-48 -108q0 -28 15.5 -50.5t42 -40t62.5 -32t75 -28.5q49 -19 101 -39.5t93 -49t67.5 -70.5t26.5 -103q0 -62 -22.5 -118.5t-69.5 -97t-117.5 -65.5t-164.5 -25q-109 0 -174.5 29t-104.5 64 q-45 38 -65 92l135 73q14 -36 43 -65q24 -25 64 -45.5t106 -20.5q90 0 148.5 37t58.5 109q0 33 -14.5 56.5t-39 42t-57.5 32.5t-70 27q-51 18 -103 37.5t-95 50t-70 75.5t-27 111q0 61 24 114.5t68 91.5t105.5 59.5t136.5 21.5q101 0 163.5 -26t98.5 -54q41 -37 64 -80z M939 1487l-360 -328h-129l-287 328h164l198 -238l246 238h168z" horiz-adv-x="889" unicode="š"/><glyph d="M143 1333h977l-16 -137h-408l-145 -1196h-162l146 1196h-408zM327 -510l37 309l149 -22l-75 -299z" horiz-adv-x="1032" unicode="Ţ"/><glyph d="M260 942l29 201l157 20l-30 -221h293l-19 -129h-293l-78 -539q-4 -16 -5 -34.5t-1 -30.5q0 -47 23.5 -75t87.5 -28q31 0 58.5 9.5t49.5 21.5q25 15 48 33l41 -129q-27 -18 -62 -33q-29 -12 -68.5 -22.5t-89.5 -10.5q-118 0 -180.5 57.5t-62.5 155.5q0 13 1 25t3 27 l80 573h-150l19 129h149zM182 -510l37 309l149 -22l-75 -299z" horiz-adv-x="715" unicode="ţ"/><glyph d="M143 1333h977l-16 -137h-408l-145 -1196h-162l146 1196h-408zM1076 1878l-360 -328h-129l-287 328h164l198 -238l246 238h168z" horiz-adv-x="1032" unicode="Ť"/><glyph d="M260 942l29 201l157 20l-30 -221h293l-19 -129h-293l-78 -539q-4 -16 -5 -34.5t-1 -30.5q0 -47 23.5 -75t87.5 -28q31 0 58.5 9.5t49.5 21.5q25 15 48 33l41 -129q-27 -18 -62 -33q-29 -12 -68.5 -22.5t-89.5 -10.5q-118 0 -180.5 57.5t-62.5 155.5q0 13 1 25t3 27 l80 573h-150l19 129h149zM662 1128l88 351l147 -23l-127 -340z" horiz-adv-x="715" unicode="ť"/><glyph d="M162 1333h977l-17 -137h-407l-51 -416h317l-18 -127h-314l-80 -653h-161l79 653h-317l18 127h314l51 416h-408z" horiz-adv-x="1073" unicode="Ŧ"/><glyph d="M96 571h131l35 242h-149l18 129h150l28 201l158 20l-31 -221h293l-18 -129h-293l-35 -242h262l-18 -116h-260l-27 -181q-4 -16 -5 -34.5t-1 -30.5q0 -47 23.5 -75t86.5 -28q31 0 58.5 9.5t50.5 21.5q25 15 47 33l41 -129q-27 -18 -61 -33q-29 -12 -69 -22.5t-89 -10.5 q-119 0 -181.5 57.5t-62.5 155.5q0 13 1 25t3 27l31 215h-139z" horiz-adv-x="756" unicode="ŧ"/><glyph d="M455 1333l-109 -893q-4 -18 -4 -34.5v-32.5q0 -133 72.5 -197.5t195.5 -64.5q138 0 228 86t110 243l109 893h164l-109 -882q-29 -224 -155 -350t-349 -126q-217 0 -324.5 98.5t-107.5 284.5q0 43 6 93l109 882h164zM666 1783q32 0 64 -15.5t60.5 -34.5t52.5 -34.5 t42 -15.5q17 0 28 9t17.5 23t10.5 32.5t7 37.5l113 -43q4 -30 -4 -63.5t-28.5 -61.5t-52.5 -46.5t-75 -18.5q-33 0 -64 15.5t-59 34.5t-52.5 34.5t-43.5 15.5q-15 0 -25.5 -8.5t-17.5 -22.5t-12 -32.5t-9 -38.5l-112 43q-2 40 9.5 75t33 60.5t51.5 40t66 14.5z" horiz-adv-x="1266" unicode="Ũ"/><glyph d="M369 942l-80 -610q-2 -13 -2 -24v-21q0 -86 42 -135.5t128 -49.5q125 0 190.5 88.5t93.5 294.5q9 54 18 132.5t19 150.5q10 84 23 174h155l-96 -678q-4 -31 -8 -53.5t-4 -32.5q0 -31 12 -42t35 -11q27 0 49 6q12 4 25 8l-21 -123q-12 -8 -26 -14q-29 -14 -74 -14 q-43 0 -66.5 22.5t-34 50t-12.5 52t-2 30.5h-12q-31 -47 -76 -84q-39 -32 -97.5 -58t-141.5 -26q-123 0 -197 74t-74 199q0 16 2 32.5t4 32.5l80 629h148zM503 1392q32 0 64 -15.5t60.5 -34.5t52.5 -34.5t42 -15.5q17 0 28 9t17.5 23t10.5 32.5t7 37.5l113 -43 q4 -30 -4 -63.5t-28.5 -61.5t-52.5 -46.5t-75 -18.5q-33 0 -64 15.5t-59 34.5t-52.5 34.5t-43.5 15.5q-15 0 -25.5 -8.5t-17.5 -22.5t-12 -32.5t-9 -38.5l-112 43q-2 40 9.5 75t33 60.5t51.5 40t66 14.5z" horiz-adv-x="1079" unicode="ũ"/><glyph d="M455 1333l-109 -893q-4 -18 -4 -34.5v-32.5q0 -133 72.5 -197.5t195.5 -64.5q138 0 228 86t110 243l109 893h164l-109 -882q-29 -224 -155 -350t-349 -126q-217 0 -324.5 98.5t-107.5 284.5q0 43 6 93l109 882h164zM483 1663h620l-12 -113h-620z" horiz-adv-x="1266" unicode="Ū"/><glyph d="M369 942l-80 -610q-2 -13 -2 -24v-21q0 -86 42 -135.5t128 -49.5q125 0 190.5 88.5t93.5 294.5q9 54 18 132.5t19 150.5q10 84 23 174h155l-96 -678q-4 -31 -8 -53.5t-4 -32.5q0 -31 12 -42t35 -11q27 0 49 6q12 4 25 8l-21 -123q-12 -8 -26 -14q-29 -14 -74 -14 q-43 0 -66.5 22.5t-34 50t-12.5 52t-2 30.5h-12q-31 -47 -76 -84q-39 -32 -97.5 -58t-141.5 -26q-123 0 -197 74t-74 199q0 16 2 32.5t4 32.5l80 629h148zM313 1272h620l-12 -113h-620z" horiz-adv-x="1079" unicode="ū"/><glyph d="M455 1333l-109 -893q-4 -18 -4 -34.5v-32.5q0 -133 72.5 -197.5t195.5 -64.5q138 0 228 86t110 243l109 893h164l-109 -882q-29 -224 -155 -350t-349 -126q-217 0 -324.5 98.5t-107.5 284.5q0 43 6 93l109 882h164zM798 1663q94 0 150.5 61.5t66.5 151.5h139 q-8 -70 -35.5 -129.5t-73.5 -103.5t-112 -68.5t-147 -24.5q-166 0 -240 91t-57 235h135q-10 -90 37 -151.5t137 -61.5z" horiz-adv-x="1266" unicode="Ŭ"/><glyph d="M369 942l-80 -610q-2 -13 -2 -24v-21q0 -86 42 -135.5t128 -49.5q125 0 190.5 88.5t93.5 294.5q9 54 18 132.5t19 150.5q10 84 23 174h155l-96 -678q-4 -31 -8 -53.5t-4 -32.5q0 -31 12 -42t35 -11q27 0 49 6q12 4 25 8l-21 -123q-12 -8 -26 -14q-29 -14 -74 -14 q-43 0 -66.5 22.5t-34 50t-12.5 52t-2 30.5h-12q-31 -47 -76 -84q-39 -32 -97.5 -58t-141.5 -26q-123 0 -197 74t-74 199q0 16 2 32.5t4 32.5l80 629h148zM624 1272q94 0 150.5 61.5t66.5 151.5h139q-8 -70 -35.5 -129.5t-73.5 -103.5t-112 -68.5t-147 -24.5q-166 0 -240 91 t-57 235h135q-10 -90 37 -151.5t137 -61.5z" horiz-adv-x="1079" unicode="ŭ"/><glyph d="M455 1333l-109 -893q-4 -18 -4 -34.5v-32.5q0 -133 72.5 -197.5t195.5 -64.5q138 0 228 86t110 243l109 893h164l-109 -882q-29 -224 -155 -350t-349 -126q-217 0 -324.5 98.5t-107.5 284.5q0 43 6 93l109 882h164zM564 1767q0 49 17 92t49 75t76 51.5t99 19.5 q101 0 161.5 -63.5t60.5 -153.5q0 -49 -17.5 -93t-50.5 -76t-77 -50.5t-97 -18.5q-105 0 -163 62.5t-58 154.5zM662 1773q0 -57 35 -95t92 -38t98 41t41 101q0 53 -37 93t-90 40q-59 0 -99 -42t-40 -100z" horiz-adv-x="1266" unicode="Ů"/><glyph d="M369 942l-80 -610q-2 -13 -2 -24v-21q0 -86 42 -135.5t128 -49.5q125 0 190.5 88.5t93.5 294.5q9 54 18 132.5t19 150.5q10 84 23 174h155l-96 -678q-4 -31 -8 -53.5t-4 -32.5q0 -31 12 -42t35 -11q27 0 49 6q12 4 25 8l-21 -123q-12 -8 -26 -14q-29 -14 -74 -14 q-43 0 -66.5 22.5t-34 50t-12.5 52t-2 30.5h-12q-31 -47 -76 -84q-39 -32 -97.5 -58t-141.5 -26q-123 0 -197 74t-74 199q0 16 2 32.5t4 32.5l80 629h148zM400 1376q0 49 17 92t49 75t76 51.5t99 19.5q101 0 161.5 -63.5t60.5 -153.5q0 -49 -17.5 -93t-50.5 -76t-77 -50.5 t-97 -18.5q-105 0 -163 62.5t-58 154.5zM498 1382q0 -57 35 -95t92 -38t98 41t41 101q0 53 -37 93t-90 40q-59 0 -99 -42t-40 -100z" horiz-adv-x="1079" unicode="ů"/><glyph d="M455 1333l-109 -893q-4 -18 -4 -34.5v-32.5q0 -133 72.5 -197.5t195.5 -64.5q138 0 228 86t110 243l109 893h164l-109 -882q-29 -224 -155 -350t-349 -126q-217 0 -324.5 98.5t-107.5 284.5q0 43 6 93l109 882h164zM815 1933l88 -72l-274 -309l-88 70zM1170 1933l88 -72 l-275 -309l-88 70z" horiz-adv-x="1266" unicode="Ű"/><glyph d="M369 942l-80 -610q-2 -13 -2 -24v-21q0 -86 42 -135.5t128 -49.5q125 0 190.5 88.5t93.5 294.5q9 54 18 132.5t19 150.5q10 84 23 174h155l-96 -678q-4 -31 -8 -53.5t-4 -32.5q0 -31 12 -42t35 -11q27 0 49 6q12 4 25 8l-21 -123q-12 -8 -26 -14q-29 -14 -74 -14 q-43 0 -66.5 22.5t-34 50t-12.5 52t-2 30.5h-12q-31 -47 -76 -84q-39 -32 -97.5 -58t-141.5 -26q-123 0 -197 74t-74 199q0 16 2 32.5t4 32.5l80 629h148zM652 1542l88 -72l-274 -309l-88 70zM1007 1542l88 -72l-275 -309l-88 70z" horiz-adv-x="1079" unicode="ű"/><glyph d="M455 1333l-109 -893q-4 -18 -4 -34.5v-32.5q0 -133 72.5 -197.5t195.5 -64.5q138 0 228 86t110 243l109 893h164l-109 -882q-29 -224 -155 -350t-349 -126q-217 0 -324.5 98.5t-107.5 284.5q0 43 6 93l109 882h164zM840 18q-260 -116 -260 -227q0 -102 88 -102 q59 0 111 43l51 -76q-78 -64 -166 -64q-211 0 -211 181q0 121 201 227q34 20 69 35z" horiz-adv-x="1266" unicode="Ų"/><glyph d="M369 942l-80 -610q-2 -13 -2 -24v-21q0 -86 42 -135.5t128 -49.5q125 0 190.5 88.5t93.5 294.5q9 54 18 132.5t19 150.5q10 84 23 174h155l-96 -678q-4 -31 -8 -53.5t-4 -32.5q0 -31 12 -42t35 -11q27 0 49 6q12 4 25 8l-21 -123q-12 -8 -26 -14q-29 -14 -74 -14 q-43 0 -66.5 22.5t-34 50t-12.5 52t-2 30.5h-12q-31 -47 -76 -84q-39 -32 -97.5 -58t-141.5 -26q-123 0 -197 74t-74 199q0 16 2 32.5t4 32.5l80 629h148zM932 18q-260 -116 -260 -227q0 -102 88 -102q59 0 111 43l51 -76q-78 -64 -166 -64q-211 0 -211 181q0 121 201 227 q34 20 69 35z" horiz-adv-x="1079" unicode="ų"/><glyph d="M1151 1333l143 -1179l410 1179h176l-487 -1333h-232l-139 1194l-426 -1194h-211l-170 1333h164l129 -1179l424 1179h219zM675 1550l358 328h127l291 -328h-168l-197 238l-245 -238h-166z" horiz-adv-x="1872" unicode="Ŵ"/><glyph d="M854 942l111 -797l295 797h163l-372 -942h-207l-103 795l-311 -795h-192l-111 942h149l76 -797l314 797h188zM416 1159l358 328h127l291 -328h-168l-197 238l-245 -238h-166z" horiz-adv-x="1430" unicode="ŵ"/><glyph d="M125 1333h170l258 -680l424 680h178l-537 -821l-61 -512h-162l62 512zM274 1550l358 328h127l291 -328h-168l-197 238l-245 -238h-166z" horiz-adv-x="1059" unicode="Ŷ"/><glyph d="M360 942l-79 -610q-2 -10 -3.5 -23.5t-1.5 -29.5q0 -80 40 -128.5t126 -48.5q66 0 114 29t83 79t57.5 117.5t34.5 145.5q4 31 11.5 78t13.5 98t12 103.5t12 94.5t9.5 67.5t3.5 27.5h155l-117 -989q-14 -123 -55 -211t-104.5 -145.5t-145.5 -85t-176 -27.5 q-110 0 -178 28.5t-109 63.5q-47 39 -69 92l102 90q19 -41 56 -73q30 -29 82.5 -51.5t130.5 -22.5q79 0 134.5 26.5t91.5 71.5t55.5 103.5t29.5 121.5q10 72 16 115t10 70q7 28 9 45q-29 -53 -72 -94q-37 -35 -93.5 -65t-135.5 -30q-129 0 -205 75t-76 202v29.5t4 31.5 l80 629h147zM228 1159l358 328h127l291 -328h-168l-197 238l-245 -238h-166z" horiz-adv-x="1044" unicode="ŷ"/><glyph d="M125 1333h170l258 -680l424 680h178l-537 -821l-61 -512h-162l62 512zM587 1669q0 -53 -35 -86t-86 -33q-47 0 -76.5 30t-29.5 77q0 55 33.5 87.5t84.5 32.5q48 0 78.5 -29.5t30.5 -78.5zM999 1669q0 -53 -35 -86t-84 -33t-79 30t-30 77q0 55 34 87.5t87 32.5 q47 0 77 -29.5t30 -78.5z" horiz-adv-x="1059" unicode="Ÿ"/><glyph d="M1087 1229l-57 -72l-801 -1024h744l-17 -133h-950l12 104l62 78l799 1018h-689l17 133h893zM865 1933l84 -84l-297 -299l-84 84z" horiz-adv-x="1065" unicode="Ź"/><glyph d="M842 834l-45 -52l-553 -653h522l-18 -129h-717l16 109l64 73l532 631h-493l18 129h690zM730 1542l84 -84l-297 -299l-84 84z" horiz-adv-x="891" unicode="ź"/><glyph d="M1087 1229l-57 -72l-801 -1024h744l-17 -133h-950l12 104l62 78l799 1018h-689l17 133h893zM793 1673q0 -57 -35 -90t-82 -33q-43 0 -77.5 33t-34.5 90q0 53 34.5 85t77.5 32q47 0 82 -32t35 -85z" horiz-adv-x="1065" unicode="Ż"/><glyph d="M842 834l-45 -52l-553 -653h522l-18 -129h-717l16 109l64 73l532 631h-493l18 129h690zM659 1282q0 -57 -35 -90t-82 -33q-43 0 -77.5 33t-34.5 90q0 53 34.5 85t77.5 32q47 0 82 -32t35 -85z" horiz-adv-x="891" unicode="ż"/><glyph d="M1087 1229l-57 -72l-801 -1024h744l-17 -133h-950l12 104l62 78l799 1018h-689l17 133h893zM1086 1878l-360 -328h-129l-287 328h164l198 -238l246 238h168z" horiz-adv-x="1065" unicode="Ž"/><glyph d="M842 834l-45 -52l-553 -653h522l-18 -129h-717l16 109l64 73l532 631h-493l18 129h690zM960 1487l-360 -328h-129l-287 328h164l198 -238l246 238h168z" horiz-adv-x="891" unicode="ž"/><glyph d="M266 1184q8 63 37 115.5t70 89t95 57t116 20.5q65 0 110 -15t62 -36l-39 -133q-15 16 -47.5 29.5t-87.5 13.5q-62 0 -113 -41t-61 -137l-168 -1397q-9 -65 -35.5 -112.5t-66.5 -79t-89 -47t-102 -15.5q-47 0 -82 10.5t-58 24.5l29 135q17 -10 41.5 -19t61.5 -9 q20 0 43.5 5t45 20t38 45t22.5 79z" horiz-adv-x="479" unicode="ſ"/><glyph d="M451 1456q0 -2 -7 -37q-4 -35 -12 -90q-4 -41 -10 -86h291l-15 -127h-292q0 -18 -3 -35q-6 -59 -11 -105t-7 -58q-4 -35 -12 -63t-8 -34h10q31 39 74 72q36 29 92.5 51.5t134.5 22.5q88 0 161.5 -31t126 -88t81 -139t28.5 -185q0 -112 -34.5 -212.5t-98 -175.5t-153 -118 t-199.5 -43q-90 0 -145.5 28t-90.5 63q-39 38 -59 92h-10l-25 -158h-141l137 1116h-129l14 127h131l27 213h154zM575 104q74 0 136.5 30t108.5 84t72 130t26 168q0 84 -20.5 144.5t-57.5 100.5t-86 58.5t-107 18.5q-69 0 -129.5 -28t-104.5 -80t-70 -128t-26 -174 q0 -168 72 -246t186 -78z" horiz-adv-x="1165" unicode="ƀ"/><glyph d="M1061 713q4 20 4 38.5v43.5q0 213 -95.5 320.5t-269.5 107.5q-147 0 -228 -56.5t-132 -148.5l-139 72q28 47 72 95t105.5 86t143.5 62.5t189 24.5q139 0 238.5 -43t162 -121t92 -184.5t29.5 -235.5q0 -172 -46 -318.5t-129 -253t-199 -167t-255 -60.5q-121 0 -213 37 t-153.5 104.5t-93 163t-31.5 214.5q0 96 7 140t13 79h928zM612 111q101 0 177.5 39.5t130 105.5t85 149.5t42.5 172.5h-758l-4 -31q-6 -37 -6 -80q0 -68 16 -132.5t55 -114.5t102.5 -79.5t159.5 -29.5z" horiz-adv-x="1346" unicode="Ə"/><glyph d="M389 596h-166l15 129h172l26 168q21 127 108 205t210 78q55 0 105 -14.5t67 -37.5l-39 -133q-15 17 -49.5 30t-85.5 13q-62 0 -113 -41t-61 -137l-15 -131h215l-14 -129h-219l-68 -571q-8 -66 -34.5 -113t-66.5 -79t-89 -47t-103 -15q-47 0 -81.5 10t-57.5 24l29 136 q16 -11 40.5 -20t61.5 -9q21 0 44.5 5t45 20.5t37.5 45t23 78.5z" horiz-adv-x="901" unicode="ƒ"/><glyph d="M954 647l-39 -301q-4 -27 -4 -39v-20q0 -86 41 -135.5t125 -49.5q123 0 186.5 88.5t92.5 294.5q8 54 17 132.5t20 150.5q10 84 22 174h156l-96 -678q-5 -31 -9 -53.5t-4 -32.5q0 -31 12.5 -42t34.5 -11q27 0 50 6l24 8l-20 -123q-13 -8 -27 -14q-29 -14 -74 -14 q-43 0 -66.5 22.5t-33.5 50t-12 52t-2 30.5h-13q-30 -47 -73 -84q-39 -32 -96.5 -58t-139.5 -26q-121 0 -193.5 74t-72.5 199q0 16 2 33l47 383q0 88 -47 132t-131 44q-121 0 -198 -91.5t-103 -283.5q-2 -19 -6.5 -47.5t-8.5 -65.5t-8 -76.5t-8 -78.5q-10 -93 -20 -197h-156 l176 1456h156l-95 -690h11q32 55 80 100q41 37 102 69t145 32q129 0 194.5 -73t65.5 -189q0 -29 -4 -58z" horiz-adv-x="1694" unicode="ƕ"/><glyph d="M340 418h235q101 0 164.5 28.5t100.5 73.5t50 100.5t13 106.5q0 45 -12 87t-42 74t-80 50t-126 18h-237zM811 -260l-205 543h-282l-33 -283h-162l162 1333h160l-29 -241h213q227 0 331.5 -94.5t104.5 -262.5q0 -88 -28.5 -159.5t-74.5 -126t-103.5 -89t-114.5 -47.5 l237 -573h-176z" horiz-adv-x="1163" unicode="Ʀ"/><glyph d="M29 0l596 1333h209l278 -1333h-170l-63 326h-543l-141 -326h-166zM391 469h463l-143 731zM1164 1878l-360 -328h-129l-287 328h164l198 -238l246 238h168z" horiz-adv-x="1235" unicode="Ǎ"/><glyph d="M967 264q-4 -31 -7.5 -53.5t-3.5 -34.5q0 -33 10.5 -45t34.5 -12q13 0 25 2t23 6q12 4 24 10l-20 -127q-11 -8 -25 -16q-29 -14 -70 -14q-51 0 -78.5 27.5t-40 61t-14.5 62.5t-2 33h-12q-29 -53 -72 -94q-39 -35 -98 -65t-149 -30q-93 0 -166.5 32t-124.5 90.5t-79 141.5 t-28 183q0 117 36 216t100.5 173t153.5 115t194 41q86 0 144 -29t93 -64q41 -38 66 -90l12 4l25 154h145zM512 104q76 0 138.5 31t105.5 87.5t66.5 134t23.5 171.5q0 160 -72 235t-188 75q-78 0 -139.5 -31t-104.5 -87t-66.5 -133t-23.5 -169q0 -160 71.5 -237t188.5 -77z M1041 1487l-360 -328h-129l-287 328h164l198 -238l246 238h168z" horiz-adv-x="1184" unicode="ǎ"/><glyph d="M29 0l596 1333h209l278 -1333h-170l-63 326h-543l-141 -326h-166zM391 469h463l-143 731zM481 1951h620l-12 -113h-620zM669 1627q0 -53 -35 -86t-86 -33q-47 0 -76.5 30t-29.5 77q0 55 33.5 87.5t84.5 32.5q48 0 78.5 -29.5t30.5 -78.5zM1061 1627q0 -53 -35 -86 t-84 -33t-79 30t-30 77q0 55 34 87.5t87 32.5q47 0 77 -29.5t30 -78.5z" horiz-adv-x="1235" unicode="Ǟ"/><glyph d="M967 264q-4 -31 -7.5 -53.5t-3.5 -34.5q0 -33 10.5 -45t34.5 -12q13 0 25 2t23 6q12 4 24 10l-20 -127q-11 -8 -25 -16q-29 -14 -70 -14q-51 0 -78.5 27.5t-40 61t-14.5 62.5t-2 33h-12q-29 -53 -72 -94q-39 -35 -98 -65t-149 -30q-93 0 -166.5 32t-124.5 90.5t-79 141.5 t-28 183q0 117 36 216t100.5 173t153.5 115t194 41q86 0 144 -29t93 -64q41 -38 66 -90l12 4l25 154h145zM512 104q76 0 138.5 31t105.5 87.5t66.5 134t23.5 171.5q0 160 -72 235t-188 75q-78 0 -139.5 -31t-104.5 -87t-66.5 -133t-23.5 -169q0 -160 71.5 -237t188.5 -77z M357 1560h620l-12 -113h-620zM545 1236q0 -53 -35 -86t-86 -33q-47 0 -76.5 30t-29.5 77q0 55 33.5 87.5t84.5 32.5q48 0 78.5 -29.5t30.5 -78.5zM937 1236q0 -53 -35 -86t-84 -33t-79 30t-30 77q0 55 34 87.5t87 32.5q47 0 77 -29.5t30 -78.5z" horiz-adv-x="1184" unicode="ǟ"/><glyph d="M29 0l596 1333h209l278 -1333h-170l-63 326h-543l-141 -326h-166zM391 469h463l-143 731zM479 1951h620l-12 -113h-620zM866 1625q0 -57 -35 -90t-82 -33q-43 0 -77.5 33t-34.5 90q0 53 34.5 85t77.5 32q47 0 82 -32t35 -85z" horiz-adv-x="1235" unicode="Ǡ"/><glyph d="M967 264q-4 -31 -7.5 -53.5t-3.5 -34.5q0 -33 10.5 -45t34.5 -12q13 0 25 2t23 6q12 4 24 10l-20 -127q-11 -8 -25 -16q-29 -14 -70 -14q-51 0 -78.5 27.5t-40 61t-14.5 62.5t-2 33h-12q-29 -53 -72 -94q-39 -35 -98 -65t-149 -30q-93 0 -166.5 32t-124.5 90.5t-79 141.5 t-28 183q0 117 36 216t100.5 173t153.5 115t194 41q86 0 144 -29t93 -64q41 -38 66 -90l12 4l25 154h145zM512 104q76 0 138.5 31t105.5 87.5t66.5 134t23.5 171.5q0 160 -72 235t-188 75q-78 0 -139.5 -31t-104.5 -87t-66.5 -133t-23.5 -169q0 -160 71.5 -237t188.5 -77z M341 1560h620l-12 -113h-620zM728 1234q0 -57 -35 -90t-82 -33q-43 0 -77.5 33t-34.5 90q0 53 34.5 85t77.5 32q47 0 82 -32t35 -85z" horiz-adv-x="1184" unicode="ǡ"/><glyph d="M121 0h-168l811 1333h889l-17 -135h-610l-55 -459h561l-16 -135h-562l-57 -469h637l-16 -135h-799l41 336h-434zM866 1217l-454 -748h364zM936 1663h620l-12 -113h-620z" horiz-adv-x="1694" unicode="Ǣ"/><glyph d="M907 418q0 -66 12.5 -122t38 -97t66.5 -65.5t98 -24.5q64 0 107 19t69 44q31 27 50 64l135 -72q-31 -53 -80 -94q-41 -35 -107.5 -65t-162.5 -30q-109 0 -175.5 36t-103.5 81q-43 53 -63 119h-13q-18 -45 -55 -87t-85 -75t-106.5 -53.5t-121.5 -20.5q-84 0 -141.5 21.5 t-92.5 55.5t-49 78t-14 87q0 131 101 204t261 87l279 22l12 97q2 10 2 18v19q0 86 -51 131t-148 45q-71 0 -120.5 -24.5t-77.5 -53.5q-35 -35 -56 -76l-125 70q29 59 80 106q43 41 114 74t179 33q111 0 172.5 -35t91.5 -76q37 -49 45 -110h9q30 61 77 110q41 41 101.5 76 t146.5 35q76 0 139.5 -24.5t109.5 -74t71.5 -123t25.5 -172.5q0 -26 -2 -51.5t-6 -54.5zM1180 838q-93 0 -167.5 -79t-90.5 -214l471 33q2 10 2 25v26q0 96 -56.5 152.5t-158.5 56.5zM418 106q123 0 208 49.5t101 159.5l14 99q-49 -4 -96 -11q-41 -4 -87 -8t-81 -8 q-106 -10 -156.5 -45t-50.5 -106q0 -60 38 -95t110 -35zM625 1272h620l-12 -113h-620z" horiz-adv-x="1651" unicode="ǣ"/><glyph d="M1223 670l-82 -670h-121l6 156h-8q-27 -52 -72 -90q-41 -35 -105.5 -63t-166.5 -28q-117 0 -216.5 39t-170 111t-110.5 176.5t-40 237.5q0 141 40 286.5t122 264t207 193.5t295 75q94 0 164.5 -19.5t122 -52.5t87 -76t62.5 -90l-150 -82q-12 39 -33.5 73t-56 58.5t-85 39 t-117.5 14.5q-123 0 -215.5 -54.5t-153.5 -144.5t-91 -210t-30 -251q0 -215 89 -333.5t278 -118.5q76 0 140.5 19.5t112.5 54t75.5 81.5t33.5 103l17 166h-361l17 135h516zM1223 1878l-360 -328h-129l-287 328h164l198 -238l246 238h168z" horiz-adv-x="1341" unicode="Ǧ"/><glyph d="M434 -516q-119 0 -197.5 29.5t-126 67.5t-69 72t-23.5 42l111 92q2 -6 20.5 -34.5t55.5 -59.5t96 -55.5t145 -24.5q254 0 304 303q4 29 10 66.5t12 73.5t10 60.5t4 26.5h-10q-28 -47 -71 -84q-37 -32 -93.5 -58t-136.5 -26q-88 0 -158.5 33t-120 91.5t-75 140.5 t-25.5 180q0 117 35 217t98.5 173t148.5 115t187 42q84 0 138.5 -29t87.5 -64q36 -38 59 -90l12 4l23 154h145l-115 -932q-34 -280 -158 -403t-323 -123zM504 104q67 0 125.5 28t101.5 81t67.5 131t24.5 178q0 164 -63.5 240t-173.5 76q-72 0 -132.5 -31t-105.5 -86 t-69.5 -133t-24.5 -172q0 -164 69.5 -238t180.5 -74zM1049 1487l-360 -328h-129l-287 328h164l198 -238l246 238h168z" horiz-adv-x="1124" unicode="ǧ"/><glyph d="M377 702l618 631h211l-588 -610l467 -723h-208l-383 633l-142 -129l-61 -504h-162l162 1333h162zM1142 1878l-360 -328h-129l-287 328h164l198 -238l246 238h168z" horiz-adv-x="1188" unicode="Ǩ"/><glyph d="M1089 1878l-360 -328h-129l-287 328h164l198 -238l246 238h168zM809 942h195l-433 -420l371 -522h-192l-299 438l-134 -116l-38 -322h-156l161 1333h156l-106 -850z" horiz-adv-x="1034" unicode="ǩ"/><glyph d="M1325 793q0 -148 -39 -294.5t-121 -262t-205.5 -188.5t-291.5 -73q-121 0 -219.5 38t-169 111t-109.5 178.5t-39 240.5q0 143 41 288.5t123 262t205 190.5t286 74q119 0 218.5 -38t170 -110.5t110.5 -178t40 -238.5zM664 111q133 0 227 57t153.5 152.5t86 217t26.5 248.5 q0 213 -100.5 325t-265.5 112q-134 0 -227 -58.5t-152.5 -152.5t-87 -216t-27.5 -247q0 -215 101.5 -326.5t265.5 -111.5zM877 18q-260 -116 -260 -227q0 -102 88 -102q59 0 111 43l51 -76q-78 -64 -166 -64q-211 0 -211 181q0 121 201 227q34 20 69 35z" horiz-adv-x="1438" unicode="Ǫ"/><glyph d="M508 -25q-92 0 -169 32t-131 89.5t-84 137t-30 176.5q0 127 37 229t102.5 175t155.5 113t199 40q203 0 307 -117t104 -309q0 -127 -34.5 -231.5t-99 -178.5t-156 -115t-201.5 -41zM514 104q68 0 128 28t104.5 82t71 134t26.5 187q0 151 -73 227t-189 76q-68 0 -128.5 -28 t-105.5 -83t-70.5 -136t-25.5 -188q0 -149 72.5 -224t189.5 -75zM625 18q-260 -116 -260 -227q0 -102 88 -102q59 0 111 43l51 -76q-78 -64 -166 -64q-211 0 -211 181q0 121 201 227q34 20 69 35z" horiz-adv-x="1092" unicode="ǫ"/><glyph d="M1253 1333l-118 -1005v-23q-2 -104 43 -153.5t137 -49.5q133 0 202.5 88.5t100.5 294.5q8 54 17.5 132.5t19.5 150.5q10 84 22 174h156l-96 -678q-4 -31 -8.5 -53.5t-4.5 -32.5q0 -31 12.5 -42t35.5 -11q26 0 49 6l24 8l-20 -123q-13 -8 -27 -14q-29 -14 -74 -14 q-43 0 -66.5 22.5t-33.5 50t-12 52t-2 30.5h-13q-34 -47 -81 -84q-43 -32 -106.5 -58t-154.5 -26q-133 0 -213.5 74t-78.5 217q0 17 2 33l34 283h-639l-69 -582h-162l162 1333h162l-76 -616h639l76 616h161z" horiz-adv-x="1956" unicode="Ƕ"/><glyph d="M244 168q-113 149 -113 389q0 188 52.5 336.5t142.5 252t209.5 158t252.5 54.5q105 0 191 -30t154 -83l110 125l94 -84l-116 -137q47 -72 73.5 -166t26.5 -209q0 -188 -53.5 -335.5t-142.5 -251t-208.5 -158t-250.5 -54.5q-201 0 -332 103l-94 -109l-95 86zM793 1223 q-134 0 -229 -63.5t-154.5 -164t-87 -224.5t-27.5 -247q0 -143 51 -245l694 847q-92 97 -247 97zM662 111q135 0 229 60t152.5 158.5t84 222.5t25.5 251q0 135 -41 233l-686 -843q90 -82 236 -82zM1010 1933l84 -84l-297 -299l-84 84z" horiz-adv-x="1438" unicode="Ǿ"/><glyph d="M836 1542l84 -84l-297 -299l-84 84zM154 168q-60 102 -60 242q0 127 37 229t102.5 175t155.5 113t199 40q102 0 178 -31t129 -88l125 110l70 -84l-134 -118q43 -92 43 -215q0 -127 -34.5 -231.5t-99 -178.5t-156 -115t-201.5 -41q-88 0 -160 28t-125 77l-121 -109l-67 88 zM252 403q0 -77 18 -133l512 478q-71 90 -200 90q-68 0 -128.5 -28t-105.5 -83t-70.5 -136t-25.5 -188zM514 104q68 0 128 28t104.5 82t71 134t26.5 187q0 65 -17 124l-508 -475q68 -80 195 -80z" horiz-adv-x="1092" unicode="ǿ"/><glyph d="M879 1051q-21 71 -87.5 122.5t-170.5 51.5q-72 0 -120 -23.5t-78 -59.5t-43 -77t-13 -78q0 -49 20.5 -86t54 -65.5t77.5 -50t91 -42.5q68 -28 131.5 -58t112.5 -71t79 -99t30 -144q0 -84 -34 -156t-95.5 -125t-147.5 -84t-190 -31q-84 0 -155 20.5t-124 55.5t-89 81 t-50 99l139 82q27 -86 102.5 -144t190.5 -58q63 0 116.5 17t92.5 47t60.5 70t21.5 87q0 55 -21.5 96t-56.5 70.5t-82 53t-96 46.5q-62 27 -122.5 57.5t-108.5 73.5t-78.5 102.5t-30.5 145.5q6 98 41 170t92 119t132 69.5t159 22.5t148.5 -18.5t112.5 -51.5t79.5 -75 t50.5 -89zM352 -510l37 309l149 -22l-75 -299z" horiz-adv-x="1081" unicode="Ș"/><glyph d="M668 731q-13 31 -35 53q-21 21 -55.5 37.5t-90.5 16.5q-88 0 -136 -36t-48 -108q0 -28 15.5 -50.5t42 -40t62.5 -32t75 -28.5q49 -19 101 -39.5t93 -49t67.5 -70.5t26.5 -103q0 -62 -22.5 -118.5t-69.5 -97t-117.5 -65.5t-164.5 -25q-109 0 -174.5 29t-104.5 64 q-45 38 -65 92l135 73q14 -36 43 -65q24 -25 64 -45.5t106 -20.5q90 0 148.5 37t58.5 109q0 33 -14.5 56.5t-39 42t-57.5 32.5t-70 27q-51 18 -103 37.5t-95 50t-70 75.5t-27 111q0 61 24 114.5t68 91.5t105.5 59.5t136.5 21.5q101 0 163.5 -26t98.5 -54q41 -37 64 -80z M261 -510l37 309l149 -22l-75 -299z" horiz-adv-x="889" unicode="ș"/><glyph d="M143 1333h977l-16 -137h-408l-145 -1196h-162l146 1196h-408zM327 -510l37 309l149 -22l-75 -299z" horiz-adv-x="1032" unicode="Ț"/><glyph d="M260 942l29 201l157 20l-30 -221h293l-19 -129h-293l-78 -539q-4 -16 -5 -34.5t-1 -30.5q0 -47 23.5 -75t87.5 -28q31 0 58.5 9.5t49.5 21.5q25 15 48 33l41 -129q-27 -18 -62 -33q-29 -12 -68.5 -22.5t-89.5 -10.5q-118 0 -180.5 57.5t-62.5 155.5q0 13 1 25t3 27 l80 573h-150l19 129h149zM182 -510l37 309l149 -22l-75 -299z" horiz-adv-x="715" unicode="ț"/><glyph d="M1325 793q0 -148 -39 -294.5t-121 -262t-205.5 -188.5t-291.5 -73q-121 0 -219.5 38t-169 111t-109.5 178.5t-39 240.5q0 143 41 288.5t123 262t205 190.5t286 74q119 0 218.5 -38t170 -110.5t110.5 -178t40 -238.5zM664 111q133 0 227 57t153.5 152.5t86 217t26.5 248.5 q0 213 -100.5 325t-265.5 112q-134 0 -227 -58.5t-152.5 -152.5t-87 -216t-27.5 -247q0 -215 101.5 -326.5t265.5 -111.5zM587 1951h620l-12 -113h-620zM775 1627q0 -53 -35 -86t-86 -33q-47 0 -76.5 30t-29.5 77q0 55 33.5 87.5t84.5 32.5q48 0 78.5 -29.5t30.5 -78.5z M1167 1627q0 -53 -35 -86t-84 -33t-79 30t-30 77q0 55 34 87.5t87 32.5q47 0 77 -29.5t30 -78.5z" horiz-adv-x="1438" unicode="Ȫ"/><glyph d="M508 -25q-92 0 -169 32t-131 89.5t-84 137t-30 176.5q0 127 37 229t102.5 175t155.5 113t199 40q203 0 307 -117t104 -309q0 -127 -34.5 -231.5t-99 -178.5t-156 -115t-201.5 -41zM514 104q68 0 128 28t104.5 82t71 134t26.5 187q0 151 -73 227t-189 76q-68 0 -128.5 -28 t-105.5 -83t-70.5 -136t-25.5 -188q0 -149 72.5 -224t189.5 -75zM360 1560h620l-12 -113h-620zM548 1236q0 -53 -35 -86t-86 -33q-47 0 -76.5 30t-29.5 77q0 55 33.5 87.5t84.5 32.5q48 0 78.5 -29.5t30.5 -78.5zM940 1236q0 -53 -35 -86t-84 -33t-79 30t-30 77 q0 55 34 87.5t87 32.5q47 0 77 -29.5t30 -78.5z" horiz-adv-x="1092" unicode="ȫ"/><glyph d="M1325 793q0 -148 -39 -294.5t-121 -262t-205.5 -188.5t-291.5 -73q-121 0 -219.5 38t-169 111t-109.5 178.5t-39 240.5q0 143 41 288.5t123 262t205 190.5t286 74q119 0 218.5 -38t170 -110.5t110.5 -178t40 -238.5zM664 111q133 0 227 57t153.5 152.5t86 217t26.5 248.5 q0 213 -100.5 325t-265.5 112q-134 0 -227 -58.5t-152.5 -152.5t-87 -216t-27.5 -247q0 -215 101.5 -326.5t265.5 -111.5zM592 1983h620l-12 -113h-620zM742 1739q32 0 64 -15.5t60.5 -34.5t52.5 -34.5t42 -15.5q17 0 28 9t17.5 23t10.5 32.5t7 37.5l113 -43q4 -30 -4 -63.5 t-28.5 -61.5t-52.5 -46.5t-75 -18.5q-33 0 -64 15.5t-59 34.5t-52.5 34.5t-43.5 15.5q-15 0 -25.5 -8.5t-17.5 -22.5t-12 -32.5t-9 -38.5l-112 43q-2 40 9.5 75t33 60.5t51.5 40t66 14.5z" horiz-adv-x="1438" unicode="Ȭ"/><glyph d="M508 -25q-92 0 -169 32t-131 89.5t-84 137t-30 176.5q0 127 37 229t102.5 175t155.5 113t199 40q203 0 307 -117t104 -309q0 -127 -34.5 -231.5t-99 -178.5t-156 -115t-201.5 -41zM514 104q68 0 128 28t104.5 82t71 134t26.5 187q0 151 -73 227t-189 76q-68 0 -128.5 -28 t-105.5 -83t-70.5 -136t-25.5 -188q0 -149 72.5 -224t189.5 -75zM356 1592h620l-12 -113h-620zM506 1348q32 0 64 -15.5t60.5 -34.5t52.5 -34.5t42 -15.5q17 0 28 9t17.5 23t10.5 32.5t7 37.5l113 -43q4 -30 -4 -63.5t-28.5 -61.5t-52.5 -46.5t-75 -18.5q-33 0 -64 15.5 t-59 34.5t-52.5 34.5t-43.5 15.5q-15 0 -25.5 -8.5t-17.5 -22.5t-12 -32.5t-9 -38.5l-112 43q-2 40 9.5 75t33 60.5t51.5 40t66 14.5z" horiz-adv-x="1092" unicode="ȭ"/><glyph d="M1325 793q0 -148 -39 -294.5t-121 -262t-205.5 -188.5t-291.5 -73q-121 0 -219.5 38t-169 111t-109.5 178.5t-39 240.5q0 143 41 288.5t123 262t205 190.5t286 74q119 0 218.5 -38t170 -110.5t110.5 -178t40 -238.5zM664 111q133 0 227 57t153.5 152.5t86 217t26.5 248.5 q0 213 -100.5 325t-265.5 112q-134 0 -227 -58.5t-152.5 -152.5t-87 -216t-27.5 -247q0 -215 101.5 -326.5t265.5 -111.5zM966 1673q0 -57 -35 -90t-82 -33q-43 0 -77.5 33t-34.5 90q0 53 34.5 85t77.5 32q47 0 82 -32t35 -85z" horiz-adv-x="1438" unicode="Ȯ"/><glyph d="M508 -25q-92 0 -169 32t-131 89.5t-84 137t-30 176.5q0 127 37 229t102.5 175t155.5 113t199 40q203 0 307 -117t104 -309q0 -127 -34.5 -231.5t-99 -178.5t-156 -115t-201.5 -41zM514 104q68 0 128 28t104.5 82t71 134t26.5 187q0 151 -73 227t-189 76q-68 0 -128.5 -28 t-105.5 -83t-70.5 -136t-25.5 -188q0 -149 72.5 -224t189.5 -75zM748 1282q0 -57 -35 -90t-82 -33q-43 0 -77.5 33t-34.5 90q0 53 34.5 85t77.5 32q47 0 82 -32t35 -85z" horiz-adv-x="1092" unicode="ȯ"/><glyph d="M1325 793q0 -148 -39 -294.5t-121 -262t-205.5 -188.5t-291.5 -73q-121 0 -219.5 38t-169 111t-109.5 178.5t-39 240.5q0 143 41 288.5t123 262t205 190.5t286 74q119 0 218.5 -38t170 -110.5t110.5 -178t40 -238.5zM664 111q133 0 227 57t153.5 152.5t86 217t26.5 248.5 q0 213 -100.5 325t-265.5 112q-134 0 -227 -58.5t-152.5 -152.5t-87 -216t-27.5 -247q0 -215 101.5 -326.5t265.5 -111.5zM588 1951h620l-12 -113h-620zM975 1625q0 -57 -35 -90t-82 -33q-43 0 -77.5 33t-34.5 90q0 53 34.5 85t77.5 32q47 0 82 -32t35 -85z" horiz-adv-x="1438" unicode="Ȱ"/><glyph d="M508 -25q-92 0 -169 32t-131 89.5t-84 137t-30 176.5q0 127 37 229t102.5 175t155.5 113t199 40q203 0 307 -117t104 -309q0 -127 -34.5 -231.5t-99 -178.5t-156 -115t-201.5 -41zM514 104q68 0 128 28t104.5 82t71 134t26.5 187q0 151 -73 227t-189 76q-68 0 -128.5 -28 t-105.5 -83t-70.5 -136t-25.5 -188q0 -149 72.5 -224t189.5 -75zM349 1560h620l-12 -113h-620zM736 1234q0 -57 -35 -90t-82 -33q-43 0 -77.5 33t-34.5 90q0 53 34.5 85t77.5 32q47 0 82 -32t35 -85z" horiz-adv-x="1092" unicode="ȱ"/><glyph d="M125 1333h170l258 -680l424 680h178l-537 -821l-61 -512h-162l62 512zM364 1663h620l-12 -113h-620z" horiz-adv-x="1059" unicode="Ȳ"/><glyph d="M360 942l-79 -610q-2 -10 -3.5 -23.5t-1.5 -29.5q0 -80 40 -128.5t126 -48.5q66 0 114 29t83 79t57.5 117.5t34.5 145.5q4 31 11.5 78t13.5 98t12 103.5t12 94.5t9.5 67.5t3.5 27.5h155l-117 -989q-14 -123 -55 -211t-104.5 -145.5t-145.5 -85t-176 -27.5 q-110 0 -178 28.5t-109 63.5q-47 39 -69 92l102 90q19 -41 56 -73q30 -29 82.5 -51.5t130.5 -22.5q79 0 134.5 26.5t91.5 71.5t55.5 103.5t29.5 121.5q10 72 16 115t10 70q7 28 9 45q-29 -53 -72 -94q-37 -35 -93.5 -65t-135.5 -30q-129 0 -205 75t-76 202v29.5t4 31.5 l80 629h147zM307 1272h620l-12 -113h-620z" horiz-adv-x="1044" unicode="ȳ"/><glyph d="M-154 -334q17 -10 41.5 -19t61.5 -9q20 0 43.5 5t45 20t38 45t22.5 79l150 1155h153l-151 -1192q-8 -65 -35 -112.5t-66.5 -79t-89 -47t-102.5 -15.5q-47 0 -82 10.5t-57 24.5z" horiz-adv-x="522" unicode="ȷ"/><glyph d="M37 440h164l110 893h449q168 0 266 -75.5t98 -223.5q0 -55 -22.5 -105t-59 -91t-86 -71t-102.5 -46v-8q68 -27 121 -68q45 -35 83 -92t38 -139q0 -207 -135.5 -310.5t-374.5 -103.5h-436l38 324h-163zM618 125q68 0 125.5 21.5t99.5 60.5t66.5 95t24.5 124 q0 94 -62.5 152.5t-191.5 58.5h-293l-27 -197h291l-12 -116h-291l-22 -199h292zM403 754h269q131 0 207.5 70.5t76.5 193.5q0 84 -56 137t-173 53h-268z" horiz-adv-x="1225" unicode="Ƀ"/><glyph d="M764 475q2 19 2 35v31q0 153 -64.5 224t-189.5 71q-55 0 -97 -11.5t-74 -30t-52.5 -40t-32.5 -41.5l-113 92q17 24 48.5 52t78.5 52.5t106.5 41t131.5 16.5q106 0 184 -34t129 -93.5t77 -143.5t26 -182q0 -102 -28 -199.5t-85 -172t-145 -121t-207 -46.5q-92 0 -161 29 t-114 79t-67.5 119.5t-22.5 151.5q0 23 3 55.5t9 65.5h658zM467 88q113 0 189.5 65.5t88.5 200.5h-503v-10q0 -4 -1 -10t-1 -15q0 -28 8 -67t31.5 -76t68.5 -62.5t119 -25.5z" horiz-adv-x="1024" unicode="ə"/><glyph d="M926 659q-6 -55 -30 -99t-61.5 -77.5t-73.5 -54t-77 -33.5l238 -395h-164l-203 360h-233l-43 -360h-156l113 942h376q168 0 253 -72.5t61 -210.5zM334 473h213q53 0 90 12.5t67.5 36t43 54t16.5 67.5q10 86 -34 135t-150 49h-203z" horiz-adv-x="1079" unicode="ʀ"/><glyph d="M-42 1159l358 328h127l291 -328h-168l-197 238l-245 -238h-166z" horiz-adv-x="512" unicode="ˆ"/><glyph d="M774 1487l-360 -328h-129l-287 328h164l198 -238l246 238h168z" horiz-adv-x="512" unicode="ˇ"/><glyph d="M370 1272q94 0 150.5 61.5t66.5 151.5h139q-8 -70 -35.5 -129.5t-73.5 -103.5t-112 -68.5t-147 -24.5q-166 0 -240 91t-57 235h135q-10 -90 37 -151.5t137 -61.5z" horiz-adv-x="512" unicode="˘"/><glyph d="M482 1282q0 -57 -35 -90t-82 -33q-43 0 -77.5 33t-34.5 90q0 53 34.5 85t77.5 32q47 0 82 -32t35 -85z" horiz-adv-x="512" unicode="˙"/><glyph d="M152 1376q0 49 17 92t49 75t76 51.5t99 19.5q101 0 161.5 -63.5t60.5 -153.5q0 -49 -17.5 -93t-50.5 -76t-77 -50.5t-97 -18.5q-105 0 -163 62.5t-58 154.5zM250 1382q0 -57 35 -95t92 -38t98 41t41 101q0 53 -37 93t-90 40q-59 0 -99 -42t-40 -100z" horiz-adv-x="512" unicode="˚"/><glyph d="M428 18q-260 -116 -260 -227q0 -102 88 -102q59 0 111 43l51 -76q-78 -64 -166 -64q-211 0 -211 181q0 121 201 227q34 20 69 35z" horiz-adv-x="512" unicode="˛"/><glyph d="M240 1392q32 0 64 -15.5t60.5 -34.5t52.5 -34.5t42 -15.5q17 0 28 9t17.5 23t10.5 32.5t7 37.5l113 -43q4 -30 -4 -63.5t-28.5 -61.5t-52.5 -46.5t-75 -18.5q-33 0 -64 15.5t-59 34.5t-52.5 34.5t-43.5 15.5q-15 0 -25.5 -8.5t-17.5 -22.5t-12 -32.5t-9 -38.5l-112 43 q-2 40 9.5 75t33 60.5t51.5 40t66 14.5z" horiz-adv-x="512" unicode="˜"/><glyph d="M385 1542l88 -72l-274 -309l-88 70zM740 1542l88 -72l-275 -309l-88 70z" horiz-adv-x="512" unicode="˝"/><glyph d="M-285 1243l-84 -84l-297 299l84 84z" horiz-adv-x="2" unicode="̀"/><glyph d="M-59 1542l84 -84l-297 -299l-84 84z" horiz-adv-x="2" unicode="́"/><glyph d="M-792 1159l358 328h127l291 -328h-168l-197 238l-245 -238h-166z" horiz-adv-x="2" unicode="̂"/><glyph d="M-497 1392q32 0 64 -15.5t60.5 -34.5t52.5 -34.5t42 -15.5q17 0 28 9t17.5 23t10.5 32.5t7 37.5l113 -43q4 -30 -4 -63.5t-28.5 -61.5t-52.5 -46.5t-75 -18.5q-33 0 -64 15.5t-59 34.5t-52.5 34.5t-43.5 15.5q-15 0 -25.5 -8.5t-17.5 -22.5t-12 -32.5t-9 -38.5l-112 43 q-2 40 9.5 75t33 60.5t51.5 40t66 14.5z" horiz-adv-x="2" unicode="̃"/><glyph d="M-732 1272h620l-12 -113h-620z" horiz-adv-x="2" unicode="̄"/><glyph d="M-345 1272q94 0 150.5 61.5t66.5 151.5h139q-8 -70 -35.5 -129.5t-73.5 -103.5t-112 -68.5t-147 -24.5q-166 0 -240 91t-57 235h135q-10 -90 37 -151.5t137 -61.5z" horiz-adv-x="2" unicode="̆"/><glyph d="M-98 1282q0 -57 -35 -90t-82 -33q-43 0 -77.5 33t-34.5 90q0 53 34.5 85t77.5 32q47 0 82 -32t35 -85z" horiz-adv-x="2" unicode="̇"/><glyph d="M-518 1278q0 -53 -35 -86t-86 -33q-47 0 -76.5 30t-29.5 77q0 55 33.5 87.5t84.5 32.5q48 0 78.5 -29.5t30.5 -78.5zM-106 1278q0 -53 -35 -86t-84 -33t-79 30t-30 77q0 55 34 87.5t87 32.5q47 0 77 -29.5t30 -78.5z" horiz-adv-x="2" unicode="̈"/><glyph d="M-583 1376q0 49 17 92t49 75t76 51.5t99 19.5q101 0 161.5 -63.5t60.5 -153.5q0 -49 -17.5 -93t-50.5 -76t-77 -50.5t-97 -18.5q-105 0 -163 62.5t-58 154.5zM-485 1382q0 -57 35 -95t92 -38t98 41t41 101q0 53 -37 93t-90 40q-59 0 -99 -42t-40 -100z" horiz-adv-x="2" unicode="̊"/><glyph d="M-303 1542l88 -72l-274 -309l-88 70zM52 1542l88 -72l-275 -309l-88 70z" horiz-adv-x="2" unicode="̋"/><glyph d="M57 1487l-360 -328h-129l-287 328h164l198 -238l246 238h168z" horiz-adv-x="2" unicode="̌"/><glyph d="M-237.995 1461.97l-36.9971 -308.981l-148.991 21.999l74.9951 298.981z" horiz-adv-x="2" unicode="̒"/><glyph d="M-590 1165l37 309l149 -22l-75 -299z" horiz-adv-x="2" unicode="̓"/><glyph d="M-568 -315q0 -52 -34 -89.5t-87 -37.5q-47 0 -76 31.5t-29 78.5q0 53 33 91t86 38q47 0 77 -31.5t30 -80.5z" horiz-adv-x="0" unicode="̣"/><glyph d="M-836 -510l37 309l149 -22l-75 -299z" horiz-adv-x="2" unicode="̦"/><glyph d="M-570 35q31 -17 57 -35q132 -90 132 -207q0 -201 -236 -201q-102 0 -172 64l51 76q58 -43 127 -43q103 0 103 114q0 121 -179 215z" horiz-adv-x="2" unicode="̧"/><glyph d="M-436 18q-260 -116 -260 -227q0 -102 88 -102q59 0 111 43l51 -76q-78 -64 -166 -64q-211 0 -211 181q0 121 201 227q34 20 69 35z" horiz-adv-x="2" unicode="̨"/><glyph d="M1085 942l-16 -129h-149l-101 -813h-155l100 813h-377l-100 -813h-156l100 813h-149l16 129h987z" horiz-adv-x="1044" unicode="π"/><glyph d="M129 0l162 1333h395q277 0 418 -143t141 -412q0 -184 -51 -329.5t-143.5 -245t-221.5 -151.5t-284 -52h-416zM565 135q240 0 376 160t136 481q0 207 -93 314.5t-292 107.5h-256l-129 -1063h258zM666 -315q0 -52 -34 -89.5t-87 -37.5q-47 0 -76 31.5t-29 78.5q0 53 33 91 t86 38q47 0 77 -31.5t30 -80.5z" horiz-adv-x="1358" unicode="Ḍ"/><glyph d="M514 102q70 0 133.5 28t109.5 80t73.5 129t27.5 175q0 162 -70.5 243t-191.5 81q-72 0 -134.5 -28t-108.5 -80t-73.5 -129t-27.5 -175q0 -162 70.5 -243t191.5 -81zM1120 1456q-37 -303 -69 -559q-15 -109 -28 -219.5t-25.5 -205.5t-20.5 -169t-12 -108q-2 -15 -3 -29 t-1 -35q0 -53 6 -90q2 -23 6 -41h-142q-4 14 -8 33q-6 30 -6 73v14t2 15h-10q-33 -45 -80 -80q-41 -30 -100.5 -55t-139.5 -25q-90 0 -162.5 31t-124.5 89.5t-81 140t-29 184.5q0 117 37 217t102.5 173t153.5 115t193 42q81 0 139.5 -27t93.5 -57q41 -37 68 -84h10 q12 135 26 262q7 53 13 109.5t12 108.5t12 98t13 79h155zM544 -315q0 -52 -34 -89.5t-87 -37.5q-47 0 -76 31.5t-29 78.5q0 53 33 91t86 38q47 0 77 -31.5t30 -80.5z" horiz-adv-x="1151" unicode="ḍ"/><glyph d="M129 0l162 1333h395q277 0 418 -143t141 -412q0 -184 -51 -329.5t-143.5 -245t-221.5 -151.5t-284 -52h-416zM565 135q240 0 376 160t136 481q0 207 -93 314.5t-292 107.5h-256l-129 -1063h258zM449 -510l37 309l149 -22l-75 -299z" horiz-adv-x="1358" unicode="Ḑ"/><glyph d="M514 102q70 0 133.5 28t109.5 80t73.5 129t27.5 175q0 162 -70.5 243t-191.5 81q-72 0 -134.5 -28t-108.5 -80t-73.5 -129t-27.5 -175q0 -162 70.5 -243t191.5 -81zM1120 1456q-37 -303 -69 -559q-15 -109 -28 -219.5t-25.5 -205.5t-20.5 -169t-12 -108q-2 -15 -3 -29 t-1 -35q0 -53 6 -90q2 -23 6 -41h-142q-4 14 -8 33q-6 30 -6 73v14t2 15h-10q-33 -45 -80 -80q-41 -30 -100.5 -55t-139.5 -25q-90 0 -162.5 31t-124.5 89.5t-81 140t-29 184.5q0 117 37 217t102.5 173t153.5 115t193 42q81 0 139.5 -27t93.5 -57q41 -37 68 -84h10 q12 135 26 262q7 53 13 109.5t12 108.5t12 98t13 79h155zM345 -510l37 309l149 -22l-75 -299z" horiz-adv-x="1151" unicode="ḑ"/><glyph d="M436 1198l-55 -459h561l-16 -135h-561l-58 -469h647l-16 -135h-809l162 1333h782l-16 -135h-621zM410 1643h620l-12 -113h-620zM955 2107l84 -84l-297 -299l-84 84z" horiz-adv-x="1122" unicode="Ḗ"/><glyph d="M254 463q-2 -19 -2 -35v-31q0 -151 66.5 -221t191.5 -70q98 0 161.5 35t90.5 82l112 -92q-38 -65 -132.5 -110.5t-223.5 -45.5q-106 0 -185 32t-132.5 89.5t-80 137t-26.5 178.5q0 102 30 201.5t89 178t148.5 127t209.5 48.5q93 0 159.5 -30t109.5 -81t63.5 -120.5 t20.5 -151.5q0 -23 -3 -55.5t-10 -65.5h-657zM551 854q-113 0 -183.5 -68.5t-95.5 -201.5h504v10q0 4 1 10t1 14q0 27 -8 68t-31.5 78t-68.5 63.5t-119 26.5zM323 1252h620l-12 -113h-620zM868 1716l84 -84l-297 -299l-84 84z" horiz-adv-x="1024" unicode="ḗ"/><glyph d="M1305 1333l-162 -1333h-162l74 602h-690l-74 -602h-162l162 1333h162l-72 -596h690l72 596h162zM704 -315q0 -52 -34 -89.5t-87 -37.5q-47 0 -76 31.5t-29 78.5q0 53 33 91t86 38q47 0 77 -31.5t30 -80.5z" horiz-adv-x="1372" unicode="Ḥ"/><glyph d="M862 -18q-135 0 -135 137q0 28 6 59q10 60 19.5 109t18.5 97t19.5 100.5t22.5 115.5q6 33 6 64q0 88 -48 132t-134 44q-123 0 -202 -91.5t-105 -283.5q-2 -19 -6.5 -47.5t-8.5 -65.5t-8 -76.5t-8 -78.5q-10 -93 -20 -197h-156l176 1456h156l-95 -690h11q32 55 82 100 q41 37 103 69t149 32q131 0 197.5 -73t66.5 -189q0 -35 -6 -72q-25 -146 -47.5 -249t-41.5 -200q-2 -10 -2 -20q0 -35 14.5 -45t39.5 -10q20 0 41 4q8 2 16 6l-18 -117q-13 -6 -29 -10q-31 -10 -74 -10zM584 -313q0 -52 -34 -89.5t-87 -37.5q-47 0 -76 31.5t-29 78.5 q0 54 33 91.5t86 37.5q47 0 77 -31.5t30 -80.5z" horiz-adv-x="1112" unicode="ḥ"/><glyph d="M453 1333l-146 -1198h606l-16 -135h-768l162 1333h162zM583 -315q0 -52 -34 -89.5t-87 -37.5q-47 0 -76 31.5t-29 78.5q0 53 33 91t86 38q47 0 77 -31.5t30 -80.5z" horiz-adv-x="999" unicode="Ḷ"/><glyph d="M287 1456h155l-157 -1214q-4 -31 -6.5 -52.5t-2.5 -31.5q0 -27 23 -40.5t45 -13.5q16 0 31.5 4.5t27.5 8.5q15 6 29 12l-14 -113q-17 -10 -35 -18q-16 -6 -36.5 -11t-47.5 -5q-100 0 -139 48t-39 111v19t2 18zM312 -315q0 -52 -34 -89.5t-87 -37.5q-47 0 -76 31.5 t-29 78.5q0 53 33 91t86 38q47 0 77 -31.5t30 -80.5z" horiz-adv-x="532" unicode="ḷ"/><glyph d="M453 1333l-146 -1198h606l-16 -135h-768l162 1333h162zM400 1663h620l-12 -113h-620zM583 -315q0 -52 -34 -89.5t-87 -37.5q-47 0 -76 31.5t-29 78.5q0 53 33 91t86 38q47 0 77 -31.5t30 -80.5z" horiz-adv-x="999" unicode="Ḹ"/><glyph d="M74 1663h620l-12 -113h-620zM272 1333h155l-142 -1091q-4 -31 -6.5 -52.5t-2.5 -31.5q0 -27 23 -40.5t45 -13.5q16 0 31.5 4.5t27.5 8.5q15 6 29 12l-14 -113q-17 -10 -35 -18q-16 -6 -36.5 -11t-47.5 -5q-100 0 -139 48t-39 111v19t2 18zM312 -315q0 -52 -34 -89.5 t-87 -37.5q-47 0 -76 31.5t-29 78.5q0 53 33 91t86 38q47 0 77 -31.5t30 -80.5z" horiz-adv-x="532" unicode="ḹ"/><glyph d="M686 248l-260 885l-135 -1133h-160l162 1333h231l264 -932l492 932h233l-161 -1333h-160l147 1133l-481 -885h-172zM812 -315q0 -52 -34 -89.5t-87 -37.5q-47 0 -76 31.5t-29 78.5q0 53 33 91t86 38q47 0 77 -31.5t30 -80.5z" horiz-adv-x="1583" unicode="Ṃ"/><glyph d="M911 506q-14 -78 -25.5 -167t-21.5 -165q-10 -88 -20 -174h-156q23 150 43 276q8 54 16.5 108t16.5 100t13 82t9 55q2 10 2 19v19q0 78 -45 129.5t-131 51.5q-61 0 -107 -27t-79 -74t-54.5 -109.5t-33.5 -133.5q-10 -54 -20.5 -138t-20.5 -163q-12 -95 -25 -195h-155 q26 188 49 346q8 68 18.5 133.5t17.5 120.5t13 94t8 54q2 14 3 30.5t1 34.5q0 23 -1 46.5t-3 41.5q-2 23 -4 41h152q0 -16 2 -33q0 -16 1 -33.5t1 -35.5q0 -35 -6 -74h8q29 55 69 100q35 37 89.5 69t126.5 32q92 0 143 -33t76 -74q28 -47 34 -106h9q28 59 73 106 q39 41 100.5 74t149.5 33q82 0 134.5 -24.5t83 -62.5t42 -85t11.5 -93q0 -12 -7.5 -60t-20.5 -118.5t-30.5 -159t-36.5 -182.5q-2 -8 -2 -22q0 -29 16.5 -39t39.5 -10q16 0 36 4q9 2 19 6l-19 -119q-14 -6 -30 -10q-31 -10 -78 -10q-68 0 -98.5 31.5t-30.5 95.5q0 30 6 67 q12 57 24.5 126t23.5 132.5t20.5 113.5t13.5 73q2 12 3 24t1 25q0 32 -8 64t-26.5 54.5t-49.5 37t-78 14.5q-63 0 -113.5 -26t-86 -71t-59 -106.5t-36.5 -130.5zM836 -315q0 -52 -34 -89.5t-87 -37.5q-47 0 -76 31.5t-29 78.5q0 53 33 91t86 38q47 0 77 -31.5t30 -80.5z" horiz-adv-x="1665" unicode="ṃ"/><glyph d="M285 0h-156l162 1333h213l481 -1102l135 1102h156l-162 -1333h-213l-479 1133zM949 1673q0 -57 -35 -90t-82 -33q-43 0 -77.5 33t-34.5 90q0 53 34.5 85t77.5 32q47 0 82 -32t35 -85z" horiz-adv-x="1343" unicode="Ṅ"/><glyph d="M858 -18q-131 0 -131 137q0 28 6 59q17 98 37.5 194.5t44.5 227.5q6 33 6 64q0 88 -48 132t-136 44q-123 0 -204 -97.5t-105 -277.5q-9 -53 -18 -133t-19 -154q-10 -86 -23 -178h-155q26 188 49 346q8 68 18 133.5t17.5 120.5t13.5 94t8 54q2 14 3 30.5t1 34.5 q0 23 -1 46.5t-3 41.5q-2 23 -4 41h152q0 -16 2 -35q2 -16 3 -36.5t1 -41.5v-30.5t-4 -32.5h10q29 55 72 100q36 37 95.5 69t145.5 32q142 0 209.5 -75t67.5 -192v-33.5t-4 -33.5q-13 -76 -26 -137.5t-24.5 -114.5t-21.5 -101.5t-19 -93.5q-2 -10 -2 -24q0 -33 15.5 -42 t38.5 -9q20 0 41 4q8 2 16 6l-18 -119q-13 -6 -29 -10q-31 -10 -78 -10zM784 1282q0 -57 -35 -90t-82 -33q-43 0 -77.5 33t-34.5 90q0 53 34.5 85t77.5 32q47 0 82 -32t35 -85z" horiz-adv-x="1116" unicode="ṅ"/><glyph d="M285 0h-156l162 1333h213l481 -1102l135 1102h156l-162 -1333h-213l-479 1133zM687 -315q0 -52 -34 -89.5t-87 -37.5q-47 0 -76 31.5t-29 78.5q0 53 33 91t86 38q47 0 77 -31.5t30 -80.5z" horiz-adv-x="1343" unicode="Ṇ"/><glyph d="M858 -18q-131 0 -131 137q0 28 6 59q17 98 37.5 194.5t44.5 227.5q6 33 6 64q0 88 -48 132t-136 44q-123 0 -204 -97.5t-105 -277.5q-9 -53 -18 -133t-19 -154q-10 -86 -23 -178h-155q26 188 49 346q8 68 18 133.5t17.5 120.5t13.5 94t8 54q2 14 3 30.5t1 34.5 q0 23 -1 46.5t-3 41.5q-2 23 -4 41h152q0 -16 2 -35q2 -16 3 -36.5t1 -41.5v-30.5t-4 -32.5h10q29 55 72 100q36 37 95.5 69t145.5 32q142 0 209.5 -75t67.5 -192v-33.5t-4 -33.5q-13 -76 -26 -137.5t-24.5 -114.5t-21.5 -101.5t-19 -93.5q-2 -10 -2 -24q0 -33 15.5 -42 t38.5 -9q20 0 41 4q8 2 16 6l-18 -119q-13 -6 -29 -10q-31 -10 -78 -10zM573 -315q0 -52 -34 -89.5t-87 -37.5q-47 0 -76 31.5t-29 78.5q0 53 33 91t86 38q47 0 77 -31.5t30 -80.5z" horiz-adv-x="1116" unicode="ṇ"/><glyph d="M1325 793q0 -148 -39 -294.5t-121 -262t-205.5 -188.5t-291.5 -73q-121 0 -219.5 38t-169 111t-109.5 178.5t-39 240.5q0 143 41 288.5t123 262t205 190.5t286 74q119 0 218.5 -38t170 -110.5t110.5 -178t40 -238.5zM664 111q133 0 227 57t153.5 152.5t86 217t26.5 248.5 q0 213 -100.5 325t-265.5 112q-134 0 -227 -58.5t-152.5 -152.5t-87 -216t-27.5 -247q0 -215 101.5 -326.5t265.5 -111.5zM550 1643h620l-12 -113h-620zM1095 2107l84 -84l-297 -299l-84 84z" horiz-adv-x="1438" unicode="Ṓ"/><glyph d="M508 -25q-92 0 -169 32t-131 89.5t-84 137t-30 176.5q0 127 37 229t102.5 175t155.5 113t199 40q203 0 307 -117t104 -309q0 -127 -34.5 -231.5t-99 -178.5t-156 -115t-201.5 -41zM514 104q68 0 128 28t104.5 82t71 134t26.5 187q0 151 -73 227t-189 76q-68 0 -128.5 -28 t-105.5 -83t-70.5 -136t-25.5 -188q0 -149 72.5 -224t189.5 -75zM352 1252h620l-12 -113h-620zM897 1716l84 -84l-297 -299l-84 84z" horiz-adv-x="1092" unicode="ṓ"/><glyph d="M371 659h235q101 0 164.5 29t100 74t50 100.5t13.5 106.5q0 45 -12.5 87t-42 73.5t-79.5 50t-126 18.5h-238zM854 0l-197 524h-303l-63 -524h-162l162 1333h375q227 0 331.5 -94t104.5 -262q0 -88 -29 -160t-75 -126t-103 -89t-115 -47l230 -555h-156zM607 -315 q0 -52 -34 -89.5t-87 -37.5q-47 0 -76 31.5t-29 78.5q0 53 33 91t86 38q47 0 77 -31.5t30 -80.5z" horiz-adv-x="1163" unicode="Ṛ"/><glyph d="M678 793q-12 2 -25.5 3t-23.5 1q-119 0 -199 -88t-100 -236q-17 -104 -27 -191t-20 -151q-11 -74 -19 -131h-155l108 768q2 14 2 27.5v27.5q0 23 -2 45.5t-4 38.5q-2 21 -4 35h147q2 -10 6 -22q3 -11 5 -29.5t2 -40.5q0 -21 -4.5 -56.5t-8.5 -64.5h11q41 100 112.5 169 t169.5 69q10 0 21.5 -1t21.5 -3zM262 -315q0 -52 -34 -89.5t-87 -37.5q-47 0 -76 31.5t-29 78.5q0 53 33 91t86 38q47 0 77 -31.5t30 -80.5z" horiz-adv-x="702" unicode="ṛ"/><glyph d="M371 659h235q101 0 164.5 29t100 74t50 100.5t13.5 106.5q0 45 -12.5 87t-42 73.5t-79.5 50t-126 18.5h-238zM854 0l-197 524h-303l-63 -524h-162l162 1333h375q227 0 331.5 -94t104.5 -262q0 -88 -29 -160t-75 -126t-103 -89t-115 -47l230 -555h-156zM424 1663h620 l-12 -113h-620zM607 -315q0 -52 -34 -89.5t-87 -37.5q-47 0 -76 31.5t-29 78.5q0 53 33 91t86 38q47 0 77 -31.5t30 -80.5z" horiz-adv-x="1163" unicode="Ṝ"/><glyph d="M678 793q-12 2 -25.5 3t-23.5 1q-119 0 -199 -88t-100 -236q-17 -104 -27 -191t-20 -151q-11 -74 -19 -131h-155l108 768q2 14 2 27.5v27.5q0 23 -2 45.5t-4 38.5q-2 21 -4 35h147q2 -10 6 -22q3 -11 5 -29.5t2 -40.5q0 -21 -4.5 -56.5t-8.5 -64.5h11q41 100 112.5 169 t169.5 69q10 0 21.5 -1t21.5 -3zM150 1272h620l-12 -113h-620zM262 -315q0 -52 -34 -89.5t-87 -37.5q-47 0 -76 31.5t-29 78.5q0 53 33 91t86 38q47 0 77 -31.5t30 -80.5z" horiz-adv-x="702" unicode="ṝ"/><glyph d="M143 1333h977l-16 -137h-408l-145 -1196h-162l146 1196h-408zM540 -315q0 -52 -34 -89.5t-87 -37.5q-47 0 -76 31.5t-29 78.5q0 53 33 91t86 38q47 0 77 -31.5t30 -80.5z" horiz-adv-x="1032" unicode="Ṭ"/><glyph d="M260 942l29 201l157 20l-30 -221h293l-19 -129h-293l-78 -539q-4 -16 -5 -34.5t-1 -30.5q0 -47 23.5 -75t87.5 -28q31 0 58.5 9.5t49.5 21.5q25 15 48 33l41 -129q-27 -18 -62 -33q-29 -12 -68.5 -22.5t-89.5 -10.5q-118 0 -180.5 57.5t-62.5 155.5q0 13 1 25t3 27 l80 573h-150l19 129h149zM410 -315q0 -52 -34 -89.5t-87 -37.5q-47 0 -76 31.5t-29 78.5q0 53 33 91t86 38q47 0 77 -31.5t30 -80.5z" horiz-adv-x="715" unicode="ṭ"/><glyph d="M1151 1333l143 -1179l410 1179h176l-487 -1333h-232l-139 1194l-426 -1194h-211l-170 1333h164l129 -1179l424 1179h219zM1132 1634l-84 -84l-297 299l84 84z" horiz-adv-x="1872" unicode="Ẁ"/><glyph d="M854 942l111 -797l295 797h163l-372 -942h-207l-103 795l-311 -795h-192l-111 942h149l76 -797l314 797h188zM856 1243l-84 -84l-297 299l84 84z" horiz-adv-x="1430" unicode="ẁ"/><glyph d="M1151 1333l143 -1179l410 1179h176l-487 -1333h-232l-139 1194l-426 -1194h-211l-170 1333h164l129 -1179l424 1179h219zM1293 1933l84 -84l-297 -299l-84 84z" horiz-adv-x="1872" unicode="Ẃ"/><glyph d="M854 942l111 -797l295 797h163l-372 -942h-207l-103 795l-311 -795h-192l-111 942h149l76 -797l314 797h188zM995 1542l84 -84l-297 -299l-84 84z" horiz-adv-x="1430" unicode="ẃ"/><glyph d="M1151 1333l143 -1179l410 1179h176l-487 -1333h-232l-139 1194l-426 -1194h-211l-170 1333h164l129 -1179l424 1179h219zM987 1669q0 -53 -35 -86t-86 -33q-47 0 -76.5 30t-29.5 77q0 55 33.5 87.5t84.5 32.5q48 0 78.5 -29.5t30.5 -78.5zM1399 1669q0 -53 -35 -86 t-84 -33t-79 30t-30 77q0 55 34 87.5t87 32.5q47 0 77 -29.5t30 -78.5z" horiz-adv-x="1872" unicode="Ẅ"/><glyph d="M854 942l111 -797l295 797h163l-372 -942h-207l-103 795l-311 -795h-192l-111 942h149l76 -797l314 797h188zM706 1278q0 -53 -35 -86t-86 -33q-47 0 -76.5 30t-29.5 77q0 55 33.5 87.5t84.5 32.5q48 0 78.5 -29.5t30.5 -78.5zM1118 1278q0 -53 -35 -86t-84 -33t-79 30 t-30 77q0 55 34 87.5t87 32.5q47 0 77 -29.5t30 -78.5z" horiz-adv-x="1430" unicode="ẅ"/><glyph d="M203 856q14 111 51 200t101.5 150.5t159.5 94t224 32.5h473l-12 -104l-72 -80l-340 -377v-8q89 0 165.5 -22.5t133 -66.5t90 -107.5t33.5 -145.5q0 -80 -26.5 -160t-83 -143.5t-148.5 -103.5t-223 -40q-67 0 -135 10.5t-111 24.5l19 152q35 -21 98.5 -37t128.5 -16 q141 0 230.5 69.5t89.5 208.5q0 123 -93.5 187.5t-283.5 64.5q-13 0 -24 -1t-21 -3q-6 -2 -21 -2l-10 86l78 90l348 391h-279q-147 0 -250.5 -83t-125.5 -261l-105 -856h-164z" horiz-adv-x="1288" unicode="ẞ"/><glyph d="M125 1333h170l258 -680l424 680h178l-537 -821l-61 -512h-162l62 512zM765 1634l-84 -84l-297 299l84 84z" horiz-adv-x="1059" unicode="Ỳ"/><glyph d="M360 942l-79 -610q-2 -10 -3.5 -23.5t-1.5 -29.5q0 -80 40 -128.5t126 -48.5q66 0 114 29t83 79t57.5 117.5t34.5 145.5q4 31 11.5 78t13.5 98t12 103.5t12 94.5t9.5 67.5t3.5 27.5h155l-117 -989q-14 -123 -55 -211t-104.5 -145.5t-145.5 -85t-176 -27.5 q-110 0 -178 28.5t-109 63.5q-47 39 -69 92l102 90q19 -41 56 -73q30 -29 82.5 -51.5t130.5 -22.5q79 0 134.5 26.5t91.5 71.5t55.5 103.5t29.5 121.5q10 72 16 115t10 70q7 28 9 45q-29 -53 -72 -94q-37 -35 -93.5 -65t-135.5 -30q-129 0 -205 75t-76 202v29.5t4 31.5 l80 629h147zM687 1243l-84 -84l-297 299l84 84z" horiz-adv-x="1044" unicode="ỳ"/><glyph horiz-adv-x="1024"/><glyph horiz-adv-x="1638"/><glyph horiz-adv-x="547"/><glyph horiz-adv-x="410"/><glyph horiz-adv-x="272"/><glyph horiz-adv-x="451"/><glyph horiz-adv-x="328"/><glyph horiz-adv-x="199"/><glyph horiz-adv-x="0" unicode="​"/><glyph d="M90 526h574l-19 -127h-573z" horiz-adv-x="737" unicode="‐"/><glyph d="M90 526h574l-19 -127h-573z" horiz-adv-x="737" unicode="‑"/><glyph d="M100 530h944l-18 -135h-944z" horiz-adv-x="1126" unicode="‒"/><glyph d="M49 530h944l-18 -135h-944z" horiz-adv-x="1024" unicode="–"/><glyph d="M49 530h1557l-19 -135h-1556z" horiz-adv-x="1638" unicode="—"/><glyph d="M215 -329v1784h145v-1784h-145zM563 -329v1784h145v-1784h-145z" horiz-adv-x="862" unicode="‖"/><glyph d="M147 897l27 219q16 72 42 122t48 83q29 37 58 61l110 -63q-18 -19 -39 -47q-16 -25 -33.5 -64t-29.5 -92q-4 -20 -9.5 -58t-9.5 -73q-4 -41 -8 -88h-156z" horiz-adv-x="451" unicode="‘"/><glyph d="M430 1333l-27 -219q-16 -72 -41.5 -122t-48.5 -83q-28 -37 -57 -61l-111 63q19 19 39 47q17 25 34.5 64t29.5 92q4 21 9 58.5t9 72.5q4 41 8 88h156z" horiz-adv-x="553" unicode="’"/><glyph d="M303 217l-27 -219q-16 -72 -41.5 -122t-48.5 -83q-28 -37 -57 -61l-111 63q19 19 39 47q17 25 34.5 64t29.5 92q4 20 9 58t9 73q4 41 8 88h156z" horiz-adv-x="451" unicode="‚"/><glyph d="M127 897l27 219q16 72 42 122t48 83q29 37 58 61l110 -63q-18 -19 -39 -47q-16 -25 -33.5 -64t-29.5 -92q-4 -20 -9.5 -58t-9.5 -73q-4 -41 -8 -88h-156zM454 897l27 219q16 72 42 122t48 83q29 37 58 61l110 -63q-18 -19 -39 -47q-16 -25 -33.5 -64t-29.5 -92 q-4 -20 -9.5 -58t-9.5 -73q-4 -41 -8 -88h-156z" horiz-adv-x="758" unicode="“"/><glyph d="M428 1333l-27 -219q-16 -72 -41.5 -122t-48.5 -83q-28 -37 -57 -61l-111 63q19 19 39 47q17 25 34.5 64t29.5 92q4 21 9 58.5t9 72.5q4 41 8 88h156zM760 1333l-27 -219q-16 -72 -41.5 -122t-48.5 -83q-28 -37 -57 -61l-111 63q19 19 39 47q17 25 34.5 64t29.5 92 q4 21 9 58.5t9 72.5q4 41 8 88h156z" horiz-adv-x="758" unicode="”"/><glyph d="M303 217l-27 -219q-16 -72 -41.5 -122t-48.5 -83q-28 -37 -57 -61l-111 63q19 19 39 47q17 25 34.5 64t29.5 92q4 20 9 58t9 73q4 41 8 88h156zM631 217l-27 -219q-16 -72 -41.5 -122t-48.5 -83q-28 -37 -57 -61l-111 63q19 19 39 47q17 25 34.5 64t29.5 92q4 20 9 58 t9 73q4 41 8 88h156z" horiz-adv-x="758" unicode="„"/><glyph d="M102 993h294l41 340h146l-41 -340h297l-17 -127h-297l-120 -989h-146l121 989h-295z" horiz-adv-x="860" unicode="†"/><glyph d="M224 993h295l41 340h146l-41 -340h297l-17 -127h-297l-63 -525h297l-17 -127h-297l-40 -337h-146l41 337h-295l17 127h294l64 525h-295z" horiz-adv-x="1024" unicode="‡"/><glyph d="M635 537q0 -113 -66.5 -177.5t-158.5 -64.5q-41 0 -81 16.5t-73 48t-52.5 76.5t-19.5 101q0 49 19.5 91t52.5 71.5t73 46t81 16.5q45 0 86 -16.5t71.5 -46t49 -71.5t18.5 -91z" horiz-adv-x="819" unicode="•"/><glyph d="M471 113q0 -52 -34 -89.5t-87 -37.5q-47 0 -76 31.5t-29 78.5q0 54 33 91.5t86 37.5q47 0 77 -31.5t30 -80.5zM1045 113q0 -52 -34 -89.5t-87 -37.5q-47 0 -76 31.5t-29 78.5q0 54 33 91.5t86 37.5q47 0 77 -31.5t30 -80.5zM1639 113q0 -52 -34 -89.5t-87 -37.5 q-47 0 -76 31.5t-29 78.5q0 54 33 91.5t86 37.5q47 0 77 -31.5t30 -80.5z" horiz-adv-x="1884" unicode="…"/><glyph d="M494 0h-131l829 1333h131zM1305 729q133 0 200.5 -78t67.5 -223q0 -219 -91 -332t-245 -113q-135 0 -199.5 78t-64.5 226q0 106 24.5 189t68.5 139.5t105.5 85t133.5 28.5zM1245 84q99 0 152 88t53 250q0 100 -35.5 153.5t-111.5 53.5q-98 0 -151.5 -88.5t-53.5 -247.5 q0 -103 36 -156t111 -53zM2021 729q133 0 200.5 -78t67.5 -223q0 -219 -91 -332t-245 -113q-135 0 -199.5 78t-64.5 226q0 106 24.5 189t68.5 139.5t105.5 85t133.5 28.5zM1961 84q99 0 152 88t53 250q0 100 -35.5 153.5t-111.5 53.5q-98 0 -151.5 -88.5t-53.5 -247.5 q0 -103 36 -156t111 -53zM440 1345q133 0 200.5 -78t67.5 -223q0 -219 -91 -332t-245 -113q-135 0 -199.5 78t-64.5 226q0 106 24.5 189t68.5 139.5t105.5 85t133.5 28.5zM380 700q99 0 152 88t53 250q0 100 -35.5 153.5t-111.5 53.5q-98 0 -151.5 -88.5t-53.5 -247.5 q0 -103 36 -156t111 -53z" horiz-adv-x="2396" unicode="‰"/><glyph d="M276 1333h144l-164 -522h-143z" horiz-adv-x="410" unicode="′"/><glyph d="M215 1333h144l-164 -522h-143zM522 1333h144l-164 -522h-143z" horiz-adv-x="676" unicode="″"/><glyph d="M299 74l-207 368l291 369h154l-283 -369l180 -368h-135z" horiz-adv-x="608" unicode="‹"/><glyph d="M289 811l207 -369l-291 -368h-154l283 368l-180 369h135z" horiz-adv-x="608" unicode="›"/><glyph d="M838 1395h137l-10 -297l6 -6l281 102l43 -131l-287 -82l-2 -6l182 -234l-110 -82l-168 248l-6 -2l-166 -246l-113 80l184 238l-4 4l-284 82l41 131l280 -102l6 6zM1292 711h137l-10 -297l6 -6l281 102l43 -131l-287 -82l-2 -6l182 -234l-110 -82l-168 248l-6 -2 l-166 -246l-113 80l184 238l-4 4l-284 82l41 131l280 -102l6 6zM379 711h137l-10 -297l6 -6l281 102l43 -131l-287 -82l-2 -6l182 -234l-110 -82l-168 248l-6 -2l-166 -246l-113 80l184 238l-4 4l-284 82l41 131l280 -102l6 6z" horiz-adv-x="1810" unicode="⁂"/><glyph d="M-289 0h-131l829 1333h131z" horiz-adv-x="160" unicode="⁄"/><glyph d="M522 1705q133 0 200.5 -78t67.5 -223q0 -219 -91 -332t-245 -113q-135 0 -199.5 78t-64.5 226q0 106 24.5 189t68.5 139.5t105.5 85t133.5 28.5zM462 1060q99 0 152 88t53 250q0 100 -35.5 153.5t-111.5 53.5q-98 0 -151.5 -88.5t-53.5 -247.5q0 -103 36 -156t111 -53z" horiz-adv-x="778" unicode="⁰"/><glyph d="M514 1693h157l-57 -480h143l-12 -92h-139l-19 -145h-112l18 145h-354l-29 66l47 59zM557 1611l-297 -398h246z" horiz-adv-x="717" unicode="⁴"/><glyph d="M356 1412q23 10 60.5 16.5t74.5 6.5q49 0 93 -15.5t78 -44t51.5 -72.5t13.5 -102q-11 -112 -96 -176.5t-205 -64.5q-105 0 -168.5 33.5t-91.5 74.5l90 88q16 -41 58 -73.5t108 -32.5q86 0 130 42t48 103q6 68 -31 109t-111 41q-45 0 -85 -17.5t-62 -36.5l-80 43l80 359 h432l-8 -97h-338z" horiz-adv-x="717" unicode="⁵"/><glyph d="M450 959q-78 0 -132 27t-86 73t-43 107.5t-5 134.5q6 64 24.5 134.5t57.5 131t103.5 99.5t160.5 39q102 0 160.5 -38t79.5 -75l-101 -63q-8 28 -39.5 57t-101.5 29q-57 0 -97 -25.5t-65.5 -65.5t-39 -87t-19.5 -90h8q27 40 76 67t125 27q61 0 106 -19.5t75 -52.5t42 -75 t8 -87q-4 -39 -21.5 -83t-53 -80.5t-91 -60.5t-131.5 -24zM622 1197q6 68 -35 110t-112 42q-31 0 -59.5 -10.5t-52 -30t-41 -46t-19.5 -59.5q-4 -57 30.5 -105t112.5 -48q66 0 118 38.5t58 108.5z" horiz-adv-x="717" unicode="⁶"/><glyph d="M735 1693l-6 -82q-66 -66 -118 -143.5t-91 -160.5t-64.5 -169t-40.5 -166h-120q24 184 100 337.5t201 282.5h-435l9 101h565z" horiz-adv-x="655" unicode="⁷"/><glyph d="M600 1357q59 -21 107 -66t42 -117q-8 -104 -93 -159.5t-206 -55.5q-63 0 -117.5 14.5t-92.5 41t-58.5 66.5t-15.5 89q4 39 20 69t41 53.5t56.5 39t60.5 25.5q-47 20 -81 58t-28 99q6 76 78 133.5t182 57.5q54 0 101 -13.5t80.5 -38t52 -59t14.5 -75.5q-6 -68 -49 -106 t-94 -56zM352 1506q-4 -47 31.5 -77.5t95.5 -30.5q55 0 97 28.5t46 79.5q6 51 -30.5 80t-94.5 29q-59 0 -99 -30t-46 -79zM288 1177q-4 -62 40 -94.5t118 -32.5q72 0 124 31.5t56 95.5q6 59 -40 95t-117 36q-72 0 -123 -35t-58 -96z" horiz-adv-x="717" unicode="⁸"/><glyph d="M467 1705q77 0 131.5 -26.5t86 -72.5t43 -107.5t3.5 -135.5q-4 -64 -22.5 -134.5t-57.5 -131t-104.5 -99.5t-161.5 -39q-103 0 -161 38t-77 75l100 64q7 -29 39.5 -57.5t102.5 -28.5q57 0 96 25.5t65.5 65.5t40 87t15.5 90h-10q-21 -41 -71 -67.5t-126 -26.5 q-61 0 -106.5 19.5t-74 52t-40.5 74.5t-10 87q4 39 22.5 83t54 81t91 60.5t131.5 23.5zM295 1467q-7 -67 33 -109t112 -42q31 0 59.5 10t53 29.5t41 46t20.5 59.5q4 58 -32 106t-113 48q-66 0 -117 -39t-57 -109z" horiz-adv-x="717" unicode="⁹"/><glyph d="M188 1383h264v267h115v-267h264v-102h-264v-266h-115v266h-264v102z" horiz-adv-x="840" unicode="⁺"/><glyph d="M188 1383h643v-102h-643v102z" horiz-adv-x="840" unicode="⁻"/><glyph d="M198 1486h643v-103h-643v103zM198 1281h643v-102h-643v102z" horiz-adv-x="840" unicode="⁼"/><glyph d="M192 1289q0 127 43 223.5t115 178.5h119q-70 -86 -106.5 -186.5t-36.5 -215.5q0 -47 3 -87t10 -77t18.5 -73.5t27.5 -77.5h-119q-18 39 -32.5 72.5t-23.5 69.5t-13.5 78t-4.5 95z" horiz-adv-x="410" unicode="⁽"/><glyph d="M397 1375q0 -127 -43 -223t-114 -178h-119q69 86 106 186.5t37 214.5q0 47 -3 87t-10 77t-18.5 74t-27.5 78h118q19 -39 33.5 -73t23.5 -70t13 -78t4 -95z" horiz-adv-x="410" unicode="⁾"/><glyph d="M306 379q133 0 200.5 -78t67.5 -223q0 -219 -91 -332t-245 -113q-135 0 -199.5 78t-64.5 226q0 106 24.5 189t68.5 139.5t105.5 85t133.5 28.5zM246 -266q99 0 152 88t53 250q0 100 -35.5 153.5t-111.5 53.5q-98 0 -151.5 -88.5t-53.5 -247.5q0 -103 36 -156t111 -53z" horiz-adv-x="778" unicode="₀"/><glyph d="M38 -252h221l57 461q-26 -14 -79.5 -23.5t-118.5 -9.5v98q51 0 86.5 7.5t68.5 19.5t60.5 29.5t44.5 36.5h78l-76 -619h211l-13 -98h-553z" horiz-adv-x="717" unicode="₁"/><glyph d="M51 117q-2 10 -3 23.5t-1 23.5q0 45 20.5 84t56.5 68.5t84 46t103 16.5q100 0 170 -52.5t70 -158.5q0 -66 -30 -121t-80 -104t-117.5 -95.5t-141.5 -91.5h350l-12 -106h-545l10 78q82 47 161 98t141.5 104.5t101.5 106.5t39 106q0 62 -32 99t-99 37q-62 0 -102 -40 t-40 -106v-25.5t2 -25.5z" horiz-adv-x="717" unicode="₂"/><glyph d="M103 262q33 51 90 84t150 33q106 0 167.5 -46t61.5 -124q0 -47 -23.5 -78t-52.5 -49q-35 -23 -76 -33q43 -6 78 -28q29 -19 53.5 -52.5t24.5 -89.5q0 -65 -26.5 -111t-69.5 -76t-95.5 -44.5t-103.5 -14.5q-45 0 -87 9.5t-75.5 26t-61.5 37t-38 40.5l78 98 q6 -18 23.5 -38.5t43 -38t56 -28.5t63.5 -11t63.5 8t55.5 24.5t39 44t14 66.5q0 41 -29.5 72.5t-107.5 31.5q-14 0 -28.5 -1t-47.5 -3q-22 -2 -47 -8l19 111q10 -2 37.5 -3t37.5 -1q66 0 115 25.5t49 92.5q0 43 -28.5 71t-94.5 28q-69 0 -108 -33t-62 -80z" horiz-adv-x="717" unicode="₃"/><glyph d="M378 367h157l-57 -480h143l-12 -92h-139l-19 -145h-112l18 145h-354l-29 66l47 59zM421 285l-297 -398h246z" horiz-adv-x="717" unicode="₄"/><glyph d="M230 88q23 10 60.5 16.5t74.5 6.5q49 0 93 -15.5t78 -44t51.5 -72.5t13.5 -102q-11 -112 -96 -176.5t-205 -64.5q-105 0 -168.5 33.5t-91.5 74.5l90 88q16 -41 58 -73.5t108 -32.5q86 0 130 42t48 103q6 68 -31 109t-111 41q-45 0 -85 -17.5t-62 -36.5l-80 43l80 359h432 l-8 -97h-338z" horiz-adv-x="717" unicode="₅"/><glyph d="M324 -367q-78 0 -132 27t-86 73t-43 107.5t-5 134.5q6 64 24.5 134.5t57.5 131t103.5 99.5t160.5 39q102 0 160.5 -38t79.5 -75l-101 -63q-8 28 -39.5 57t-101.5 29q-57 0 -97 -25.5t-65.5 -65.5t-39 -87t-19.5 -90h8q27 40 76 67t125 27q61 0 106 -19.5t75 -52.5t42 -75 t8 -87q-4 -39 -21.5 -83t-53 -80.5t-91 -60.5t-131.5 -24zM496 -129q6 68 -35 110t-112 42q-31 0 -59.5 -10.5t-52 -30t-41 -46t-19.5 -59.5q-4 -57 30.5 -105t112.5 -48q66 0 118 38.5t58 108.5z" horiz-adv-x="717" unicode="₆"/><glyph d="M599 371l-6 -82q-66 -66 -118 -143.5t-91 -160.5t-64.5 -169t-40.5 -166h-120q24 184 100 337.5t201 282.5h-435l9 101h565z" horiz-adv-x="655" unicode="₇"/><glyph d="M474 31q59 -21 107 -66t42 -117q-8 -104 -93 -159.5t-206 -55.5q-63 0 -117.5 14.5t-92.5 41t-58.5 66.5t-15.5 89q4 39 20 69t41 53.5t56.5 39t60.5 25.5q-47 20 -81 58t-28 99q6 76 78 133.5t182 57.5q54 0 101 -13.5t80.5 -38t52 -59t14.5 -75.5q-6 -68 -49 -106 t-94 -56zM226 180q-4 -47 31.5 -77.5t95.5 -30.5q55 0 97 28.5t46 79.5q6 51 -30.5 80t-94.5 29q-59 0 -99 -30t-46 -79zM162 -149q-4 -62 40 -94.5t118 -32.5q72 0 124 31.5t56 95.5q6 59 -40 95t-117 36q-72 0 -123 -35t-58 -96z" horiz-adv-x="717" unicode="₈"/><glyph d="M351 379q77 0 131.5 -26.5t86 -72.5t43 -107.5t3.5 -135.5q-4 -64 -22.5 -134.5t-57.5 -131t-104.5 -99.5t-161.5 -39q-103 0 -161 38t-77 75l100 64q7 -29 39.5 -57.5t102.5 -28.5q57 0 96 25.5t65.5 65.5t40 87t15.5 90h-10q-21 -41 -71 -67.5t-126 -26.5 q-61 0 -106.5 19.5t-74 52t-40.5 74.5t-10 87q4 39 22.5 83t54 81t91 60.5t131.5 23.5zM179 141q-7 -67 33 -109t112 -42q31 0 59.5 10t53 29.5t41 46t20.5 59.5q4 58 -32 106t-113 48q-66 0 -117 -39t-57 -109z" horiz-adv-x="717" unicode="₉"/><glyph d="M-13 57h264v267h115v-267h264v-102h-264v-266h-115v266h-264v102z" horiz-adv-x="840" unicode="₊"/><glyph d="M-13 57h643v-102h-643v102z" horiz-adv-x="840" unicode="₋"/><glyph d="M-13 160h643v-103h-643v103zM-13 -45h643v-102h-643v102z" horiz-adv-x="840" unicode="₌"/><glyph d="M-9 -37q0 127 43 223.5t115 178.5h119q-70 -86 -106.5 -186.5t-36.5 -215.5q0 -47 3 -87t10 -77t18.5 -73.5t27.5 -77.5h-119q-18 39 -32.5 72.5t-23.5 69.5t-13.5 78t-4.5 95z" horiz-adv-x="410" unicode="₍"/><glyph d="M196 49q0 -127 -43 -223t-114 -178h-119q69 86 106 186.5t37 214.5q0 47 -3 87t-10 77t-18.5 74t-27.5 78h118q19 -39 33.5 -73t23.5 -70t13 -78t4 -95z" horiz-adv-x="410" unicode="₎"/><glyph d="M652 -147q-2 -25 -4 -41.5t-2 -26.5q0 -25 7 -34t25 -9q11 0 20 2t15 4q10 4 19 8l-15 -94q-8 -6 -18 -12q-23 -13 -53 -13q-41 0 -64.5 21.5t-34 46.5t-11.5 46.5t-1 25.5h-10q-21 -41 -53 -72q-29 -25 -74 -47.5t-113 -22.5q-67 0 -122.5 24t-94.5 68t-59.5 106.5 t-20.5 135.5q0 88 26.5 163t75 130t116 86t145.5 31q63 0 107 -21.5t71 -48.5q31 -28 49 -67l8 4l19 114h120zM308 -258q55 0 100 22.5t77 63.5t49 97.5t17 121.5q0 117 -52 171t-138 54q-57 0 -102.5 -22.5t-76 -63.5t-48 -96t-17.5 -121q0 -116 52.5 -171.5t138.5 -55.5z" horiz-adv-x="895" unicode="ₐ"/><glyph d="M127 -10v-24v-23q0 -103 48 -151t139 -48q73 0 119 25.5t65 62.5l96 -70q-31 -53 -102.5 -90t-169.5 -37q-82 0 -142.5 24t-101.5 67t-60.5 103t-19.5 134q0 76 22.5 150.5t67.5 134t113 95.5t162 36q67 0 118.5 -23.5t85 -62.5t49 -92.5t15.5 -116.5q0 -19 -3 -44.5 t-7 -49.5h-494zM344 285q-82 0 -133 -49.5t-69 -143.5h368v14.5v10.5q0 18 -6 48t-22.5 55.5t-49 45t-88.5 19.5z" horiz-adv-x="770" unicode="ₑ"/><glyph d="M312 -365q-68 0 -127.5 24t-100.5 67t-63.5 103t-22.5 132q0 94 27.5 171t78 132t119 85t152.5 30q154 0 232.5 -88t78.5 -232q0 -96 -25.5 -174t-74.5 -133t-118.5 -86t-155.5 -31zM320 -258q47 0 92 19.5t76.5 59.5t51 98t19.5 134q0 109 -53 164t-139 55 q-47 0 -92 -20.5t-78 -60t-51.5 -98t-18.5 -134.5q0 -109 53.5 -163t139.5 -54z" horiz-adv-x="825" unicode="ₒ"/><glyph d="M359 82l206 285h150l-291 -363l199 -344h-144l-145 285l-221 -285h-154l314 362l-201 345h139z" horiz-adv-x="807" unicode="ₓ"/><glyph d="M502 18v54q0 104 -50 151t-143 47q-73 0 -112 -25.5t-66 -62.5l-96 70q14 20 40 42.5t61.5 41t78.5 31t92 12.5q166 0 245 -92t79 -240q0 -78 -21.5 -151.5t-65.5 -131t-111.5 -93.5t-159.5 -36q-140 0 -207.5 82t-67.5 207q0 19 3 44.5t7 49.5h494zM285 -270 q86 0 139 43t64 143h-369v-25q0 -18 5 -45.5t22.5 -53.5t50.5 -44t88 -18z" horiz-adv-x="770" unicode="ₔ"/><glyph d="M182 868h162q37 119 99.5 210t142.5 153.5t174 94.5t194 32q117 0 200 -26.5t128 -63.5l-53 -135q-41 36 -120 63t-175 27q-158 0 -266.5 -94.5t-159.5 -260.5h606l-31 -125h-602q-4 -34 -9 -70t-5 -85h541l-33 -125h-502q29 -170 128 -261t253 -91q109 0 191.5 28.5 t130.5 69.5l-11 -162q-59 -29 -145 -50.5t-189 -21.5q-96 0 -183 31t-155.5 92.5t-116.5 152.5t-65 212h-182l33 125h141q0 39 4 76.5t10 78.5h-167z" horiz-adv-x="1311" unicode="€"/><glyph d="M1676 1333l-87 -716h-111l70 573l-250 -457h-117l-138 457l-70 -573h-110l87 716h161l145 -475l258 475h162zM811 1239h-264l-76 -622h-110l76 622h-254l11 94h628z" horiz-adv-x="1827" unicode="™"/><glyph d="M535 0h-131l829 1333h131zM103 714h221l57 461q-26 -14 -79.5 -23.5t-118.5 -9.5v98q51 0 86.5 7.5t68.5 19.5t60.5 29.5t44.5 36.5h78l-76 -619h211l-13 -98h-553zM1131 612q33 51 90 84t150 33q106 0 167.5 -46t61.5 -124q0 -47 -23.5 -78t-52.5 -49q-35 -23 -76 -33 q43 -6 78 -28q29 -19 53.5 -52.5t24.5 -89.5q0 -65 -26.5 -111t-69.5 -76t-95.5 -44.5t-103.5 -14.5q-45 0 -87 9.5t-75.5 26t-61.5 37t-38 40.5l78 98q6 -18 23.5 -38.5t43 -38t56 -28.5t63.5 -11t63.5 8t55.5 24.5t39 44t14 66.5q0 41 -29.5 72.5t-107.5 31.5 q-14 0 -28.5 -1t-47.5 -3q-22 -2 -47 -8l19 111q10 -2 37.5 -3t37.5 -1q66 0 115 25.5t49 92.5q0 43 -28.5 71t-94.5 28q-69 0 -108 -33t-62 -80z" horiz-adv-x="1679" unicode="⅓"/><glyph d="M535 0h-131l829 1333h131zM1131 612q33 51 90 84t150 33q106 0 167.5 -46t61.5 -124q0 -47 -23.5 -78t-52.5 -49q-35 -23 -76 -33q43 -6 78 -28q29 -19 53.5 -52.5t24.5 -89.5q0 -65 -26.5 -111t-69.5 -76t-95.5 -44.5t-103.5 -14.5q-45 0 -87 9.5t-75.5 26t-61.5 37 t-38 40.5l78 98q6 -18 23.5 -38.5t43 -38t56 -28.5t63.5 -11t63.5 8t55.5 24.5t39 44t14 66.5q0 41 -29.5 72.5t-107.5 31.5q-14 0 -28.5 -1t-47.5 -3q-22 -2 -47 -8l19 111q10 -2 37.5 -3t37.5 -1q66 0 115 25.5t49 92.5q0 43 -28.5 71t-94.5 28q-69 0 -108 -33t-62 -80z M173 1083q-2 10 -3 23.5t-1 23.5q0 45 20.5 84t56.5 68.5t84 46t103 16.5q100 0 170 -52.5t70 -158.5q0 -66 -30 -121t-80 -104t-117.5 -95.5t-141.5 -91.5h350l-12 -106h-545l10 78q82 47 161 98t141.5 104.5t101.5 106.5t39 106q0 62 -32 99t-99 37q-62 0 -102 -40 t-40 -106v-25.5t2 -25.5z" horiz-adv-x="1679" unicode="⅔"/><glyph d="M535 0h-131l829 1333h131zM103 714h221l57 461q-26 -14 -79.5 -23.5t-118.5 -9.5v98q51 0 86.5 7.5t68.5 19.5t60.5 29.5t44.5 36.5h78l-76 -619h211l-13 -98h-553zM1244 438q23 10 60.5 16.5t74.5 6.5q49 0 93 -15.5t78 -44t51.5 -72.5t13.5 -102q-11 -112 -96 -176.5 t-205 -64.5q-105 0 -168.5 33.5t-91.5 74.5l90 88q16 -41 58 -73.5t108 -32.5q86 0 130 42t48 103q6 68 -31 109t-111 41q-45 0 -85 -17.5t-62 -36.5l-80 43l80 359h432l-8 -97h-338z" horiz-adv-x="1679" unicode="⅕"/><glyph d="M535 0h-131l829 1333h131zM1244 438q23 10 60.5 16.5t74.5 6.5q49 0 93 -15.5t78 -44t51.5 -72.5t13.5 -102q-11 -112 -96 -176.5t-205 -64.5q-105 0 -168.5 33.5t-91.5 74.5l90 88q16 -41 58 -73.5t108 -32.5q86 0 130 42t48 103q6 68 -31 109t-111 41q-45 0 -85 -17.5 t-62 -36.5l-80 43l80 359h432l-8 -97h-338zM173 1083q-2 10 -3 23.5t-1 23.5q0 45 20.5 84t56.5 68.5t84 46t103 16.5q100 0 170 -52.5t70 -158.5q0 -66 -30 -121t-80 -104t-117.5 -95.5t-141.5 -91.5h350l-12 -106h-545l10 78q82 47 161 98t141.5 104.5t101.5 106.5t39 106 q0 62 -32 99t-99 37q-62 0 -102 -40t-40 -106v-25.5t2 -25.5z" horiz-adv-x="1679" unicode="⅖"/><glyph d="M535 0h-131l829 1333h131zM1244 438q23 10 60.5 16.5t74.5 6.5q49 0 93 -15.5t78 -44t51.5 -72.5t13.5 -102q-11 -112 -96 -176.5t-205 -64.5q-105 0 -168.5 33.5t-91.5 74.5l90 88q16 -41 58 -73.5t108 -32.5q86 0 130 42t48 103q6 68 -31 109t-111 41q-45 0 -85 -17.5 t-62 -36.5l-80 43l80 359h432l-8 -97h-338zM235 1228q33 51 90 84t150 33q106 0 167.5 -46t61.5 -124q0 -47 -23.5 -78t-52.5 -49q-35 -23 -76 -33q43 -6 78 -28q29 -19 53.5 -52.5t24.5 -89.5q0 -65 -26.5 -111t-69.5 -76t-95.5 -44.5t-103.5 -14.5q-45 0 -87 9.5t-75.5 26 t-61.5 37t-38 40.5l78 98q6 -18 23.5 -38.5t43 -38t56 -28.5t63.5 -11t63.5 8t55.5 24.5t39 44t14 66.5q0 41 -29.5 72.5t-107.5 31.5q-14 0 -28.5 -1t-47.5 -3q-22 -2 -47 -8l19 111q10 -2 37.5 -3t37.5 -1q66 0 115 25.5t49 92.5q0 43 -28.5 71t-94.5 28q-69 0 -108 -33 t-62 -80z" horiz-adv-x="1679" unicode="⅗"/><glyph d="M535 0h-131l829 1333h131zM494 1333h157l-57 -480h143l-12 -92h-139l-19 -145h-112l18 145h-354l-29 66l47 59zM537 1251l-297 -398h246zM1244 438q23 10 60.5 16.5t74.5 6.5q49 0 93 -15.5t78 -44t51.5 -72.5t13.5 -102q-11 -112 -96 -176.5t-205 -64.5 q-105 0 -168.5 33.5t-91.5 74.5l90 88q16 -41 58 -73.5t108 -32.5q86 0 130 42t48 103q6 68 -31 109t-111 41q-45 0 -85 -17.5t-62 -36.5l-80 43l80 359h432l-8 -97h-338z" horiz-adv-x="1679" unicode="⅘"/><glyph d="M535 0h-131l829 1333h131zM103 714h221l57 461q-26 -14 -79.5 -23.5t-118.5 -9.5v98q51 0 86.5 7.5t68.5 19.5t60.5 29.5t44.5 36.5h78l-76 -619h211l-13 -98h-553zM1351 -17q-78 0 -132 27t-86 73t-43 107.5t-5 134.5q6 64 24.5 134.5t57.5 131t103.5 99.5t160.5 39 q102 0 160.5 -38t79.5 -75l-101 -63q-8 28 -39.5 57t-101.5 29q-57 0 -97 -25.5t-65.5 -65.5t-39 -87t-19.5 -90h8q27 40 76 67t125 27q61 0 106 -19.5t75 -52.5t42 -75t8 -87q-4 -39 -21.5 -83t-53 -80.5t-91 -60.5t-131.5 -24zM1523 221q6 68 -35 110t-112 42 q-31 0 -59.5 -10.5t-52 -30t-41 -46t-19.5 -59.5q-4 -57 30.5 -105t112.5 -48q66 0 118 38.5t58 108.5z" horiz-adv-x="1679" unicode="⅙"/><glyph d="M535 0h-131l829 1333h131zM1351 -17q-78 0 -132 27t-86 73t-43 107.5t-5 134.5q6 64 24.5 134.5t57.5 131t103.5 99.5t160.5 39q102 0 160.5 -38t79.5 -75l-101 -63q-8 28 -39.5 57t-101.5 29q-57 0 -97 -25.5t-65.5 -65.5t-39 -87t-19.5 -90h8q27 40 76 67t125 27 q61 0 106 -19.5t75 -52.5t42 -75t8 -87q-4 -39 -21.5 -83t-53 -80.5t-91 -60.5t-131.5 -24zM1523 221q6 68 -35 110t-112 42q-31 0 -59.5 -10.5t-52 -30t-41 -46t-19.5 -59.5q-4 -57 30.5 -105t112.5 -48q66 0 118 38.5t58 108.5zM313 1052q23 10 60.5 16.5t74.5 6.5 q49 0 93 -15.5t78 -44t51.5 -72.5t13.5 -102q-11 -112 -96 -176.5t-205 -64.5q-105 0 -168.5 33.5t-91.5 74.5l90 88q16 -41 58 -73.5t108 -32.5q86 0 130 42t48 103q6 68 -31 109t-111 41q-45 0 -85 -17.5t-62 -36.5l-80 43l80 359h432l-8 -97h-338z" horiz-adv-x="1679" unicode="⅚"/><glyph d="M535 0h-131l829 1333h131zM1497 381q59 -21 107 -66t42 -117q-8 -104 -93 -159.5t-206 -55.5q-63 0 -117.5 14.5t-92.5 41t-58.5 66.5t-15.5 89q4 39 20 69t41 53.5t56.5 39t60.5 25.5q-47 20 -81 58t-28 99q6 76 78 133.5t182 57.5q54 0 101 -13.5t80.5 -38t52 -59 t14.5 -75.5q-6 -68 -49 -106t-94 -56zM1249 530q-4 -47 31.5 -77.5t95.5 -30.5q55 0 97 28.5t46 79.5q6 51 -30.5 80t-94.5 29q-59 0 -99 -30t-46 -79zM1185 201q-4 -62 40 -94.5t118 -32.5q72 0 124 31.5t56 95.5q6 59 -40 95t-117 36q-72 0 -123 -35t-58 -96zM103 714h221 l57 461q-26 -14 -79.5 -23.5t-118.5 -9.5v98q51 0 86.5 7.5t68.5 19.5t60.5 29.5t44.5 36.5h78l-76 -619h211l-13 -98h-553z" horiz-adv-x="1679" unicode="⅛"/><glyph d="M535 0h-131l829 1333h131zM1497 381q59 -21 107 -66t42 -117q-8 -104 -93 -159.5t-206 -55.5q-63 0 -117.5 14.5t-92.5 41t-58.5 66.5t-15.5 89q4 39 20 69t41 53.5t56.5 39t60.5 25.5q-47 20 -81 58t-28 99q6 76 78 133.5t182 57.5q54 0 101 -13.5t80.5 -38t52 -59 t14.5 -75.5q-6 -68 -49 -106t-94 -56zM1249 530q-4 -47 31.5 -77.5t95.5 -30.5q55 0 97 28.5t46 79.5q6 51 -30.5 80t-94.5 29q-59 0 -99 -30t-46 -79zM1185 201q-4 -62 40 -94.5t118 -32.5q72 0 124 31.5t56 95.5q6 59 -40 95t-117 36q-72 0 -123 -35t-58 -96zM235 1228 q33 51 90 84t150 33q106 0 167.5 -46t61.5 -124q0 -47 -23.5 -78t-52.5 -49q-35 -23 -76 -33q43 -6 78 -28q29 -19 53.5 -52.5t24.5 -89.5q0 -65 -26.5 -111t-69.5 -76t-95.5 -44.5t-103.5 -14.5q-45 0 -87 9.5t-75.5 26t-61.5 37t-38 40.5l78 98q6 -18 23.5 -38.5t43 -38 t56 -28.5t63.5 -11t63.5 8t55.5 24.5t39 44t14 66.5q0 41 -29.5 72.5t-107.5 31.5q-14 0 -28.5 -1t-47.5 -3q-22 -2 -47 -8l19 111q10 -2 37.5 -3t37.5 -1q66 0 115 25.5t49 92.5q0 43 -28.5 71t-94.5 28q-69 0 -108 -33t-62 -80z" horiz-adv-x="1679" unicode="⅜"/><glyph d="M535 0h-131l829 1333h131zM1497 381q59 -21 107 -66t42 -117q-8 -104 -93 -159.5t-206 -55.5q-63 0 -117.5 14.5t-92.5 41t-58.5 66.5t-15.5 89q4 39 20 69t41 53.5t56.5 39t60.5 25.5q-47 20 -81 58t-28 99q6 76 78 133.5t182 57.5q54 0 101 -13.5t80.5 -38t52 -59 t14.5 -75.5q-6 -68 -49 -106t-94 -56zM1249 530q-4 -47 31.5 -77.5t95.5 -30.5q55 0 97 28.5t46 79.5q6 51 -30.5 80t-94.5 29q-59 0 -99 -30t-46 -79zM1185 201q-4 -62 40 -94.5t118 -32.5q72 0 124 31.5t56 95.5q6 59 -40 95t-117 36q-72 0 -123 -35t-58 -96zM313 1052 q23 10 60.5 16.5t74.5 6.5q49 0 93 -15.5t78 -44t51.5 -72.5t13.5 -102q-11 -112 -96 -176.5t-205 -64.5q-105 0 -168.5 33.5t-91.5 74.5l90 88q16 -41 58 -73.5t108 -32.5q86 0 130 42t48 103q6 68 -31 109t-111 41q-45 0 -85 -17.5t-62 -36.5l-80 43l80 359h432l-8 -97 h-338z" horiz-adv-x="1679" unicode="⅝"/><glyph d="M535 0h-131l829 1333h131zM1497 381q59 -21 107 -66t42 -117q-8 -104 -93 -159.5t-206 -55.5q-63 0 -117.5 14.5t-92.5 41t-58.5 66.5t-15.5 89q4 39 20 69t41 53.5t56.5 39t60.5 25.5q-47 20 -81 58t-28 99q6 76 78 133.5t182 57.5q54 0 101 -13.5t80.5 -38t52 -59 t14.5 -75.5q-6 -68 -49 -106t-94 -56zM1249 530q-4 -47 31.5 -77.5t95.5 -30.5q55 0 97 28.5t46 79.5q6 51 -30.5 80t-94.5 29q-59 0 -99 -30t-46 -79zM1185 201q-4 -62 40 -94.5t118 -32.5q72 0 124 31.5t56 95.5q6 59 -40 95t-117 36q-72 0 -123 -35t-58 -96zM778 1333 l-6 -82q-66 -66 -118 -143.5t-91 -160.5t-64.5 -169t-40.5 -166h-120q24 184 100 337.5t201 282.5h-435l9 101h565z" horiz-adv-x="1679" unicode="⅞"/><glyph d="M535 0h-131l829 1333h131zM103 714h221l57 461q-26 -14 -79.5 -23.5t-118.5 -9.5v98q51 0 86.5 7.5t68.5 19.5t60.5 29.5t44.5 36.5h78l-76 -619h211l-13 -98h-553z" horiz-adv-x="1679" unicode="⅟"/><glyph d="M631 1036l82 -96l-365 -348h993v-135h-993l365 -348l-82 -97l-512 512z" horiz-adv-x="1475" unicode="←"/><glyph d="M1147 606l-98 -82l-347 363v-991h-137v991l-346 -363l-96 82l512 512z" horiz-adv-x="1270" unicode="↑"/><glyph d="M803.038 13.0635l-81.9941 95.9941l364.978 347.979h-992.939v134.992h992.939l-364.978 347.979l81.9941 96.9941l511.969 -511.969z" horiz-adv-x="1475" unicode="→"/><glyph d="M1147 408.037l-98 81.9951l-347 -362.979v990.94h-137v-990.94l-346 362.979l-96 -81.9951l512 -511.969z" horiz-adv-x="1270" unicode="↓"/><glyph d="M952 526v-127h-880v127h880v0z" horiz-adv-x="1044" unicode="−"/><glyph d="M184 1333h1270v-1333h-1270v1333z" horiz-adv-x="1638" unicode="■"/><glyph d="M184 1333h1270v-1333h-1270v1333zM346 135h946v1063h-946v-1063z" horiz-adv-x="1638" unicode="□"/><glyph d="M184 1100h1024v-1100h-1024v1100zM344 131h705v838h-705v-838z" horiz-adv-x="1393" unicode="◻"/><glyph d="M0 940h940v-940h-940v940z" horiz-adv-x="940" unicode="◼"/><glyph d="M1758.04 963q-9 0 -18.999 -11.5t-26.998 -11.5q-13.999 0 -57.9971 14.5q-43.9971 14.5 -95.9941 32q-51.9961 17.5 -102.493 31.5t-97.4941 29.5t-80.9951 25.5t-69.4961 18.5t-62.4961 8.5q-50.9971 0 -148.491 -18.5q-97.4932 -18.5 -215.486 -18.5 q-20.999 0 -50.4971 -7t-62.4961 -16.5t-65.4961 -17.5t-61.4961 -12t-78.9951 -15.5t-104.494 -26q-54.4961 -14.5 -101.493 -27.5t-66.9961 -19q-20.999 -7 -43.4971 -15q-22.499 -8 -40.998 -17t-30.498 -19.5t-11.999 -20.5q0 -53 52.9971 -70.5 q52.9961 -17.5 136.991 -17.5q167.99 0 216.986 26h104.994q34.998 0 73.4951 6.5q38.498 6.5 76.4951 14.5q37.998 8 68.9961 14t46.9971 6h44.9971q22.999 27 56.4971 64t71.4951 69.5q37.998 32.5 75.9961 55q37.9971 22.5 63.9961 22.5q12.999 0 22.998 -4 q10 -4 19.999 -8l20.999 -10v-10h-59.9971q-19.998 0 -51.4961 -19.5t-66.4961 -49.5t-67.9961 -61.5t-56.9961 -56.5q-24.999 -24 -51.4971 -54t-46.9971 -58.5t-33.998 -56t-13.499 -50.5q0 -22 10.499 -38.5t23.499 -28q12.999 -11.5 27.498 -17.5t20.499 -6 q14.999 0 30.998 42t60.9961 128t85.9951 140.5q40.9971 54.5 57.9961 54.5q13.999 0 34.998 -9q7.99902 -4 17.999 -8v-8h-28.999q-17.998 0 -42.4971 -28.5q-24.498 -28.5 -53.4971 -73.5q-28.998 -45 -56.4961 -98.5t-49.9971 -102.5t-35.998 -87t-13.499 -50 q0 -39 31.998 -56.5t62.9961 -17.5q13.999 0 22.999 62.5q8.99902 62.5 41.9971 160.5t64.4961 134t50.4971 36q9.99902 0 16.999 -1q6.99902 -1 11.999 -1q6 -2 9.99902 -2v-10h-20.998q-19.999 0 -41.498 -30q-21.498 -30 -39.9971 -74t-34.998 -96t-27.498 -98 t-18.499 -78t-7.5 -36q0 -6 6.5 -17.5t16.499 -21.5t21.499 -17q11.499 -7 23.498 -7h146.991q55.9971 0 77.4951 25.5q21.499 25.5 21.499 47.5v54q0 8 -12.499 19q-12.5 11 -27.999 20.5t-30.498 15.5t-18.999 6q-4.99902 0 -8.99902 -7t-7.99902 -15.5q-4 -8.5 -8 -15.5 t-6 -7q-9.99902 0 -9.99902 8q0 4 3 16.5t7.99902 26q5 13.5 11 23.5q5.99902 10 13.999 10q16.999 0 41.4971 -16.5q24.499 -16.5 83.4951 -44.5q59.9961 -29 118.493 -42.5q58.4961 -13.5 131.491 -13.5q73.9961 0 132.492 5t97.4941 12v168q0 47 -5.5 117.5 q-5.49902 70.5 -11.499 136.5q-8 75 -17.999 155h150.991q16.999 -57 28.998 -121q9.99902 -53 19.499 -118.5q9.49902 -65.5 9.49902 -131.5q0 -65 -2 -128.5t-4 -117q-1.99902 -53.5 -5.49902 -95t-7.5 -66.5h-7.99902q5.99902 47 9.99902 153.5t4 233.5h-11.999 q0 -35 -1 -86t-5 -111h-9.99902v158h-13v-72q0 -28 -0.999023 -57q-1 -29 -3 -45h-8v150h-9.99902v-31.5v-45t-1 -47t-3 -36.5h-7.99902v133h-11q0 -72 -5.99902 -127h-8v123h-9.99902q0 -27 -3 -65t-5 -54h-10.999q0 4 1 18.5t2.5 33t1.5 38v33.5h-14.999 q0 -119 -18.499 -185.5t-22.499 -82.5h-7.99902q1.99902 6 5.99902 24.5t8 41t7.49902 43q3.5 20.5 3.5 32.5l-124.992 -12q0 -76 23.498 -130.5q23.499 -54.5 45.498 -91.5h198.987l-4 -20h-77.9951q0 -31 15.499 -57.5t39.498 -26.5h315.98q19.999 53 36.998 121 q13.999 59 23.998 144q10 85 10 196q0 110 -12 206.5q-11.999 96.5 -28.998 168.5q-17.999 84 -42.9971 153h-302.981q-15.999 0 -42.498 -10q-26.498 -10 -37.4971 -16h-80.9951zM217.137 903q-9.99902 -10 -27.498 -21.5t-29.498 -15.5l-4 6q13.999 7 29.498 18t21.499 15 zM1874.04 229q16.999 0 32.998 -8t15.999 -31q0 -32 -28.499 -48.5q-28.498 -16.5 -59.4961 -16.5q-31.998 0 -31.998 39q0 29 23.499 47q23.498 18 47.4971 18z" horiz-adv-x="2460" unicode="☜"/><glyph d="M702 963q9 0 19 -11.5t27 -11.5q14 0 58 14.5t96 32t102.5 31.5t97.5 29.5t81 25.5t69.5 18.5t62.5 8.5q51 0 148.5 -18.5t215.5 -18.5q21 0 50.5 -7t62.5 -16.5t65.5 -17.5t61.5 -12t79 -15.5t104.5 -26t101.5 -27.5t67 -19q21 -7 43.5 -15t41 -17t30.5 -19.5t12 -20.5 q0 -53 -53 -70.5t-137 -17.5q-168 0 -217 26h-105q-35 0 -73.5 6.5t-76.5 14.5t-69 14t-47 6h-45q-23 27 -56.5 64t-71.5 69.5t-76 55t-64 22.5q-13 0 -23 -4l-20 -8l-21 -10v-10h60q20 0 51.5 -19.5t66.5 -49.5t68 -61.5t57 -56.5q25 -24 51.5 -54t47 -58.5t34 -56 t13.5 -50.5q0 -22 -10.5 -38.5t-23.5 -28t-27.5 -17.5t-20.5 -6q-15 0 -31 42t-61 128t-86 140.5t-58 54.5q-14 0 -35 -9q-8 -4 -18 -8v-8h29q18 0 42.5 -28.5t53.5 -73.5t56.5 -98.5t50 -102.5t36 -87t13.5 -50q0 -39 -32 -56.5t-63 -17.5q-14 0 -23 62.5t-42 160.5 t-64.5 134t-50.5 36q-10 0 -17 -1t-12 -1q-6 -2 -10 -2v-10h21q20 0 41.5 -30t40 -74t35 -96t27.5 -98t18.5 -78t7.5 -36q0 -6 -6.5 -17.5t-16.5 -21.5t-21.5 -17t-23.5 -7h-147q-56 0 -77.5 25.5t-21.5 47.5v54q0 8 12.5 19t28 20.5t30.5 15.5t19 6q5 0 9 -7t8 -15.5 t8 -15.5t6 -7q10 0 10 8q0 4 -3 16.5t-8 26t-11 23.5t-14 10q-17 0 -41.5 -16.5t-83.5 -44.5q-60 -29 -118.5 -42.5t-131.5 -13.5q-74 0 -132.5 5t-97.5 12v168q0 47 5.5 117.5t11.5 136.5q8 75 18 155h-151q-17 -57 -29 -121q-10 -53 -19.5 -118.5t-9.5 -131.5 q0 -65 2 -128.5t4 -117t5.5 -95t7.5 -66.5h8q-6 47 -10 153.5t-4 233.5h12q0 -35 1 -86t5 -111h10v158h13v-72q0 -28 1 -57t3 -45h8v150h10v-31.5v-45t1 -47t3 -36.5h8v133h11q0 -72 6 -127h8v123h10q0 -27 3 -65t5 -54h11q0 4 -1 18.5t-2.5 33t-1.5 38v33.5h15 q0 -119 18.5 -185.5t22.5 -82.5h8q-2 6 -6 24.5t-8 41t-7.5 43t-3.5 32.5l125 -12q0 -76 -23.5 -130.5t-45.5 -91.5h-199l4 -20h78q0 -31 -15.5 -57.5t-39.5 -26.5h-316q-20 53 -37 121q-14 59 -24 144t-10 196q0 110 12 206.5t29 168.5q18 84 43 153h303q16 0 42.5 -10 t37.5 -16h81zM2243 903q10 -10 27.5 -21.5t29.5 -15.5l4 6q-14 7 -29.5 18t-21.5 15zM586 229q-17 0 -33 -8t-16 -31q0 -32 28.5 -48.5t59.5 -16.5q32 0 32 39q0 29 -23.5 47t-47.5 18z" horiz-adv-x="2460" unicode="☞"/><glyph d="M84 -510l37 309l149 -22l-75 -299z" horiz-adv-x="512" unicode=""/><glyph d="M272 813h-166l15 129h172l35 242q8 63 36.5 115.5t69.5 89t95.5 57t115.5 20.5q66 0 111 -15t61 -36l-39 -133q-14 16 -47 29.5t-88 13.5q-61 0 -112.5 -41t-61.5 -137l-23 -205h216l-15 -129h-219l-127 -1063q-8 -65 -34.5 -112.5t-66.5 -79t-89.5 -47t-102.5 -15.5 q-47 0 -82 10.5t-57 24.5l29 135q16 -10 40.5 -19t61.5 -9q20 0 44 5t45.5 20t37.5 45t23 79zM942 813h-166l15 129h172l35 242q8 63 36.5 115.5t69.5 89t95.5 57t115.5 20.5q66 0 111 -15t61 -36l-39 -133q-14 16 -47 29.5t-88 13.5q-61 0 -112.5 -41t-61.5 -137l-23 -205 h216l-15 -129h-219l-127 -1063q-8 -65 -34.5 -112.5t-66.5 -79t-89.5 -47t-102.5 -15.5q-47 0 -82 10.5t-57 24.5l29 135q16 -10 40.5 -19t61.5 -9q20 0 44 5t45.5 20t37.5 45t23 79z" horiz-adv-x="1315" unicode="ﬀ"/><glyph d="M272 813h-166l15 129h172l35 242q8 63 36.5 115.5t69.5 89t95.5 57t115.5 20.5q66 0 111 -15t61 -36l-39 -133q-14 16 -47 29.5t-88 13.5q-61 0 -112.5 -41t-61.5 -137l-23 -205h216l-15 -129h-219l-127 -1063q-8 -65 -34.5 -112.5t-66.5 -79t-89.5 -47t-102.5 -15.5 q-47 0 -82 10.5t-57 24.5l29 135q16 -10 40.5 -19t61.5 -9q20 0 44 5t45.5 20t37.5 45t23 79zM955 -18q-88 0 -122 43t-34 100q0 14 1 28.5t3 24.5l107 764h155l-100 -700q-4 -31 -6 -52.5t-2 -31.5q0 -54 51 -54q12 0 24.5 2.5t22.5 6.5q13 4 25 10l-19 -113 q-10 -8 -24 -14q-29 -14 -82 -14zM1144 1282q0 -57 -35 -90t-82 -33q-43 0 -77.5 33t-34.5 90q0 53 34.5 85t77.5 32q47 0 82 -32t35 -85z" horiz-adv-x="1184" unicode="ﬁ"/><glyph d="M272 813h-166l15 129h172l35 242q8 63 36.5 115.5t69.5 89t95.5 57t115.5 20.5q66 0 111 -15t61 -36l-39 -133q-14 16 -47 29.5t-88 13.5q-61 0 -112.5 -41t-61.5 -137l-23 -205h216l-15 -129h-219l-127 -1063q-8 -65 -34.5 -112.5t-66.5 -79t-89.5 -47t-102.5 -15.5 q-47 0 -82 10.5t-57 24.5l29 135q16 -10 40.5 -19t61.5 -9q20 0 44 5t45.5 20t37.5 45t23 79zM965 1456h155l-157 -1214q-4 -31 -6.5 -52.5t-2.5 -31.5q0 -27 23 -40.5t45 -13.5q16 0 31.5 4.5t27.5 8.5q15 6 29 12l-14 -113q-17 -10 -35 -18q-16 -6 -36.5 -11t-47.5 -5 q-100 0 -139 48t-39 111v19t2 18z" horiz-adv-x="1210" unicode="ﬂ"/><glyph d="M272 813h-166l15 129h172l35 242q8 63 36.5 115.5t69.5 89t95.5 57t115.5 20.5q66 0 111 -15t61 -36l-39 -133q-14 16 -47 29.5t-88 13.5q-61 0 -112.5 -41t-61.5 -137l-23 -205h216l-15 -129h-219l-127 -1063q-8 -65 -34.5 -112.5t-66.5 -79t-89.5 -47t-102.5 -15.5 q-47 0 -82 10.5t-57 24.5l29 135q16 -10 40.5 -19t61.5 -9q20 0 44 5t45.5 20t37.5 45t23 79zM942 813h-166l15 129h172l35 242q8 63 36.5 115.5t69.5 89t95.5 57t115.5 20.5q66 0 111 -15t61 -36l-39 -133q-14 16 -47 29.5t-88 13.5q-61 0 -112.5 -41t-61.5 -137l-23 -205 h216l-15 -129h-219l-127 -1063q-8 -65 -34.5 -112.5t-66.5 -79t-89.5 -47t-102.5 -15.5q-47 0 -82 10.5t-57 24.5l29 135q16 -10 40.5 -19t61.5 -9q20 0 44 5t45.5 20t37.5 45t23 79zM1624 -18q-88 0 -122 43t-34 100q0 14 1 28.5t3 24.5l107 764h155l-100 -700 q-4 -31 -6 -52.5t-2 -31.5q0 -54 51 -54q12 0 24.5 2.5t22.5 6.5q13 4 25 10l-19 -113q-10 -8 -24 -14q-29 -14 -82 -14zM1813 1282q0 -57 -35 -90t-82 -33q-43 0 -77.5 33t-34.5 90q0 53 34.5 85t77.5 32q47 0 82 -32t35 -85z" horiz-adv-x="1853" unicode="ﬃ"/><glyph d="M272 813h-166l15 129h172l35 242q8 63 36.5 115.5t69.5 89t95.5 57t115.5 20.5q66 0 111 -15t61 -36l-39 -133q-14 16 -47 29.5t-88 13.5q-61 0 -112.5 -41t-61.5 -137l-23 -205h216l-15 -129h-219l-127 -1063q-8 -65 -34.5 -112.5t-66.5 -79t-89.5 -47t-102.5 -15.5 q-47 0 -82 10.5t-57 24.5l29 135q16 -10 40.5 -19t61.5 -9q20 0 44 5t45.5 20t37.5 45t23 79zM942 813h-166l15 129h172l35 242q8 63 36.5 115.5t69.5 89t95.5 57t115.5 20.5q66 0 111 -15t61 -36l-39 -133q-14 16 -47 29.5t-88 13.5q-61 0 -112.5 -41t-61.5 -137l-23 -205 h216l-15 -129h-219l-127 -1063q-8 -65 -34.5 -112.5t-66.5 -79t-89.5 -47t-102.5 -15.5q-47 0 -82 10.5t-57 24.5l29 135q16 -10 40.5 -19t61.5 -9q20 0 44 5t45.5 20t37.5 45t23 79zM1635 1456h155l-157 -1214q-4 -31 -6.5 -52.5t-2.5 -31.5q0 -27 23 -40.5t45 -13.5 q16 0 31.5 4.5t27.5 8.5q15 6 29 12l-14 -113q-17 -10 -35 -18q-16 -6 -36.5 -11t-47.5 -5q-100 0 -139 48t-39 111v19t2 18z" horiz-adv-x="1880" unicode="ﬄ"/><glyph d="M295 1128l88 351l147 -23l-127 -340z" horiz-adv-x="512"/><glyph d="M377 702l618 631h211l-588 -610l467 -723h-208l-383 633l-142 -129l-61 -504h-162l162 1333h162zM1572 1333l-37 -309l-149 22l75 299z" horiz-adv-x="1380"/><glyph d="M688 1124q217 0 328.5 -134t111.5 -372q0 -145 -40 -262.5t-109.5 -202.5t-161.5 -131.5t-197 -46.5q-219 0 -340 133.5t-121 368.5q0 152 42 272.5t114 203.5t168 127t205 44zM614 104q82 0 146.5 37t110.5 104.5t70.5 164t24.5 215.5q0 174 -71.5 272t-208.5 98 q-80 0 -147.5 -35.5t-116 -103.5t-76 -164t-27.5 -217q0 -170 80 -270.5t215 -100.5z"/><glyph d="M311 127h275l94 762q-25 -8 -54.5 -16.5t-61.5 -14.5t-63.5 -10t-56.5 -4v123q105 2 191 39.5t141 93.5h84l-119 -973h248l-14 -127h-678z"/><glyph d="M706 1124q80 0 149.5 -23.5t121 -66.5t81 -105.5t29.5 -140.5q0 -108 -57.5 -205.5t-147.5 -180.5t-200.5 -150.5t-215.5 -118.5h592l-16 -133h-829l14 111q141 69 268 145t224.5 159t153.5 174t56 189q0 103 -60 162t-173 59q-133 0 -199.5 -77.5t-66.5 -200.5 q0 -19 2 -40.5t6 -41.5l-129 33q-15 43 -15 94q0 70 30 135.5t83 114.5t130 78.5t169 29.5z"/><glyph d="M929 784q0 86 -57 151.5t-176 65.5q-62 0 -110 -19t-82.5 -50t-56 -69t-34.5 -77l-100 88q12 44 44 89t82 80.5t119.5 58t155.5 22.5q92 0 163 -26.5t117 -69.5t69.5 -99.5t23.5 -117.5q0 -68 -28.5 -123t-73.5 -99t-99.5 -75t-103.5 -47q55 -14 103 -43t85 -72t58.5 -98 t21.5 -121q0 -92 -36 -169t-100.5 -132t-151.5 -86t-191 -31q-82 0 -149.5 18.5t-119 48.5t-84 67.5t-46.5 76.5l106 123q23 -92 102.5 -149.5t202.5 -57.5q80 0 137.5 24.5t94.5 65.5t55 93.5t18 105.5q0 49 -15 95t-49 82t-87 57.5t-129 21.5q-10 0 -32.5 -1t-49.5 -2 t-54.5 -4t-48.5 -7l23 145q6 0 20.5 -1t33 -2t36 -1h29.5q98 0 166.5 22.5t112.5 60.5t64.5 87t20.5 100z"/><glyph d="M1126 88h-178l-41 -332h-156l41 332h-657l-31 100l82 101l670 811h213l-105 -887h179zM809 213l94 743l-614 -743h520z"/><glyph d="M628 618q80 0 153 -28.5t126 -82.5t85 -131t32 -171q0 -117 -41 -207t-111 -153.5t-164 -96.5t-201 -33q-110 0 -187 31t-124 68q-55 43 -92 98l94 129q29 -57 74 -100q39 -39 99.5 -70t148.5 -31q73 0 136.5 25.5t109 71t71 105.5t25.5 130q0 147 -67.5 234.5 t-203.5 87.5q-55 0 -98 -12.5t-74 -28.5q-37 -19 -61 -41l-131 57l166 631h676l-17 -135h-547l-106 -404q22 17 57 29q29 10 72 19t100 9z"/><glyph d="M604 -25q-121 0 -206 43t-138 118t-78 173.5t-25 208.5q0 127 33 274.5t104.5 273.5t187.5 209t280 83q108 0 174.5 -26.5t103.5 -59.5q43 -37 64 -86l-107 -107q-22 66 -85.5 110t-158.5 44q-108 0 -189 -56.5t-134 -143.5t-80 -189.5t-27 -196.5q8 15 34 50.5t69 72.5 t106.5 65.5t147.5 28.5q94 0 168.5 -33.5t127 -90t80 -129t27.5 -148.5q0 -74 -26.5 -160t-84 -157.5t-148.5 -121t-220 -49.5zM610 102q135 0 221 86t86 250q0 133 -67.5 210t-210.5 77q-80 0 -139.5 -24.5t-98.5 -67.5t-58.5 -100.5t-19.5 -122.5q0 -62 17.5 -117 t53.5 -98t89 -68t127 -25z"/><glyph d="M1083 1100l-14 -107q-132 -168 -244 -368q-49 -86 -98.5 -187.5t-93.5 -215t-80.5 -237.5t-57.5 -245h-149q20 123 55 247t76 235.5t88 209.5t92 182q106 193 227 353h-700l16 133h883z"/><glyph d="M600 -25q-100 0 -182 26t-140.5 73t-90.5 113.5t-32 150.5q0 74 23 129t57.5 98t74.5 71t75 45t58.5 25.5l23.5 8.5q-47 22 -84 59q-33 33 -58.5 82t-25.5 123q0 82 32.5 152.5t88 121t130 78t158.5 27.5q93 0 168.5 -23.5t128 -65.5t81 -101.5t28.5 -127.5 q0 -92 -37 -153.5t-83 -99t-86 -54t-46 -18.5q63 -27 115 -72q43 -39 79.5 -100.5t36.5 -149.5q0 -104 -39.5 -181t-108.5 -130t-158 -80t-187 -27zM450 1001q0 -108 62.5 -170.5t175.5 -62.5q55 0 103 17.5t85 50t58.5 79t21.5 101.5q0 102 -69.5 160.5t-184.5 58.5 q-51 0 -97 -16.5t-80 -47t-54.5 -73.5t-20.5 -97zM317 354q0 -112 76 -183t211 -71q68 0 128 20.5t104 58.5t71 91.5t27 120.5q0 119 -82 186.5t-207 67.5q-66 0 -125 -18.5t-104.5 -56.5t-72 -91t-26.5 -125z"/><glyph d="M680 1124q119 0 205 -40t143.5 -111.5t85 -173t27.5 -221.5q0 -76 -10 -169.5t-35 -189.5t-69 -187t-110.5 -161t-159.5 -113t-218 -43q-121 0 -192.5 30t-112.5 65q-47 40 -66 96l97 110q22 -51 61 -88q35 -34 90 -61t141 -27q119 0 196 58.5t123 143.5t67.5 180 t29.5 167q-10 -16 -34.5 -48t-66.5 -64.5t-100.5 -56t-134.5 -23.5q-104 0 -185 35.5t-136.5 95t-83 137.5t-27.5 164q0 73 22.5 160.5t78 162t146.5 123.5t228 49zM672 997q-135 0 -218 -88t-83 -252q0 -145 69.5 -232t213.5 -87q80 0 139 28.5t97 75.5t56.5 108.5 t18.5 127.5q0 65 -18.5 124.5t-55.5 101.5t-91 67.5t-128 25.5z"/><glyph d="M688 1124q217 0 328.5 -134t111.5 -372q0 -145 -40 -262.5t-109.5 -202.5t-161.5 -131.5t-197 -46.5q-219 0 -340 133.5t-121 368.5q0 152 42 272.5t114 203.5t168 127t205 44zM614 104q82 0 146.5 37t110.5 104.5t70.5 164t24.5 215.5q0 174 -71.5 272t-208.5 98 q-80 0 -147.5 -35.5t-116 -103.5t-76 -164t-27.5 -217q0 -170 80 -270.5t215 -100.5z"/><glyph d="M311 127h275l94 762q-25 -8 -54.5 -16.5t-61.5 -14.5t-63.5 -10t-56.5 -4v123q105 2 191 39.5t141 93.5h84l-119 -973h248l-14 -127h-678z"/><glyph d="M706 1124q80 0 149.5 -23.5t121 -66.5t81 -105.5t29.5 -140.5q0 -108 -57.5 -205.5t-147.5 -180.5t-200.5 -150.5t-215.5 -118.5h592l-16 -133h-829l14 111q141 69 268 145t224.5 159t153.5 174t56 189q0 103 -60 162t-173 59q-133 0 -199.5 -77.5t-66.5 -200.5 q0 -19 2 -40.5t6 -41.5l-129 33q-15 43 -15 94q0 70 30 135.5t83 114.5t130 78.5t169 29.5z"/><glyph d="M929 784q0 86 -57 151.5t-176 65.5q-62 0 -110 -19t-82.5 -50t-56 -69t-34.5 -77l-100 88q12 44 44 89t82 80.5t119.5 58t155.5 22.5q92 0 163 -26.5t117 -69.5t69.5 -99.5t23.5 -117.5q0 -68 -28.5 -123t-73.5 -99t-99.5 -75t-103.5 -47q55 -14 103 -43t85 -72t58.5 -98 t21.5 -121q0 -92 -36 -169t-100.5 -132t-151.5 -86t-191 -31q-82 0 -149.5 18.5t-119 48.5t-84 67.5t-46.5 76.5l106 123q23 -92 102.5 -149.5t202.5 -57.5q80 0 137.5 24.5t94.5 65.5t55 93.5t18 105.5q0 49 -15 95t-49 82t-87 57.5t-129 21.5q-10 0 -32.5 -1t-49.5 -2 t-54.5 -4t-48.5 -7l23 145q6 0 20.5 -1t33 -2t36 -1h29.5q98 0 166.5 22.5t112.5 60.5t64.5 87t20.5 100z"/><glyph d="M1126 88h-178l-41 -332h-156l41 332h-657l-31 100l82 101l670 811h213l-105 -887h179zM809 213l94 743l-614 -743h520z"/><glyph d="M628 618q80 0 153 -28.5t126 -82.5t85 -131t32 -171q0 -117 -41 -207t-111 -153.5t-164 -96.5t-201 -33q-110 0 -187 31t-124 68q-55 43 -92 98l94 129q29 -57 74 -100q39 -39 99.5 -70t148.5 -31q73 0 136.5 25.5t109 71t71 105.5t25.5 130q0 147 -67.5 234.5 t-203.5 87.5q-55 0 -98 -12.5t-74 -28.5q-37 -19 -61 -41l-131 57l166 631h676l-17 -135h-547l-106 -404q22 17 57 29q29 10 72 19t100 9z"/><glyph d="M604 -25q-121 0 -206 43t-138 118t-78 173.5t-25 208.5q0 127 33 274.5t104.5 273.5t187.5 209t280 83q108 0 174.5 -26.5t103.5 -59.5q43 -37 64 -86l-107 -107q-22 66 -85.5 110t-158.5 44q-108 0 -189 -56.5t-134 -143.5t-80 -189.5t-27 -196.5q8 15 34 50.5t69 72.5 t106.5 65.5t147.5 28.5q94 0 168.5 -33.5t127 -90t80 -129t27.5 -148.5q0 -74 -26.5 -160t-84 -157.5t-148.5 -121t-220 -49.5zM610 102q135 0 221 86t86 250q0 133 -67.5 210t-210.5 77q-80 0 -139.5 -24.5t-98.5 -67.5t-58.5 -100.5t-19.5 -122.5q0 -62 17.5 -117 t53.5 -98t89 -68t127 -25z"/><glyph d="M1083 1100l-14 -107q-132 -168 -244 -368q-49 -86 -98.5 -187.5t-93.5 -215t-80.5 -237.5t-57.5 -245h-149q20 123 55 247t76 235.5t88 209.5t92 182q106 193 227 353h-700l16 133h883z"/><glyph d="M600 -25q-100 0 -182 26t-140.5 73t-90.5 113.5t-32 150.5q0 74 23 129t57.5 98t74.5 71t75 45t58.5 25.5l23.5 8.5q-47 22 -84 59q-33 33 -58.5 82t-25.5 123q0 82 32.5 152.5t88 121t130 78t158.5 27.5q93 0 168.5 -23.5t128 -65.5t81 -101.5t28.5 -127.5 q0 -92 -37 -153.5t-83 -99t-86 -54t-46 -18.5q63 -27 115 -72q43 -39 79.5 -100.5t36.5 -149.5q0 -104 -39.5 -181t-108.5 -130t-158 -80t-187 -27zM450 1001q0 -108 62.5 -170.5t175.5 -62.5q55 0 103 17.5t85 50t58.5 79t21.5 101.5q0 102 -69.5 160.5t-184.5 58.5 q-51 0 -97 -16.5t-80 -47t-54.5 -73.5t-20.5 -97zM317 354q0 -112 76 -183t211 -71q68 0 128 20.5t104 58.5t71 91.5t27 120.5q0 119 -82 186.5t-207 67.5q-66 0 -125 -18.5t-104.5 -56.5t-72 -91t-26.5 -125z"/><glyph d="M680 1124q119 0 205 -40t143.5 -111.5t85 -173t27.5 -221.5q0 -76 -10 -169.5t-35 -189.5t-69 -187t-110.5 -161t-159.5 -113t-218 -43q-121 0 -192.5 30t-112.5 65q-47 40 -66 96l97 110q22 -51 61 -88q35 -34 90 -61t141 -27q119 0 196 58.5t123 143.5t67.5 180 t29.5 167q-10 -16 -34.5 -48t-66.5 -64.5t-100.5 -56t-134.5 -23.5q-104 0 -185 35.5t-136.5 95t-83 137.5t-27.5 164q0 73 22.5 160.5t78 162t146.5 123.5t228 49zM672 997q-135 0 -218 -88t-83 -252q0 -145 69.5 -232t213.5 -87q80 0 139 28.5t97 75.5t56.5 108.5 t18.5 127.5q0 65 -18.5 124.5t-55.5 101.5t-91 67.5t-128 25.5z"/><glyph d="M64 1159l276 328h127l209 -328h-147l-136 238l-184 -238h-145z" horiz-adv-x="512"/><glyph d="M312 -315q0 -52 -34 -89.5t-87 -37.5q-47 0 -76 31.5t-29 78.5q0 53 33 91t86 38q47 0 77 -31.5t30 -80.5z" horiz-adv-x="512"/><glyph d="M465 1228l-97 -69l-240 346l97 69z" horiz-adv-x="512"/><glyph d="M507 1574l97 -69l-240 -346l-97 69z" horiz-adv-x="512"/><glyph d="M260 1392q29 0 58 -15.5t55 -34.5t48 -34.5t38 -15.5q17 0 28 9t17.5 23t10.5 32.5t7 37.5l113 -43q4 -30 -4 -63.5t-28.5 -61.5t-52.5 -46.5t-75 -18.5q-30 0 -58 15.5t-53.5 34.5t-48 34.5t-39.5 15.5q-15 0 -25.5 -8.5t-17.5 -22.5t-12 -32.5t-9 -38.5l-112 43 q-2 40 9.5 75t33 60.5t51.5 40t66 14.5z" horiz-adv-x="512"/><glyph d="M74 1272h560l-12 -113h-560z" horiz-adv-x="512"/><glyph d="M364 1272q80 0 127 53t53 130h139q-6 -64 -30.5 -118t-66 -94t-101 -62t-133.5 -22q-151 0 -219 82.5t-53 213.5h133q-8 -77 33.5 -130t117.5 -53z" horiz-adv-x="512"/><glyph d="M285 1278q0 -53 -35 -86t-86 -33q-47 0 -76.5 30t-29.5 77q0 55 33.5 87.5t84.5 32.5q48 0 78.5 -29.5t30.5 -78.5zM657 1278q0 -53 -35 -86t-84 -33t-79 30t-30 77q0 55 34 87.5t87 32.5q47 0 77 -29.5t30 -78.5z" horiz-adv-x="512"/><glyph d="M378 734q0 -52 -34 -89.5t-87 -37.5q-47 0 -76 31.5t-29 78.5q0 54 33 91.5t86 37.5q47 0 77 -31.5t30 -80.5z" horiz-adv-x="512"/><glyph d="M382 1333l-27 -219q-16 -72 -41.5 -122t-48.5 -83q-28 -37 -57 -61l-111 63q19 19 39 47q17 25 34.5 64t29.5 92q4 20 9 58t9 73q4 41 8 88h156z" horiz-adv-x="512"/><glyph d="M57 1252h620l-12 -113h-620zM602 1716l84 -84l-297 -299l-84 84z" horiz-adv-x="512"/><glyph d="M94 1560h620l-12 -113h-620zM282 1236q0 -53 -35 -86t-86 -33q-47 0 -76.5 30t-29.5 77q0 55 33.5 87.5t84.5 32.5q48 0 78.5 -29.5t30.5 -78.5zM674 1236q0 -53 -35 -86t-84 -33t-79 30t-30 77q0 55 34 87.5t87 32.5q47 0 77 -29.5t30 -78.5z" horiz-adv-x="512"/><glyph d="M95 1560h620l-12 -113h-620zM482 1234q0 -57 -35 -90t-82 -33q-43 0 -77.5 33t-34.5 90q0 53 34.5 85t77.5 32q47 0 82 -32t35 -85z" horiz-adv-x="512"/><glyph d="M99 1592h620l-12 -113h-620zM249 1348q32 0 64 -15.5t60.5 -34.5t52.5 -34.5t42 -15.5q17 0 28 9t17.5 23t10.5 32.5t7 37.5l113 -43q4 -30 -4 -63.5t-28.5 -61.5t-52.5 -46.5t-75 -18.5q-33 0 -64 15.5t-59 34.5t-52.5 34.5t-43.5 15.5q-15 0 -25.5 -8.5t-17.5 -22.5 t-12 -32.5t-9 -38.5l-112 43q-2 40 9.5 75t33 60.5t51.5 40t66 14.5z" horiz-adv-x="512"/><glyph d="M809 942h195l-433 -420l371 -522h-192l-299 438l-134 -116l-38 -322h-156l161 1333h156l-106 -850z" horiz-adv-x="1034"/><glyph d="M272 1333h155l-142 -1091q-4 -31 -6.5 -52.5t-2.5 -31.5q0 -27 23 -40.5t45 -13.5q16 0 31.5 4.5t27.5 8.5q15 6 29 12l-14 -113q-17 -10 -35 -18q-16 -6 -36.5 -11t-47.5 -5q-100 0 -139 48t-39 111v19t2 18z" horiz-adv-x="532"/><glyph d="M862 -18q-135 0 -135 137q0 28 6 59q10 60 19.5 109t18.5 97t19.5 100.5t22.5 115.5q6 33 6 64q0 88 -48 132t-134 44q-123 0 -202 -91.5t-105 -283.5q-2 -19 -6.5 -47.5t-8.5 -65.5t-8 -76.5t-8 -78.5q-10 -93 -20 -197h-156l161 1333h156l-80 -567h11q32 55 82 100 q41 37 103 69t149 32q131 0 197.5 -73t66.5 -189q0 -35 -6 -72q-25 -146 -47.5 -249t-41.5 -200q-2 -10 -2 -20q0 -35 14.5 -45t39.5 -10q20 0 41 4q8 2 16 6l-18 -117q-13 -6 -29 -10q-31 -10 -74 -10z" horiz-adv-x="1112"/><glyph d="M477 1487l-37 -309l-149 22l75 299z" horiz-adv-x="512"/><glyph d="M668 1124q217 0 328.5 -134t111.5 -372q0 -145 -40 -262.5t-109.5 -202.5t-161.5 -131.5t-197 -46.5q-219 0 -340 133.5t-121 368.5q0 152 42 272.5t114 203.5t168 127t205 44zM594 104q82 0 146.5 37t110.5 104.5t70.5 164t24.5 215.5q0 174 -71.5 272t-208.5 98 q-80 0 -147.5 -35.5t-116 -103.5t-76 -164t-27.5 -217q0 -170 80 -270.5t215 -100.5z"/><glyph d="M135 127h275l94 762q-25 -8 -54.5 -16.5t-61.5 -14.5t-63.5 -10t-56.5 -4v123q105 2 191 39.5t141 93.5h84l-119 -973h248l-14 -127h-678z" horiz-adv-x="922"/><glyph d="M602 1124q80 0 149.5 -23.5t121 -66.5t81 -105.5t29.5 -140.5q0 -108 -57.5 -205.5t-147.5 -180.5t-200.5 -150.5t-215.5 -118.5h592l-16 -133h-829l14 111q141 69 268 145t224.5 159t153.5 174t56 189q0 103 -60 162t-173 59q-133 0 -199.5 -77.5t-66.5 -200.5 q0 -19 2 -40.5t6 -41.5l-129 33q-15 43 -15 94q0 70 30 135.5t83 114.5t130 78.5t169 29.5z" horiz-adv-x="1085"/><glyph d="M825 784q0 86 -57 151.5t-176 65.5q-62 0 -110 -19t-82.5 -50t-56 -69t-34.5 -77l-100 88q12 44 44 89t82 80.5t119.5 58t155.5 22.5q92 0 163 -26.5t117 -69.5t69.5 -99.5t23.5 -117.5q0 -68 -28.5 -123t-73.5 -99t-99.5 -75t-103.5 -47q55 -14 103 -43t85 -72t58.5 -98 t21.5 -121q0 -92 -36 -169t-100.5 -132t-151.5 -86t-191 -31q-82 0 -149.5 18.5t-119 48.5t-84 67.5t-46.5 76.5l106 123q23 -92 102.5 -149.5t202.5 -57.5q80 0 137.5 24.5t94.5 65.5t55 93.5t18 105.5q0 49 -15 95t-49 82t-87 57.5t-129 21.5q-10 0 -32.5 -1t-49.5 -2 t-54.5 -4t-48.5 -7l23 145q6 0 20.5 -1t33 -2t36 -1h29.5q98 0 166.5 22.5t112.5 60.5t64.5 87t20.5 100z" horiz-adv-x="1085"/><glyph d="M1077 88h-178l-41 -332h-156l41 332h-657l-31 100l82 101l670 811h213l-105 -887h179zM760 213l94 743l-614 -743h520z" horiz-adv-x="1167"/><glyph d="M565 618q80 0 153 -28.5t126 -82.5t85 -131t32 -171q0 -117 -41 -207t-111 -153.5t-164 -96.5t-201 -33q-110 0 -187 31t-124 68q-55 43 -92 98l94 129q29 -57 74 -100q39 -39 99.5 -70t148.5 -31q73 0 136.5 25.5t109 71t71 105.5t25.5 130q0 147 -67.5 234.5 t-203.5 87.5q-55 0 -98 -12.5t-74 -28.5q-37 -19 -61 -41l-131 57l166 631h676l-17 -135h-547l-106 -404q22 17 57 29q29 10 72 19t100 9z" horiz-adv-x="1085"/><glyph d="M592 -25q-121 0 -206 43t-138 118t-78 173.5t-25 208.5q0 127 33 274.5t104.5 273.5t187.5 209t280 83q108 0 174.5 -26.5t103.5 -59.5q43 -37 64 -86l-107 -107q-22 66 -85.5 110t-158.5 44q-108 0 -189 -56.5t-134 -143.5t-80 -189.5t-27 -196.5q8 15 34 50.5t69 72.5 t106.5 65.5t147.5 28.5q94 0 168.5 -33.5t127 -90t80 -129t27.5 -148.5q0 -74 -26.5 -160t-84 -157.5t-148.5 -121t-220 -49.5zM598 102q135 0 221 86t86 250q0 133 -67.5 210t-210.5 77q-80 0 -139.5 -24.5t-98.5 -67.5t-58.5 -100.5t-19.5 -122.5q0 -62 17.5 -117 t53.5 -98t89 -68t127 -25z" horiz-adv-x="1167"/><glyph d="M977 1100l-14 -107q-132 -168 -244 -368q-49 -86 -98.5 -187.5t-93.5 -215t-80.5 -237.5t-57.5 -245h-149q20 123 55 247t76 235.5t88 209.5t92 182q106 193 227 353h-700l16 133h883z" horiz-adv-x="1004"/></font>
</defs>
</svg>
